<svg width="354" height="405" viewBox="0 0 354 405" fill="none" xmlns="http://www.w3.org/2000/svg">
<rect x="27" y="31" width="286" height="365.55" rx="6.31347"/>
<rect x="292" y="343" width="62" height="62" rx="5" fill="#6E59A4"/>
<rect x="11" y="230" width="33" height="33" rx="5" fill="#FFBB47"/>
<path d="M260 235V30H168" stroke="#FFBB47" stroke-width="2.0044" stroke-linecap="round" stroke-dasharray="5.35 5.35"/>
<g filter="url(#filter0_f_0_214)">
<circle cx="260" cy="238" r="5" fill="white"/>
</g>
<circle cx="260.004" cy="238.008" r="3" fill="#FFBB47"/>
<rect width="172" height="60" rx="6.68132" fill="#FFBB47"/>
<path opacity="0.8" d="M66.575 20.8733C66.575 20.1933 66.7284 19.5833 67.035 19.0433C67.3417 18.4966 67.7584 18.0699 68.285 17.7633C68.8184 17.4566 69.4084 17.3033 70.055 17.3033C70.815 17.3033 71.4784 17.4866 72.045 17.8533C72.6117 18.2199 73.025 18.7399 73.285 19.4133H72.195C72.0017 18.9933 71.7217 18.6699 71.355 18.4433C70.995 18.2166 70.5617 18.1033 70.055 18.1033C69.5684 18.1033 69.1317 18.2166 68.745 18.4433C68.3584 18.6699 68.055 18.9933 67.835 19.4133C67.615 19.8266 67.505 20.3133 67.505 20.8733C67.505 21.4266 67.615 21.9133 67.835 22.3333C68.055 22.7466 68.3584 23.0666 68.745 23.2933C69.1317 23.5199 69.5684 23.6333 70.055 23.6333C70.5617 23.6333 70.995 23.5233 71.355 23.3033C71.7217 23.0766 72.0017 22.7533 72.195 22.3333H73.285C73.025 22.9999 72.6117 23.5166 72.045 23.8833C71.4784 24.2433 70.815 24.4233 70.055 24.4233C69.4084 24.4233 68.8184 24.2733 68.285 23.9733C67.7584 23.6666 67.3417 23.2433 67.035 22.7033C66.7284 22.1633 66.575 21.5533 66.575 20.8733ZM79.4996 18.8833V24.3633H78.5896V23.5533C78.4163 23.8333 78.173 24.0533 77.8596 24.2133C77.553 24.3666 77.213 24.4433 76.8396 24.4433C76.413 24.4433 76.0296 24.3566 75.6896 24.1833C75.3496 24.0033 75.0796 23.7366 74.8796 23.3833C74.6863 23.0299 74.5896 22.5999 74.5896 22.0933V18.8833H75.4896V21.9733C75.4896 22.5133 75.6263 22.9299 75.8996 23.2233C76.173 23.5099 76.5463 23.6533 77.0196 23.6533C77.5063 23.6533 77.8896 23.5033 78.1696 23.2033C78.4496 22.9033 78.5896 22.4666 78.5896 21.8933V18.8833H79.4996ZM81.9461 19.7733C82.1061 19.4599 82.3328 19.2166 82.6261 19.0433C82.9261 18.8699 83.2894 18.7833 83.7161 18.7833V19.7233H83.4761C82.4561 19.7233 81.9461 20.2766 81.9461 21.3833V24.3633H81.0361V18.8833H81.9461V19.7733ZM87.1566 24.4533C86.6432 24.4533 86.1766 24.3366 85.7566 24.1033C85.3432 23.8699 85.0166 23.5399 84.7766 23.1133C84.5432 22.6799 84.4266 22.1799 84.4266 21.6133C84.4266 21.0533 84.5466 20.5599 84.7866 20.1333C85.0332 19.6999 85.3666 19.3699 85.7866 19.1433C86.2066 18.9099 86.6766 18.7933 87.1966 18.7933C87.7166 18.7933 88.1866 18.9099 88.6066 19.1433C89.0266 19.3699 89.3566 19.6966 89.5966 20.1233C89.8432 20.5499 89.9666 21.0466 89.9666 21.6133C89.9666 22.1799 89.8399 22.6799 89.5866 23.1133C89.3399 23.5399 89.0032 23.8699 88.5766 24.1033C88.1499 24.3366 87.6766 24.4533 87.1566 24.4533ZM87.1566 23.6533C87.4832 23.6533 87.7899 23.5766 88.0766 23.4233C88.3632 23.2699 88.5932 23.0399 88.7666 22.7333C88.9466 22.4266 89.0366 22.0533 89.0366 21.6133C89.0366 21.1733 88.9499 20.7999 88.7766 20.4933C88.6032 20.1866 88.3766 19.9599 88.0966 19.8133C87.8166 19.6599 87.5132 19.5833 87.1866 19.5833C86.8532 19.5833 86.5466 19.6599 86.2666 19.8133C85.9932 19.9599 85.7732 20.1866 85.6066 20.4933C85.4399 20.7999 85.3566 21.1733 85.3566 21.6133C85.3566 22.0599 85.4366 22.4366 85.5966 22.7433C85.7632 23.0499 85.9832 23.2799 86.2566 23.4333C86.5299 23.5799 86.8299 23.6533 87.1566 23.6533ZM92.0731 16.9633V24.3633H91.1631V16.9633H92.0731ZM96.014 24.4533C95.5007 24.4533 95.034 24.3366 94.614 24.1033C94.2007 23.8699 93.874 23.5399 93.634 23.1133C93.4007 22.6799 93.284 22.1799 93.284 21.6133C93.284 21.0533 93.404 20.5599 93.644 20.1333C93.8907 19.6999 94.224 19.3699 94.644 19.1433C95.064 18.9099 95.534 18.7933 96.054 18.7933C96.574 18.7933 97.044 18.9099 97.464 19.1433C97.884 19.3699 98.214 19.6966 98.454 20.1233C98.7007 20.5499 98.824 21.0466 98.824 21.6133C98.824 22.1799 98.6973 22.6799 98.444 23.1133C98.1973 23.5399 97.8607 23.8699 97.434 24.1033C97.0073 24.3366 96.534 24.4533 96.014 24.4533ZM96.014 23.6533C96.3407 23.6533 96.6473 23.5766 96.934 23.4233C97.2207 23.2699 97.4507 23.0399 97.624 22.7333C97.804 22.4266 97.894 22.0533 97.894 21.6133C97.894 21.1733 97.8073 20.7999 97.634 20.4933C97.4607 20.1866 97.234 19.9599 96.954 19.8133C96.674 19.6599 96.3707 19.5833 96.044 19.5833C95.7107 19.5833 95.404 19.6599 95.124 19.8133C94.8507 19.9599 94.6307 20.1866 94.464 20.4933C94.2973 20.7999 94.214 21.1733 94.214 21.6133C94.214 22.0599 94.294 22.4366 94.454 22.7433C94.6207 23.0499 94.8407 23.2799 95.114 23.4333C95.3873 23.5799 95.6873 23.6533 96.014 23.6533ZM102.28 18.7933C102.754 18.7933 103.167 18.8966 103.52 19.1033C103.88 19.3099 104.147 19.5699 104.32 19.8833V18.8833H105.24V24.4833C105.24 24.9833 105.134 25.4266 104.92 25.8133C104.707 26.2066 104.4 26.5133 104 26.7333C103.607 26.9533 103.147 27.0633 102.62 27.0633C101.9 27.0633 101.3 26.8933 100.82 26.5533C100.34 26.2133 100.057 25.7499 99.9705 25.1633H100.87C100.97 25.4966 101.177 25.7633 101.49 25.9633C101.804 26.1699 102.18 26.2733 102.62 26.2733C103.12 26.2733 103.527 26.1166 103.84 25.8033C104.16 25.4899 104.32 25.0499 104.32 24.4833V23.3333C104.14 23.6533 103.874 23.9199 103.52 24.1333C103.167 24.3466 102.754 24.4533 102.28 24.4533C101.794 24.4533 101.35 24.3333 100.95 24.0933C100.557 23.8533 100.247 23.5166 100.02 23.0833C99.7938 22.6499 99.6805 22.1566 99.6805 21.6033C99.6805 21.0433 99.7938 20.5533 100.02 20.1333C100.247 19.7066 100.557 19.3766 100.95 19.1433C101.35 18.9099 101.794 18.7933 102.28 18.7933ZM104.32 21.6133C104.32 21.1999 104.237 20.8399 104.07 20.5333C103.904 20.2266 103.677 19.9933 103.39 19.8333C103.11 19.6666 102.8 19.5833 102.46 19.5833C102.12 19.5833 101.81 19.6633 101.53 19.8233C101.25 19.9833 101.027 20.2166 100.86 20.5233C100.694 20.8299 100.61 21.1899 100.61 21.6033C100.61 22.0233 100.694 22.3899 100.86 22.7033C101.027 23.0099 101.25 23.2466 101.53 23.4133C101.81 23.5733 102.12 23.6533 102.46 23.6533C102.8 23.6533 103.11 23.5733 103.39 23.4133C103.677 23.2466 103.904 23.0099 104.07 22.7033C104.237 22.3899 104.32 22.0266 104.32 21.6133ZM111.498 18.8833L108.198 26.9433H107.258L108.338 24.3033L106.128 18.8833H107.138L108.858 23.3233L110.558 18.8833H111.498Z" fill="white"/>
<path d="M77.121 33.0469V42.7349H75.847V35.5109L72.627 42.7349H71.731L68.497 35.4969V42.7349H67.223V33.0469H68.595L72.179 41.0549L75.763 33.0469H77.121ZM82.6276 42.8609C81.9089 42.8609 81.2556 42.6975 80.6676 42.3709C80.0889 42.0442 79.6316 41.5822 79.2956 40.9849C78.9689 40.3782 78.8056 39.6782 78.8056 38.8849C78.8056 38.1009 78.9736 37.4102 79.3096 36.8129C79.6549 36.2062 80.1216 35.7442 80.7096 35.4269C81.2976 35.1002 81.9556 34.9369 82.6836 34.9369C83.4116 34.9369 84.0696 35.1002 84.6576 35.4269C85.2456 35.7442 85.7076 36.2015 86.0436 36.7989C86.3889 37.3962 86.5616 38.0915 86.5616 38.8849C86.5616 39.6782 86.3843 40.3782 86.0296 40.9849C85.6843 41.5822 85.2129 42.0442 84.6156 42.3709C84.0183 42.6975 83.3556 42.8609 82.6276 42.8609ZM82.6276 41.7409C83.0849 41.7409 83.5143 41.6335 83.9156 41.4189C84.3169 41.2042 84.6389 40.8822 84.8816 40.4529C85.1336 40.0235 85.2596 39.5009 85.2596 38.8849C85.2596 38.2689 85.1383 37.7462 84.8956 37.3169C84.6529 36.8875 84.3356 36.5702 83.9436 36.3649C83.5516 36.1502 83.1269 36.0429 82.6696 36.0429C82.2029 36.0429 81.7736 36.1502 81.3816 36.3649C80.9989 36.5702 80.6909 36.8875 80.4576 37.3169C80.2243 37.7462 80.1076 38.2689 80.1076 38.8849C80.1076 39.5102 80.2196 40.0375 80.4436 40.4669C80.6769 40.8962 80.9849 41.2182 81.3676 41.4329C81.7503 41.6382 82.1703 41.7409 82.6276 41.7409ZM88.8947 33.8169C88.652 33.8169 88.4467 33.7329 88.2787 33.5649C88.1107 33.3969 88.0267 33.1915 88.0267 32.9489C88.0267 32.7062 88.1107 32.5009 88.2787 32.3329C88.4467 32.1649 88.652 32.0809 88.8947 32.0809C89.128 32.0809 89.324 32.1649 89.4827 32.3329C89.6507 32.5009 89.7347 32.7062 89.7347 32.9489C89.7347 33.1915 89.6507 33.3969 89.4827 33.5649C89.324 33.7329 89.128 33.8169 88.8947 33.8169ZM89.5107 35.0629V42.7349H88.2367V35.0629H89.5107ZM94.398 42.8609C93.81 42.8609 93.2827 42.7629 92.816 42.5669C92.3493 42.3615 91.9807 42.0815 91.71 41.7269C91.4393 41.3629 91.29 40.9475 91.262 40.4809H92.578C92.6153 40.8635 92.7927 41.1762 93.11 41.4189C93.4367 41.6615 93.8613 41.7829 94.384 41.7829C94.8693 41.7829 95.252 41.6755 95.532 41.4609C95.812 41.2462 95.952 40.9755 95.952 40.6489C95.952 40.3129 95.8027 40.0655 95.504 39.9069C95.2053 39.7389 94.7433 39.5755 94.118 39.4169C93.5487 39.2675 93.082 39.1182 92.718 38.9689C92.3633 38.8102 92.0553 38.5815 91.794 38.2829C91.542 37.9749 91.416 37.5735 91.416 37.0789C91.416 36.6869 91.5327 36.3275 91.766 36.0009C91.9993 35.6742 92.3307 35.4175 92.76 35.2309C93.1893 35.0349 93.6793 34.9369 94.23 34.9369C95.0793 34.9369 95.7653 35.1515 96.288 35.5809C96.8107 36.0102 97.0907 36.5982 97.128 37.3449H95.854C95.826 36.9435 95.6627 36.6215 95.364 36.3789C95.0747 36.1362 94.6827 36.0149 94.188 36.0149C93.7307 36.0149 93.3667 36.1129 93.096 36.3089C92.8253 36.5049 92.69 36.7615 92.69 37.0789C92.69 37.3309 92.7693 37.5409 92.928 37.7089C93.096 37.8675 93.3013 37.9982 93.544 38.1009C93.796 38.1942 94.1413 38.3015 94.58 38.4229C95.1307 38.5722 95.5787 38.7215 95.924 38.8709C96.2693 39.0109 96.5633 39.2255 96.806 39.5149C97.058 39.8042 97.1887 40.1822 97.198 40.6489C97.198 41.0689 97.0813 41.4469 96.848 41.7829C96.6147 42.1189 96.2833 42.3849 95.854 42.5809C95.434 42.7675 94.9487 42.8609 94.398 42.8609ZM100.55 36.1129V40.6349C100.55 41.0082 100.63 41.2742 100.788 41.4329C100.947 41.5822 101.222 41.6569 101.614 41.6569H102.552V42.7349H101.404C100.695 42.7349 100.163 42.5715 99.8085 42.2449C99.4538 41.9182 99.2765 41.3815 99.2765 40.6349V36.1129H98.2825V35.0629H99.2765V33.1309H100.55V35.0629H102.552V36.1129H100.55ZM110.9 35.0629V42.7349H109.626V41.6009C109.383 41.9929 109.043 42.3009 108.604 42.5249C108.175 42.7395 107.699 42.8469 107.176 42.8469C106.579 42.8469 106.042 42.7255 105.566 42.4829C105.09 42.2309 104.712 41.8575 104.432 41.3629C104.161 40.8682 104.026 40.2662 104.026 39.5569V35.0629H105.286V39.3889C105.286 40.1449 105.477 40.7282 105.86 41.1389C106.243 41.5402 106.765 41.7409 107.428 41.7409C108.109 41.7409 108.646 41.5309 109.038 41.1109C109.43 40.6909 109.626 40.0795 109.626 39.2769V35.0629H110.9ZM114.325 36.3089C114.549 35.8702 114.866 35.5295 115.277 35.2869C115.697 35.0442 116.206 34.9229 116.803 34.9229V36.2389H116.467C115.039 36.2389 114.325 37.0135 114.325 38.5629V42.7349H113.051V35.0629H114.325V36.3089ZM118.932 33.8169C118.689 33.8169 118.484 33.7329 118.316 33.5649C118.148 33.3969 118.064 33.1915 118.064 32.9489C118.064 32.7062 118.148 32.5009 118.316 32.3329C118.484 32.1649 118.689 32.0809 118.932 32.0809C119.165 32.0809 119.361 32.1649 119.52 32.3329C119.688 32.5009 119.772 32.7062 119.772 32.9489C119.772 33.1915 119.688 33.3969 119.52 33.5649C119.361 33.7329 119.165 33.8169 118.932 33.8169ZM119.548 35.0629V42.7349H118.274V35.0629H119.548ZM122.671 41.6849H126.437V42.7349H121.215V41.6849L124.939 36.0989H121.243V35.0629H126.409V36.0989L122.671 41.6849ZM135.09 38.6049C135.09 38.8475 135.076 39.1042 135.048 39.3749H128.916C128.963 40.1309 129.22 40.7235 129.686 41.1529C130.162 41.5729 130.736 41.7829 131.408 41.7829C131.959 41.7829 132.416 41.6569 132.78 41.4049C133.154 41.1435 133.415 40.7982 133.564 40.3689H134.936C134.731 41.1062 134.32 41.7082 133.704 42.1749C133.088 42.6322 132.323 42.8609 131.408 42.8609C130.68 42.8609 130.027 42.6975 129.448 42.3709C128.879 42.0442 128.431 41.5822 128.104 40.9849C127.778 40.3782 127.614 39.6782 127.614 38.8849C127.614 38.0915 127.773 37.3962 128.09 36.7989C128.408 36.2015 128.851 35.7442 129.42 35.4269C129.999 35.1002 130.662 34.9369 131.408 34.9369C132.136 34.9369 132.78 35.0955 133.34 35.4129C133.9 35.7302 134.33 36.1689 134.628 36.7289C134.936 37.2795 135.09 37.9049 135.09 38.6049ZM133.774 38.3389C133.774 37.8535 133.667 37.4382 133.452 37.0929C133.238 36.7382 132.944 36.4722 132.57 36.2949C132.206 36.1082 131.8 36.0149 131.352 36.0149C130.708 36.0149 130.158 36.2202 129.7 36.6309C129.252 37.0415 128.996 37.6109 128.93 38.3389H133.774ZM138.046 36.3089C138.27 35.8702 138.587 35.5295 138.998 35.2869C139.418 35.0442 139.927 34.9229 140.524 34.9229V36.2389H140.188C138.76 36.2389 138.046 37.0135 138.046 38.5629V42.7349H136.772V35.0629H138.046V36.3089Z" fill="white"/>
<circle cx="30.7032" cy="29.3677" r="14" fill="#FAFCFF"/>
<path d="M34.0978 27.9937V27.5122C34.0972 27.0482 33.9127 26.6034 33.5846 26.2754C33.2566 25.9473 32.8117 25.7627 32.3478 25.7622H31.4728V24.4497H33.2228C33.3388 24.4498 33.45 24.496 33.532 24.578C33.614 24.66 33.6601 24.7712 33.6603 24.8872C33.6603 25.0032 33.7064 25.1145 33.7884 25.1966C33.8705 25.2786 33.9817 25.3247 34.0978 25.3247C34.2138 25.3247 34.3251 25.2786 34.4071 25.1966C34.4892 25.1145 34.5353 25.0032 34.5353 24.8872C34.5349 24.5392 34.3965 24.2056 34.1504 23.9596C33.9044 23.7135 33.5708 23.5751 33.2228 23.5747H29.7228C29.6067 23.5747 29.4955 23.6208 29.4134 23.7028C29.3314 23.7849 29.2853 23.8962 29.2853 24.0122C29.2853 24.1282 29.3314 24.2395 29.4134 24.3216C29.4955 24.4036 29.6067 24.4497 29.7228 24.4497H30.5978V25.7622H29.7228C29.2588 25.7627 28.814 25.9473 28.4859 26.2754C28.1579 26.6034 27.9733 27.0482 27.9728 27.5122V27.9937C27.479 28.0952 27.0354 28.3638 26.7166 28.7543C26.3978 29.1447 26.2234 29.6332 26.2228 30.1372V34.5122C26.223 34.7442 26.3153 34.9666 26.4794 35.1306C26.6434 35.2947 26.8658 35.3869 27.0978 35.3872H34.9728C35.2048 35.3869 35.4272 35.2947 35.5912 35.1306C35.7552 34.9666 35.8475 34.7442 35.8478 34.5122V30.1372C35.8471 29.6332 35.6727 29.1447 35.3539 28.7543C35.0352 28.3638 34.5915 28.0952 34.0978 27.9937ZM29.7228 26.6372H32.3478C32.5798 26.6375 32.8022 26.7297 32.9662 26.8938C33.1302 27.0578 33.2225 27.2802 33.2228 27.5122V27.9497H28.8478V27.5122C28.848 27.2802 28.9403 27.0578 29.1044 26.8938C29.2684 26.7297 29.4908 26.6375 29.7228 26.6372Z" fill="#6E59A4"/>
<defs>
<filter id="filter0_f_0_214" x="254.332" y="232.332" width="11.3363" height="11.3363" filterUnits="userSpaceOnUse" color-interpolation-filters="sRGB">
<feFlood flood-opacity="0" result="BackgroundImageFix"/>
<feBlend mode="normal" in="SourceGraphic" in2="BackgroundImageFix" result="shape"/>
<feGaussianBlur stdDeviation="0.334066" result="effect1_foregroundBlur_0_214"/>
</filter>
</defs>
</svg>
