<svg width="602" height="455" viewBox="0 0 602 455" fill="none" xmlns="http://www.w3.org/2000/svg">
<rect x="339" y="351" width="257" height="89" rx="10" fill="#FFBB47"/>
<path opacity="0.8" d="M438.602 382.114C438.602 381.162 438.817 380.308 439.246 379.552C439.675 378.787 440.259 378.189 440.996 377.76C441.743 377.331 442.569 377.116 443.474 377.116C444.538 377.116 445.467 377.373 446.26 377.886C447.053 378.399 447.632 379.127 447.996 380.07H446.47C446.199 379.482 445.807 379.029 445.294 378.712C444.79 378.395 444.183 378.236 443.474 378.236C442.793 378.236 442.181 378.395 441.64 378.712C441.099 379.029 440.674 379.482 440.366 380.07C440.058 380.649 439.904 381.33 439.904 382.114C439.904 382.889 440.058 383.57 440.366 384.158C440.674 384.737 441.099 385.185 441.64 385.502C442.181 385.819 442.793 385.978 443.474 385.978C444.183 385.978 444.79 385.824 445.294 385.516C445.807 385.199 446.199 384.746 446.47 384.158H447.996C447.632 385.091 447.053 385.815 446.26 386.328C445.467 386.832 444.538 387.084 443.474 387.084C442.569 387.084 441.743 386.874 440.996 386.454C440.259 386.025 439.675 385.432 439.246 384.676C438.817 383.92 438.602 383.066 438.602 382.114ZM456.696 379.328V387H455.422V385.866C455.18 386.258 454.839 386.566 454.4 386.79C453.971 387.005 453.495 387.112 452.972 387.112C452.375 387.112 451.838 386.991 451.362 386.748C450.886 386.496 450.508 386.123 450.228 385.628C449.958 385.133 449.822 384.531 449.822 383.822V379.328H451.082V383.654C451.082 384.41 451.274 384.993 451.656 385.404C452.039 385.805 452.562 386.006 453.224 386.006C453.906 386.006 454.442 385.796 454.834 385.376C455.226 384.956 455.422 384.345 455.422 383.542V379.328H456.696ZM460.122 380.574C460.346 380.135 460.663 379.795 461.074 379.552C461.494 379.309 462.002 379.188 462.6 379.188V380.504H462.264C460.836 380.504 460.122 381.279 460.122 382.828V387H458.848V379.328H460.122V380.574ZM467.416 387.126C466.698 387.126 466.044 386.963 465.456 386.636C464.878 386.309 464.42 385.847 464.084 385.25C463.758 384.643 463.594 383.943 463.594 383.15C463.594 382.366 463.762 381.675 464.098 381.078C464.444 380.471 464.91 380.009 465.498 379.692C466.086 379.365 466.744 379.202 467.472 379.202C468.2 379.202 468.858 379.365 469.446 379.692C470.034 380.009 470.496 380.467 470.832 381.064C471.178 381.661 471.35 382.357 471.35 383.15C471.35 383.943 471.173 384.643 470.818 385.25C470.473 385.847 470.002 386.309 469.404 386.636C468.807 386.963 468.144 387.126 467.416 387.126ZM467.416 386.006C467.874 386.006 468.303 385.899 468.704 385.684C469.106 385.469 469.428 385.147 469.67 384.718C469.922 384.289 470.048 383.766 470.048 383.15C470.048 382.534 469.927 382.011 469.684 381.582C469.442 381.153 469.124 380.835 468.732 380.63C468.34 380.415 467.916 380.308 467.458 380.308C466.992 380.308 466.562 380.415 466.17 380.63C465.788 380.835 465.48 381.153 465.246 381.582C465.013 382.011 464.896 382.534 464.896 383.15C464.896 383.775 465.008 384.303 465.232 384.732C465.466 385.161 465.774 385.483 466.156 385.698C466.539 385.903 466.959 386.006 467.416 386.006ZM474.299 376.64V387H473.025V376.64H474.299ZM479.817 387.126C479.098 387.126 478.445 386.963 477.857 386.636C477.278 386.309 476.821 385.847 476.485 385.25C476.158 384.643 475.995 383.943 475.995 383.15C475.995 382.366 476.163 381.675 476.499 381.078C476.844 380.471 477.311 380.009 477.899 379.692C478.487 379.365 479.145 379.202 479.873 379.202C480.601 379.202 481.259 379.365 481.847 379.692C482.435 380.009 482.897 380.467 483.233 381.064C483.578 381.661 483.751 382.357 483.751 383.15C483.751 383.943 483.573 384.643 483.219 385.25C482.873 385.847 482.402 386.309 481.805 386.636C481.207 386.963 480.545 387.126 479.817 387.126ZM479.817 386.006C480.274 386.006 480.703 385.899 481.105 385.684C481.506 385.469 481.828 385.147 482.071 384.718C482.323 384.289 482.449 383.766 482.449 383.15C482.449 382.534 482.327 382.011 482.085 381.582C481.842 381.153 481.525 380.835 481.133 380.63C480.741 380.415 480.316 380.308 479.859 380.308C479.392 380.308 478.963 380.415 478.571 380.63C478.188 380.835 477.88 381.153 477.647 381.582C477.413 382.011 477.297 382.534 477.297 383.15C477.297 383.775 477.409 384.303 477.633 384.732C477.866 385.161 478.174 385.483 478.557 385.698C478.939 385.903 479.359 386.006 479.817 386.006ZM488.59 379.202C489.252 379.202 489.831 379.347 490.326 379.636C490.83 379.925 491.203 380.289 491.446 380.728V379.328H492.734V387.168C492.734 387.868 492.584 388.489 492.286 389.03C491.987 389.581 491.558 390.01 490.998 390.318C490.447 390.626 489.803 390.78 489.066 390.78C488.058 390.78 487.218 390.542 486.546 390.066C485.874 389.59 485.477 388.941 485.356 388.12H486.616C486.756 388.587 487.045 388.96 487.484 389.24C487.922 389.529 488.45 389.674 489.066 389.674C489.766 389.674 490.335 389.455 490.774 389.016C491.222 388.577 491.446 387.961 491.446 387.168V385.558C491.194 386.006 490.82 386.379 490.326 386.678C489.831 386.977 489.252 387.126 488.59 387.126C487.908 387.126 487.288 386.958 486.728 386.622C486.177 386.286 485.743 385.815 485.426 385.208C485.108 384.601 484.95 383.911 484.95 383.136C484.95 382.352 485.108 381.666 485.426 381.078C485.743 380.481 486.177 380.019 486.728 379.692C487.288 379.365 487.908 379.202 488.59 379.202ZM491.446 383.15C491.446 382.571 491.329 382.067 491.096 381.638C490.862 381.209 490.545 380.882 490.144 380.658C489.752 380.425 489.318 380.308 488.842 380.308C488.366 380.308 487.932 380.42 487.54 380.644C487.148 380.868 486.835 381.195 486.602 381.624C486.368 382.053 486.252 382.557 486.252 383.136C486.252 383.724 486.368 384.237 486.602 384.676C486.835 385.105 487.148 385.437 487.54 385.67C487.932 385.894 488.366 386.006 488.842 386.006C489.318 386.006 489.752 385.894 490.144 385.67C490.545 385.437 490.862 385.105 491.096 384.676C491.329 384.237 491.446 383.729 491.446 383.15ZM501.495 379.328L496.875 390.612H495.559L497.071 386.916L493.977 379.328H495.391L497.799 385.544L500.179 379.328H501.495Z" fill="white"/>
<path d="M453.68 401.16V415H451.86V404.68L447.26 415H445.98L441.36 404.66V415H439.54V401.16H441.5L446.62 412.6L451.74 401.16H453.68ZM461.547 415.18C460.52 415.18 459.587 414.947 458.747 414.48C457.92 414.013 457.267 413.353 456.787 412.5C456.32 411.633 456.087 410.633 456.087 409.5C456.087 408.38 456.327 407.393 456.807 406.54C457.3 405.673 457.967 405.013 458.807 404.56C459.647 404.093 460.587 403.86 461.627 403.86C462.667 403.86 463.607 404.093 464.447 404.56C465.287 405.013 465.947 405.667 466.427 406.52C466.92 407.373 467.167 408.367 467.167 409.5C467.167 410.633 466.913 411.633 466.407 412.5C465.913 413.353 465.24 414.013 464.387 414.48C463.533 414.947 462.587 415.18 461.547 415.18ZM461.547 413.58C462.2 413.58 462.813 413.427 463.387 413.12C463.96 412.813 464.42 412.353 464.767 411.74C465.127 411.127 465.307 410.38 465.307 409.5C465.307 408.62 465.133 407.873 464.787 407.26C464.44 406.647 463.987 406.193 463.427 405.9C462.867 405.593 462.26 405.44 461.607 405.44C460.94 405.44 460.327 405.593 459.767 405.9C459.22 406.193 458.78 406.647 458.447 407.26C458.113 407.873 457.947 408.62 457.947 409.5C457.947 410.393 458.107 411.147 458.427 411.76C458.76 412.373 459.2 412.833 459.747 413.14C460.293 413.433 460.893 413.58 461.547 413.58ZM470.5 402.26C470.153 402.26 469.86 402.14 469.62 401.9C469.38 401.66 469.26 401.367 469.26 401.02C469.26 400.673 469.38 400.38 469.62 400.14C469.86 399.9 470.153 399.78 470.5 399.78C470.833 399.78 471.113 399.9 471.34 400.14C471.58 400.38 471.7 400.673 471.7 401.02C471.7 401.367 471.58 401.66 471.34 401.9C471.113 402.14 470.833 402.26 470.5 402.26ZM471.38 404.04V415H469.56V404.04H471.38ZM478.361 415.18C477.521 415.18 476.768 415.04 476.101 414.76C475.435 414.467 474.908 414.067 474.521 413.56C474.135 413.04 473.921 412.447 473.881 411.78H475.761C475.815 412.327 476.068 412.773 476.521 413.12C476.988 413.467 477.595 413.64 478.341 413.64C479.035 413.64 479.581 413.487 479.981 413.18C480.381 412.873 480.581 412.487 480.581 412.02C480.581 411.54 480.368 411.187 479.941 410.96C479.515 410.72 478.855 410.487 477.961 410.26C477.148 410.047 476.481 409.833 475.961 409.62C475.455 409.393 475.015 409.067 474.641 408.64C474.281 408.2 474.101 407.627 474.101 406.92C474.101 406.36 474.268 405.847 474.601 405.38C474.935 404.913 475.408 404.547 476.021 404.28C476.635 404 477.335 403.86 478.121 403.86C479.335 403.86 480.315 404.167 481.061 404.78C481.808 405.393 482.208 406.233 482.261 407.3H480.441C480.401 406.727 480.168 406.267 479.741 405.92C479.328 405.573 478.768 405.4 478.061 405.4C477.408 405.4 476.888 405.54 476.501 405.82C476.115 406.1 475.921 406.467 475.921 406.92C475.921 407.28 476.035 407.58 476.261 407.82C476.501 408.047 476.795 408.233 477.141 408.38C477.501 408.513 477.995 408.667 478.621 408.84C479.408 409.053 480.048 409.267 480.541 409.48C481.035 409.68 481.455 409.987 481.801 410.4C482.161 410.813 482.348 411.353 482.361 412.02C482.361 412.62 482.195 413.16 481.861 413.64C481.528 414.12 481.055 414.5 480.441 414.78C479.841 415.047 479.148 415.18 478.361 415.18ZM487.151 405.54V412C487.151 412.533 487.264 412.913 487.491 413.14C487.717 413.353 488.111 413.46 488.671 413.46H490.011V415H488.371C487.357 415 486.597 414.767 486.091 414.3C485.584 413.833 485.331 413.067 485.331 412V405.54H483.911V404.04H485.331V401.28H487.151V404.04H490.011V405.54H487.151ZM501.936 404.04V415H500.116V413.38C499.769 413.94 499.282 414.38 498.656 414.7C498.042 415.007 497.362 415.16 496.616 415.16C495.762 415.16 494.996 414.987 494.316 414.64C493.636 414.28 493.096 413.747 492.696 413.04C492.309 412.333 492.116 411.473 492.116 410.46V404.04H493.916V410.22C493.916 411.3 494.189 412.133 494.736 412.72C495.282 413.293 496.029 413.58 496.976 413.58C497.949 413.58 498.716 413.28 499.276 412.68C499.836 412.08 500.116 411.207 500.116 410.06V404.04H501.936ZM506.829 405.82C507.149 405.193 507.602 404.707 508.189 404.36C508.789 404.013 509.515 403.84 510.369 403.84V405.72H509.889C507.849 405.72 506.829 406.827 506.829 409.04V415H505.009V404.04H506.829V405.82ZM513.41 402.26C513.063 402.26 512.77 402.14 512.53 401.9C512.29 401.66 512.17 401.367 512.17 401.02C512.17 400.673 512.29 400.38 512.53 400.14C512.77 399.9 513.063 399.78 513.41 399.78C513.743 399.78 514.023 399.9 514.25 400.14C514.49 400.38 514.61 400.673 514.61 401.02C514.61 401.367 514.49 401.66 514.25 401.9C514.023 402.14 513.743 402.26 513.41 402.26ZM514.29 404.04V415H512.47V404.04H514.29ZM518.752 413.5H524.132V415H516.672V413.5L521.992 405.52H516.712V404.04H524.092V405.52L518.752 413.5ZM536.493 409.1C536.493 409.447 536.473 409.813 536.433 410.2H527.673C527.74 411.28 528.106 412.127 528.773 412.74C529.453 413.34 530.273 413.64 531.233 413.64C532.02 413.64 532.673 413.46 533.193 413.1C533.726 412.727 534.1 412.233 534.313 411.62H536.273C535.98 412.673 535.393 413.533 534.513 414.2C533.633 414.853 532.54 415.18 531.233 415.18C530.193 415.18 529.26 414.947 528.433 414.48C527.62 414.013 526.98 413.353 526.513 412.5C526.046 411.633 525.813 410.633 525.813 409.5C525.813 408.367 526.04 407.373 526.493 406.52C526.946 405.667 527.58 405.013 528.393 404.56C529.22 404.093 530.166 403.86 531.233 403.86C532.273 403.86 533.193 404.087 533.993 404.54C534.793 404.993 535.406 405.62 535.833 406.42C536.273 407.207 536.493 408.1 536.493 409.1ZM534.613 408.72C534.613 408.027 534.46 407.433 534.153 406.94C533.846 406.433 533.426 406.053 532.893 405.8C532.373 405.533 531.793 405.4 531.153 405.4C530.233 405.4 529.446 405.693 528.793 406.28C528.153 406.867 527.786 407.68 527.693 408.72H534.613ZM540.715 405.82C541.035 405.193 541.489 404.707 542.075 404.36C542.675 404.013 543.402 403.84 544.255 403.84V405.72H543.775C541.735 405.72 540.715 406.827 540.715 409.04V415H538.895V404.04H540.715V405.82Z" fill="white"/>
<circle cx="385" cy="395" r="21" fill="#FAFCFF"/>
<path d="M389.375 392.563V391.875C389.374 391.212 389.111 390.577 388.642 390.108C388.173 389.639 387.538 389.376 386.875 389.375H385.625V387.5H388.125C388.291 387.5 388.45 387.566 388.567 387.683C388.684 387.8 388.75 387.959 388.75 388.125C388.75 388.291 388.816 388.45 388.933 388.567C389.05 388.684 389.209 388.75 389.375 388.75C389.541 388.75 389.7 388.684 389.817 388.567C389.934 388.45 390 388.291 390 388.125C389.999 387.628 389.802 387.151 389.45 386.8C389.099 386.448 388.622 386.251 388.125 386.25H383.125C382.959 386.25 382.8 386.316 382.683 386.433C382.566 386.55 382.5 386.709 382.5 386.875C382.5 387.041 382.566 387.2 382.683 387.317C382.8 387.434 382.959 387.5 383.125 387.5H384.375V389.375H383.125C382.462 389.376 381.827 389.639 381.358 390.108C380.889 390.577 380.626 391.212 380.625 391.875V392.563C379.92 392.708 379.286 393.092 378.83 393.649C378.375 394.207 378.126 394.905 378.125 395.625V401.875C378.125 402.206 378.257 402.524 378.492 402.758C378.726 402.993 379.044 403.125 379.375 403.125H390.625C390.956 403.125 391.274 402.993 391.508 402.758C391.743 402.524 391.875 402.206 391.875 401.875V395.625C391.874 394.905 391.625 394.207 391.17 393.649C390.714 393.092 390.08 392.708 389.375 392.563V392.563ZM383.125 390.625H386.875C387.206 390.625 387.524 390.757 387.758 390.992C387.993 391.226 388.125 391.544 388.125 391.875V392.5H381.875V391.875C381.875 391.544 382.007 391.226 382.242 390.992C382.476 390.757 382.794 390.625 383.125 390.625Z" fill="#6E59A4"/>
<rect y="5" width="257" height="89" rx="10" fill="#FFBB47"/>
<path opacity="0.8" d="M99.602 36.114C99.602 35.162 99.8167 34.308 100.246 33.552C100.675 32.7867 101.259 32.1893 101.996 31.76C102.743 31.3307 103.569 31.116 104.474 31.116C105.538 31.116 106.467 31.3727 107.26 31.886C108.053 32.3993 108.632 33.1273 108.996 34.07H107.47C107.199 33.482 106.807 33.0293 106.294 32.712C105.79 32.3947 105.183 32.236 104.474 32.236C103.793 32.236 103.181 32.3947 102.64 32.712C102.099 33.0293 101.674 33.482 101.366 34.07C101.058 34.6487 100.904 35.33 100.904 36.114C100.904 36.8887 101.058 37.57 101.366 38.158C101.674 38.7367 102.099 39.1847 102.64 39.502C103.181 39.8193 103.793 39.978 104.474 39.978C105.183 39.978 105.79 39.824 106.294 39.516C106.807 39.1987 107.199 38.746 107.47 38.158H108.996C108.632 39.0913 108.053 39.8147 107.26 40.328C106.467 40.832 105.538 41.084 104.474 41.084C103.569 41.084 102.743 40.874 101.996 40.454C101.259 40.0247 100.675 39.432 100.246 38.676C99.8167 37.92 99.602 37.066 99.602 36.114ZM117.696 33.328V41H116.422V39.866C116.18 40.258 115.839 40.566 115.4 40.79C114.971 41.0047 114.495 41.112 113.972 41.112C113.375 41.112 112.838 40.9907 112.362 40.748C111.886 40.496 111.508 40.1227 111.228 39.628C110.958 39.1333 110.822 38.5313 110.822 37.822V33.328H112.082V37.654C112.082 38.41 112.274 38.9933 112.656 39.404C113.039 39.8053 113.562 40.006 114.224 40.006C114.906 40.006 115.442 39.796 115.834 39.376C116.226 38.956 116.422 38.3447 116.422 37.542V33.328H117.696ZM121.122 34.574C121.346 34.1353 121.663 33.7947 122.074 33.552C122.494 33.3093 123.002 33.188 123.6 33.188V34.504H123.264C121.836 34.504 121.122 35.2787 121.122 36.828V41H119.848V33.328H121.122V34.574ZM128.416 41.126C127.698 41.126 127.044 40.9627 126.456 40.636C125.878 40.3093 125.42 39.8473 125.084 39.25C124.758 38.6433 124.594 37.9433 124.594 37.15C124.594 36.366 124.762 35.6753 125.098 35.078C125.444 34.4713 125.91 34.0093 126.498 33.692C127.086 33.3653 127.744 33.202 128.472 33.202C129.2 33.202 129.858 33.3653 130.446 33.692C131.034 34.0093 131.496 34.4667 131.832 35.064C132.178 35.6613 132.35 36.3567 132.35 37.15C132.35 37.9433 132.173 38.6433 131.818 39.25C131.473 39.8473 131.002 40.3093 130.404 40.636C129.807 40.9627 129.144 41.126 128.416 41.126ZM128.416 40.006C128.874 40.006 129.303 39.8987 129.704 39.684C130.106 39.4693 130.428 39.1473 130.67 38.718C130.922 38.2887 131.048 37.766 131.048 37.15C131.048 36.534 130.927 36.0113 130.684 35.582C130.442 35.1527 130.124 34.8353 129.732 34.63C129.34 34.4153 128.916 34.308 128.458 34.308C127.992 34.308 127.562 34.4153 127.17 34.63C126.788 34.8353 126.48 35.1527 126.246 35.582C126.013 36.0113 125.896 36.534 125.896 37.15C125.896 37.7753 126.008 38.3027 126.232 38.732C126.466 39.1613 126.774 39.4833 127.156 39.698C127.539 39.9033 127.959 40.006 128.416 40.006ZM135.299 30.64V41H134.025V30.64H135.299ZM140.817 41.126C140.098 41.126 139.445 40.9627 138.857 40.636C138.278 40.3093 137.821 39.8473 137.485 39.25C137.158 38.6433 136.995 37.9433 136.995 37.15C136.995 36.366 137.163 35.6753 137.499 35.078C137.844 34.4713 138.311 34.0093 138.899 33.692C139.487 33.3653 140.145 33.202 140.873 33.202C141.601 33.202 142.259 33.3653 142.847 33.692C143.435 34.0093 143.897 34.4667 144.233 35.064C144.578 35.6613 144.751 36.3567 144.751 37.15C144.751 37.9433 144.573 38.6433 144.219 39.25C143.873 39.8473 143.402 40.3093 142.805 40.636C142.207 40.9627 141.545 41.126 140.817 41.126ZM140.817 40.006C141.274 40.006 141.703 39.8987 142.105 39.684C142.506 39.4693 142.828 39.1473 143.071 38.718C143.323 38.2887 143.449 37.766 143.449 37.15C143.449 36.534 143.327 36.0113 143.085 35.582C142.842 35.1527 142.525 34.8353 142.133 34.63C141.741 34.4153 141.316 34.308 140.859 34.308C140.392 34.308 139.963 34.4153 139.571 34.63C139.188 34.8353 138.88 35.1527 138.647 35.582C138.413 36.0113 138.297 36.534 138.297 37.15C138.297 37.7753 138.409 38.3027 138.633 38.732C138.866 39.1613 139.174 39.4833 139.557 39.698C139.939 39.9033 140.359 40.006 140.817 40.006ZM149.59 33.202C150.252 33.202 150.831 33.3467 151.326 33.636C151.83 33.9253 152.203 34.2893 152.446 34.728V33.328H153.734V41.168C153.734 41.868 153.584 42.4887 153.286 43.03C152.987 43.5807 152.558 44.01 151.998 44.318C151.447 44.626 150.803 44.78 150.066 44.78C149.058 44.78 148.218 44.542 147.546 44.066C146.874 43.59 146.477 42.9413 146.356 42.12H147.616C147.756 42.5867 148.045 42.96 148.484 43.24C148.922 43.5293 149.45 43.674 150.066 43.674C150.766 43.674 151.335 43.4547 151.774 43.016C152.222 42.5773 152.446 41.9613 152.446 41.168V39.558C152.194 40.006 151.82 40.3793 151.326 40.678C150.831 40.9767 150.252 41.126 149.59 41.126C148.908 41.126 148.288 40.958 147.728 40.622C147.177 40.286 146.743 39.8147 146.426 39.208C146.108 38.6013 145.95 37.9107 145.95 37.136C145.95 36.352 146.108 35.666 146.426 35.078C146.743 34.4807 147.177 34.0187 147.728 33.692C148.288 33.3653 148.908 33.202 149.59 33.202ZM152.446 37.15C152.446 36.5713 152.329 36.0673 152.096 35.638C151.862 35.2087 151.545 34.882 151.144 34.658C150.752 34.4247 150.318 34.308 149.842 34.308C149.366 34.308 148.932 34.42 148.54 34.644C148.148 34.868 147.835 35.1947 147.602 35.624C147.368 36.0533 147.252 36.5573 147.252 37.136C147.252 37.724 147.368 38.2373 147.602 38.676C147.835 39.1053 148.148 39.4367 148.54 39.67C148.932 39.894 149.366 40.006 149.842 40.006C150.318 40.006 150.752 39.894 151.144 39.67C151.545 39.4367 151.862 39.1053 152.096 38.676C152.329 38.2373 152.446 37.7287 152.446 37.15ZM162.495 33.328L157.875 44.612H156.559L158.071 40.916L154.977 33.328H156.391L158.799 39.544L161.179 33.328H162.495Z" fill="white"/>
<path d="M99.86 62.02C99.86 60.66 100.167 59.44 100.78 58.36C101.393 57.2667 102.227 56.4133 103.28 55.8C104.347 55.1867 105.527 54.88 106.82 54.88C108.34 54.88 109.667 55.2467 110.8 55.98C111.933 56.7133 112.76 57.7533 113.28 59.1H111.1C110.713 58.26 110.153 57.6133 109.42 57.16C108.7 56.7067 107.833 56.48 106.82 56.48C105.847 56.48 104.973 56.7067 104.2 57.16C103.427 57.6133 102.82 58.26 102.38 59.1C101.94 59.9267 101.72 60.9 101.72 62.02C101.72 63.1267 101.94 64.1 102.38 64.94C102.82 65.7667 103.427 66.4067 104.2 66.86C104.973 67.3133 105.847 67.54 106.82 67.54C107.833 67.54 108.7 67.32 109.42 66.88C110.153 66.4267 110.713 65.78 111.1 64.94H113.28C112.76 66.2733 111.933 67.3067 110.8 68.04C109.667 68.76 108.34 69.12 106.82 69.12C105.527 69.12 104.347 68.82 103.28 68.22C102.227 67.6067 101.393 66.76 100.78 65.68C100.167 64.6 99.86 63.38 99.86 62.02ZM117.809 54.2V69H115.989V54.2H117.809ZM130.911 63.1C130.911 63.4467 130.891 63.8133 130.851 64.2H122.091C122.158 65.28 122.524 66.1267 123.191 66.74C123.871 67.34 124.691 67.64 125.651 67.64C126.438 67.64 127.091 67.46 127.611 67.1C128.144 66.7267 128.518 66.2333 128.731 65.62H130.691C130.398 66.6733 129.811 67.5333 128.931 68.2C128.051 68.8533 126.958 69.18 125.651 69.18C124.611 69.18 123.678 68.9467 122.851 68.48C122.038 68.0133 121.398 67.3533 120.931 66.5C120.464 65.6333 120.231 64.6333 120.231 63.5C120.231 62.3667 120.458 61.3733 120.911 60.52C121.364 59.6667 121.998 59.0133 122.811 58.56C123.638 58.0933 124.584 57.86 125.651 57.86C126.691 57.86 127.611 58.0867 128.411 58.54C129.211 58.9933 129.824 59.62 130.251 60.42C130.691 61.2067 130.911 62.1 130.911 63.1ZM129.031 62.72C129.031 62.0267 128.878 61.4333 128.571 60.94C128.264 60.4333 127.844 60.0533 127.311 59.8C126.791 59.5333 126.211 59.4 125.571 59.4C124.651 59.4 123.864 59.6933 123.211 60.28C122.571 60.8667 122.204 61.68 122.111 62.72H129.031ZM132.633 63.48C132.633 62.36 132.86 61.38 133.313 60.54C133.767 59.6867 134.387 59.0267 135.173 58.56C135.973 58.0933 136.86 57.86 137.833 57.86C138.793 57.86 139.627 58.0667 140.333 58.48C141.04 58.8933 141.567 59.4133 141.913 60.04V58.04H143.753V69H141.913V66.96C141.553 67.6 141.013 68.1333 140.293 68.56C139.587 68.9733 138.76 69.18 137.813 69.18C136.84 69.18 135.96 68.94 135.173 68.46C134.387 67.98 133.767 67.3067 133.313 66.44C132.86 65.5733 132.633 64.5867 132.633 63.48ZM141.913 63.5C141.913 62.6733 141.747 61.9533 141.413 61.34C141.08 60.7267 140.627 60.26 140.053 59.94C139.493 59.6067 138.873 59.44 138.193 59.44C137.513 59.44 136.893 59.6 136.333 59.92C135.773 60.24 135.327 60.7067 134.993 61.32C134.66 61.9333 134.493 62.6533 134.493 63.48C134.493 64.32 134.66 65.0533 134.993 65.68C135.327 66.2933 135.773 66.7667 136.333 67.1C136.893 67.42 137.513 67.58 138.193 67.58C138.873 67.58 139.493 67.42 140.053 67.1C140.627 66.7667 141.08 66.2933 141.413 65.68C141.747 65.0533 141.913 64.3267 141.913 63.5ZM152.169 57.84C153.502 57.84 154.582 58.2467 155.409 59.06C156.236 59.86 156.649 61.02 156.649 62.54V69H154.849V62.8C154.849 61.7067 154.576 60.8733 154.029 60.3C153.482 59.7133 152.736 59.42 151.789 59.42C150.829 59.42 150.062 59.72 149.489 60.32C148.929 60.92 148.649 61.7933 148.649 62.94V69H146.829V58.04H148.649V59.6C149.009 59.04 149.496 58.6067 150.109 58.3C150.736 57.9933 151.422 57.84 152.169 57.84ZM163.502 69.18C162.662 69.18 161.909 69.04 161.242 68.76C160.575 68.4667 160.049 68.0667 159.662 67.56C159.275 67.04 159.062 66.4467 159.022 65.78H160.902C160.955 66.3267 161.209 66.7733 161.662 67.12C162.129 67.4667 162.735 67.64 163.482 67.64C164.175 67.64 164.722 67.4867 165.122 67.18C165.522 66.8733 165.722 66.4867 165.722 66.02C165.722 65.54 165.509 65.1867 165.082 64.96C164.655 64.72 163.995 64.4867 163.102 64.26C162.289 64.0467 161.622 63.8333 161.102 63.62C160.595 63.3933 160.155 63.0667 159.782 62.64C159.422 62.2 159.242 61.6267 159.242 60.92C159.242 60.36 159.409 59.8467 159.742 59.38C160.075 58.9133 160.549 58.5467 161.162 58.28C161.775 58 162.475 57.86 163.262 57.86C164.475 57.86 165.455 58.1667 166.202 58.78C166.949 59.3933 167.349 60.2333 167.402 61.3H165.582C165.542 60.7267 165.309 60.2667 164.882 59.92C164.469 59.5733 163.909 59.4 163.202 59.4C162.549 59.4 162.029 59.54 161.642 59.82C161.255 60.1 161.062 60.4667 161.062 60.92C161.062 61.28 161.175 61.58 161.402 61.82C161.642 62.0467 161.935 62.2333 162.282 62.38C162.642 62.5133 163.135 62.6667 163.762 62.84C164.549 63.0533 165.189 63.2667 165.682 63.48C166.175 63.68 166.595 63.9867 166.942 64.4C167.302 64.8133 167.489 65.3533 167.502 66.02C167.502 66.62 167.335 67.16 167.002 67.64C166.669 68.12 166.195 68.5 165.582 68.78C164.982 69.0467 164.289 69.18 163.502 69.18ZM180.071 63.1C180.071 63.4467 180.051 63.8133 180.011 64.2H171.251C171.318 65.28 171.685 66.1267 172.351 66.74C173.031 67.34 173.851 67.64 174.811 67.64C175.598 67.64 176.251 67.46 176.771 67.1C177.305 66.7267 177.678 66.2333 177.891 65.62H179.851C179.558 66.6733 178.971 67.5333 178.091 68.2C177.211 68.8533 176.118 69.18 174.811 69.18C173.771 69.18 172.838 68.9467 172.011 68.48C171.198 68.0133 170.558 67.3533 170.091 66.5C169.625 65.6333 169.391 64.6333 169.391 63.5C169.391 62.3667 169.618 61.3733 170.071 60.52C170.525 59.6667 171.158 59.0133 171.971 58.56C172.798 58.0933 173.745 57.86 174.811 57.86C175.851 57.86 176.771 58.0867 177.571 58.54C178.371 58.9933 178.985 59.62 179.411 60.42C179.851 61.2067 180.071 62.1 180.071 63.1ZM178.191 62.72C178.191 62.0267 178.038 61.4333 177.731 60.94C177.425 60.4333 177.005 60.0533 176.471 59.8C175.951 59.5333 175.371 59.4 174.731 59.4C173.811 59.4 173.025 59.6933 172.371 60.28C171.731 60.8667 171.365 61.68 171.271 62.72H178.191ZM184.294 59.82C184.614 59.1933 185.067 58.7067 185.654 58.36C186.254 58.0133 186.98 57.84 187.834 57.84V59.72H187.354C185.314 59.72 184.294 60.8267 184.294 63.04V69H182.474V58.04H184.294V59.82Z" fill="white"/>
<circle cx="46" cy="49" r="21" fill="#FAFCFF"/>
<path d="M50.375 46.5629V45.875C50.3742 45.2122 50.1106 44.5767 49.6419 44.1081C49.1733 43.6394 48.5378 43.3758 47.875 43.375H46.625V41.5H49.125C49.2907 41.5002 49.4496 41.5661 49.5667 41.6833C49.6839 41.8004 49.7498 41.9593 49.75 42.125C49.75 42.2908 49.8158 42.4497 49.9331 42.5669C50.0503 42.6842 50.2092 42.75 50.375 42.75C50.5408 42.75 50.6997 42.6842 50.8169 42.5669C50.9342 42.4497 51 42.2908 51 42.125C50.9994 41.6279 50.8017 41.1513 50.4502 40.7998C50.0987 40.4483 49.6221 40.2506 49.125 40.25H44.125C43.9592 40.25 43.8003 40.3158 43.6831 40.4331C43.5658 40.5503 43.5 40.7092 43.5 40.875C43.5 41.0408 43.5658 41.1997 43.6831 41.3169C43.8003 41.4342 43.9592 41.5 44.125 41.5H45.375V43.375H44.125C43.4622 43.3758 42.8267 43.6394 42.3581 44.1081C41.8894 44.5767 41.6258 45.2122 41.625 45.875V46.5629C40.9197 46.7079 40.2859 47.0916 39.8305 47.6494C39.3751 48.2072 39.1259 48.9049 39.125 49.625V55.875C39.1254 56.2064 39.2572 56.5241 39.4915 56.7585C39.7259 56.9928 40.0436 57.1246 40.375 57.125H51.625C51.9564 57.1246 52.2741 56.9928 52.5085 56.7585C52.7428 56.5241 52.8746 56.2064 52.875 55.875V49.625C52.8741 48.9049 52.6249 48.2072 52.1695 47.6494C51.7141 47.0916 51.0803 46.7079 50.375 46.5629V46.5629ZM44.125 44.625H47.875C48.2064 44.6254 48.5241 44.7572 48.7585 44.9915C48.9928 45.2259 49.1246 45.5436 49.125 45.875V46.5H42.875V45.875C42.8754 45.5436 43.0072 45.2259 43.2415 44.9915C43.4759 44.7572 43.7936 44.6254 44.125 44.625Z" fill="#6E59A4"/>
<rect x="540" width="62" height="62" rx="5" fill="#C0B5DE"/>
<rect y="422" width="33" height="33" rx="5" fill="#6E59A4"/>
<path d="M116.5 96V301H203" stroke="#FFBB47" stroke-width="3" stroke-linecap="round" stroke-dasharray="8 8"/>
<path d="M355 319H480V352" stroke="#FFBB47" stroke-width="3" stroke-linecap="round" stroke-dasharray="8 8"/>
<g filter="url(#filter0_f_22_105)">
<circle cx="351" cy="318" r="7" transform="rotate(-90 351 318)" fill="white"/>
</g>
<g filter="url(#filter1_f_22_105)">
<circle cx="208" cy="300" r="7" transform="rotate(-90 208 300)" fill="white"/>
</g>
<circle cx="351" cy="318" r="4" transform="rotate(-90 351 318)" fill="#FFBB47"/>
<circle cx="208" cy="300" r="4" transform="rotate(-90 208 300)" fill="#FFBB47"/>
<defs>
<filter id="filter0_f_22_105" x="343" y="310" width="16" height="16" filterUnits="userSpaceOnUse" color-interpolation-filters="sRGB">
<feFlood flood-opacity="0" result="BackgroundImageFix"/>
<feBlend mode="normal" in="SourceGraphic" in2="BackgroundImageFix" result="shape"/>
<feGaussianBlur stdDeviation="0.5" result="effect1_foregroundBlur_22_105"/>
</filter>
<filter id="filter1_f_22_105" x="200" y="292" width="16" height="16" filterUnits="userSpaceOnUse" color-interpolation-filters="sRGB">
<feFlood flood-opacity="0" result="BackgroundImageFix"/>
<feBlend mode="normal" in="SourceGraphic" in2="BackgroundImageFix" result="shape"/>
<feGaussianBlur stdDeviation="0.5" result="effect1_foregroundBlur_22_105"/>
</filter>
</defs>
</svg>
