<svg width="260" height="292" viewBox="0 0 260 292" fill="none" xmlns="http://www.w3.org/2000/svg">
<path d="M114 76H8V273" stroke="#FFBB47" stroke-width="3" stroke-linecap="round" stroke-dasharray="8 8"/>
<g filter="url(#filter0_f_55_160)">
<circle cx="7" cy="7" r="7" transform="matrix(-1 0 0 1 15 277)" fill="white"/>
</g>
<rect x="103" width="157" height="147" rx="10" fill="#6E59A4"/>
<path opacity="0.5" d="M125.602 87.114C125.602 86.162 125.817 85.308 126.246 84.552C126.675 83.7867 127.259 83.1893 127.996 82.76C128.743 82.3307 129.569 82.116 130.474 82.116C131.538 82.116 132.467 82.3727 133.26 82.886C134.053 83.3993 134.632 84.1273 134.996 85.07H133.47C133.199 84.482 132.807 84.0293 132.294 83.712C131.79 83.3947 131.183 83.236 130.474 83.236C129.793 83.236 129.181 83.3947 128.64 83.712C128.099 84.0293 127.674 84.482 127.366 85.07C127.058 85.6487 126.904 86.33 126.904 87.114C126.904 87.8887 127.058 88.57 127.366 89.158C127.674 89.7367 128.099 90.1847 128.64 90.502C129.181 90.8193 129.793 90.978 130.474 90.978C131.183 90.978 131.79 90.824 132.294 90.516C132.807 90.1987 133.199 89.746 133.47 89.158H134.996C134.632 90.0913 134.053 90.8147 133.26 91.328C132.467 91.832 131.538 92.084 130.474 92.084C129.569 92.084 128.743 91.874 127.996 91.454C127.259 91.0247 126.675 90.432 126.246 89.676C125.817 88.92 125.602 88.066 125.602 87.114ZM143.696 84.328V92H142.422V90.866C142.18 91.258 141.839 91.566 141.4 91.79C140.971 92.0047 140.495 92.112 139.972 92.112C139.375 92.112 138.838 91.9907 138.362 91.748C137.886 91.496 137.508 91.1227 137.228 90.628C136.958 90.1333 136.822 89.5313 136.822 88.822V84.328H138.082V88.654C138.082 89.41 138.274 89.9933 138.656 90.404C139.039 90.8053 139.562 91.006 140.224 91.006C140.906 91.006 141.442 90.796 141.834 90.376C142.226 89.956 142.422 89.3447 142.422 88.542V84.328H143.696ZM147.122 85.574C147.346 85.1353 147.663 84.7947 148.074 84.552C148.494 84.3093 149.002 84.188 149.6 84.188V85.504H149.264C147.836 85.504 147.122 86.2787 147.122 87.828V92H145.848V84.328H147.122V85.574ZM154.416 92.126C153.698 92.126 153.044 91.9627 152.456 91.636C151.878 91.3093 151.42 90.8473 151.084 90.25C150.758 89.6433 150.594 88.9433 150.594 88.15C150.594 87.366 150.762 86.6753 151.098 86.078C151.444 85.4713 151.91 85.0093 152.498 84.692C153.086 84.3653 153.744 84.202 154.472 84.202C155.2 84.202 155.858 84.3653 156.446 84.692C157.034 85.0093 157.496 85.4667 157.832 86.064C158.178 86.6613 158.35 87.3567 158.35 88.15C158.35 88.9433 158.173 89.6433 157.818 90.25C157.473 90.8473 157.002 91.3093 156.404 91.636C155.807 91.9627 155.144 92.126 154.416 92.126ZM154.416 91.006C154.874 91.006 155.303 90.8987 155.704 90.684C156.106 90.4693 156.428 90.1473 156.67 89.718C156.922 89.2887 157.048 88.766 157.048 88.15C157.048 87.534 156.927 87.0113 156.684 86.582C156.442 86.1527 156.124 85.8353 155.732 85.63C155.34 85.4153 154.916 85.308 154.458 85.308C153.992 85.308 153.562 85.4153 153.17 85.63C152.788 85.8353 152.48 86.1527 152.246 86.582C152.013 87.0113 151.896 87.534 151.896 88.15C151.896 88.7753 152.008 89.3027 152.232 89.732C152.466 90.1613 152.774 90.4833 153.156 90.698C153.539 90.9033 153.959 91.006 154.416 91.006ZM161.299 81.64V92H160.025V81.64H161.299ZM166.817 92.126C166.098 92.126 165.445 91.9627 164.857 91.636C164.278 91.3093 163.821 90.8473 163.485 90.25C163.158 89.6433 162.995 88.9433 162.995 88.15C162.995 87.366 163.163 86.6753 163.499 86.078C163.844 85.4713 164.311 85.0093 164.899 84.692C165.487 84.3653 166.145 84.202 166.873 84.202C167.601 84.202 168.259 84.3653 168.847 84.692C169.435 85.0093 169.897 85.4667 170.233 86.064C170.578 86.6613 170.751 87.3567 170.751 88.15C170.751 88.9433 170.573 89.6433 170.219 90.25C169.873 90.8473 169.402 91.3093 168.805 91.636C168.207 91.9627 167.545 92.126 166.817 92.126ZM166.817 91.006C167.274 91.006 167.703 90.8987 168.105 90.684C168.506 90.4693 168.828 90.1473 169.071 89.718C169.323 89.2887 169.449 88.766 169.449 88.15C169.449 87.534 169.327 87.0113 169.085 86.582C168.842 86.1527 168.525 85.8353 168.133 85.63C167.741 85.4153 167.316 85.308 166.859 85.308C166.392 85.308 165.963 85.4153 165.571 85.63C165.188 85.8353 164.88 86.1527 164.647 86.582C164.413 87.0113 164.297 87.534 164.297 88.15C164.297 88.7753 164.409 89.3027 164.633 89.732C164.866 90.1613 165.174 90.4833 165.557 90.698C165.939 90.9033 166.359 91.006 166.817 91.006ZM175.59 84.202C176.252 84.202 176.831 84.3467 177.326 84.636C177.83 84.9253 178.203 85.2893 178.446 85.728V84.328H179.734V92.168C179.734 92.868 179.584 93.4887 179.286 94.03C178.987 94.5807 178.558 95.01 177.998 95.318C177.447 95.626 176.803 95.78 176.066 95.78C175.058 95.78 174.218 95.542 173.546 95.066C172.874 94.59 172.477 93.9413 172.356 93.12H173.616C173.756 93.5867 174.045 93.96 174.484 94.24C174.922 94.5293 175.45 94.674 176.066 94.674C176.766 94.674 177.335 94.4547 177.774 94.016C178.222 93.5773 178.446 92.9613 178.446 92.168V90.558C178.194 91.006 177.82 91.3793 177.326 91.678C176.831 91.9767 176.252 92.126 175.59 92.126C174.908 92.126 174.288 91.958 173.728 91.622C173.177 91.286 172.743 90.8147 172.426 90.208C172.108 89.6013 171.95 88.9107 171.95 88.136C171.95 87.352 172.108 86.666 172.426 86.078C172.743 85.4807 173.177 85.0187 173.728 84.692C174.288 84.3653 174.908 84.202 175.59 84.202ZM178.446 88.15C178.446 87.5713 178.329 87.0673 178.096 86.638C177.862 86.2087 177.545 85.882 177.144 85.658C176.752 85.4247 176.318 85.308 175.842 85.308C175.366 85.308 174.932 85.42 174.54 85.644C174.148 85.868 173.835 86.1947 173.602 86.624C173.368 87.0533 173.252 87.5573 173.252 88.136C173.252 88.724 173.368 89.2373 173.602 89.676C173.835 90.1053 174.148 90.4367 174.54 90.67C174.932 90.894 175.366 91.006 175.842 91.006C176.318 91.006 176.752 90.894 177.144 90.67C177.545 90.4367 177.862 90.1053 178.096 89.676C178.329 89.2373 178.446 88.7287 178.446 88.15ZM188.495 84.328L183.875 95.612H182.559L184.071 91.916L180.977 84.328H182.391L184.799 90.544L187.179 84.328H188.495Z" fill="white"/>
<path d="M125.86 113.02C125.86 111.66 126.167 110.44 126.78 109.36C127.393 108.267 128.227 107.413 129.28 106.8C130.347 106.187 131.527 105.88 132.82 105.88C134.34 105.88 135.667 106.247 136.8 106.98C137.933 107.713 138.76 108.753 139.28 110.1H137.1C136.713 109.26 136.153 108.613 135.42 108.16C134.7 107.707 133.833 107.48 132.82 107.48C131.847 107.48 130.973 107.707 130.2 108.16C129.427 108.613 128.82 109.26 128.38 110.1C127.94 110.927 127.72 111.9 127.72 113.02C127.72 114.127 127.94 115.1 128.38 115.94C128.82 116.767 129.427 117.407 130.2 117.86C130.973 118.313 131.847 118.54 132.82 118.54C133.833 118.54 134.7 118.32 135.42 117.88C136.153 117.427 136.713 116.78 137.1 115.94H139.28C138.76 117.273 137.933 118.307 136.8 119.04C135.667 119.76 134.34 120.12 132.82 120.12C131.527 120.12 130.347 119.82 129.28 119.22C128.227 118.607 127.393 117.76 126.78 116.68C126.167 115.6 125.86 114.38 125.86 113.02ZM143.809 105.2V120H141.989V105.2H143.809ZM156.911 114.1C156.911 114.447 156.891 114.813 156.851 115.2H148.091C148.158 116.28 148.524 117.127 149.191 117.74C149.871 118.34 150.691 118.64 151.651 118.64C152.438 118.64 153.091 118.46 153.611 118.1C154.144 117.727 154.518 117.233 154.731 116.62H156.691C156.398 117.673 155.811 118.533 154.931 119.2C154.051 119.853 152.958 120.18 151.651 120.18C150.611 120.18 149.678 119.947 148.851 119.48C148.038 119.013 147.398 118.353 146.931 117.5C146.464 116.633 146.231 115.633 146.231 114.5C146.231 113.367 146.458 112.373 146.911 111.52C147.364 110.667 147.998 110.013 148.811 109.56C149.638 109.093 150.584 108.86 151.651 108.86C152.691 108.86 153.611 109.087 154.411 109.54C155.211 109.993 155.824 110.62 156.251 111.42C156.691 112.207 156.911 113.1 156.911 114.1ZM155.031 113.72C155.031 113.027 154.878 112.433 154.571 111.94C154.264 111.433 153.844 111.053 153.311 110.8C152.791 110.533 152.211 110.4 151.571 110.4C150.651 110.4 149.864 110.693 149.211 111.28C148.571 111.867 148.204 112.68 148.111 113.72H155.031ZM158.633 114.48C158.633 113.36 158.86 112.38 159.313 111.54C159.767 110.687 160.387 110.027 161.173 109.56C161.973 109.093 162.86 108.86 163.833 108.86C164.793 108.86 165.627 109.067 166.333 109.48C167.04 109.893 167.567 110.413 167.913 111.04V109.04H169.753V120H167.913V117.96C167.553 118.6 167.013 119.133 166.293 119.56C165.587 119.973 164.76 120.18 163.813 120.18C162.84 120.18 161.96 119.94 161.173 119.46C160.387 118.98 159.767 118.307 159.313 117.44C158.86 116.573 158.633 115.587 158.633 114.48ZM167.913 114.5C167.913 113.673 167.747 112.953 167.413 112.34C167.08 111.727 166.627 111.26 166.053 110.94C165.493 110.607 164.873 110.44 164.193 110.44C163.513 110.44 162.893 110.6 162.333 110.92C161.773 111.24 161.327 111.707 160.993 112.32C160.66 112.933 160.493 113.653 160.493 114.48C160.493 115.32 160.66 116.053 160.993 116.68C161.327 117.293 161.773 117.767 162.333 118.1C162.893 118.42 163.513 118.58 164.193 118.58C164.873 118.58 165.493 118.42 166.053 118.1C166.627 117.767 167.08 117.293 167.413 116.68C167.747 116.053 167.913 115.327 167.913 114.5ZM178.169 108.84C179.502 108.84 180.582 109.247 181.409 110.06C182.236 110.86 182.649 112.02 182.649 113.54V120H180.849V113.8C180.849 112.707 180.576 111.873 180.029 111.3C179.482 110.713 178.736 110.42 177.789 110.42C176.829 110.42 176.062 110.72 175.489 111.32C174.929 111.92 174.649 112.793 174.649 113.94V120H172.829V109.04H174.649V110.6C175.009 110.04 175.496 109.607 176.109 109.3C176.736 108.993 177.422 108.84 178.169 108.84ZM189.502 120.18C188.662 120.18 187.909 120.04 187.242 119.76C186.575 119.467 186.049 119.067 185.662 118.56C185.275 118.04 185.062 117.447 185.022 116.78H186.902C186.955 117.327 187.209 117.773 187.662 118.12C188.129 118.467 188.735 118.64 189.482 118.64C190.175 118.64 190.722 118.487 191.122 118.18C191.522 117.873 191.722 117.487 191.722 117.02C191.722 116.54 191.509 116.187 191.082 115.96C190.655 115.72 189.995 115.487 189.102 115.26C188.289 115.047 187.622 114.833 187.102 114.62C186.595 114.393 186.155 114.067 185.782 113.64C185.422 113.2 185.242 112.627 185.242 111.92C185.242 111.36 185.409 110.847 185.742 110.38C186.075 109.913 186.549 109.547 187.162 109.28C187.775 109 188.475 108.86 189.262 108.86C190.475 108.86 191.455 109.167 192.202 109.78C192.949 110.393 193.349 111.233 193.402 112.3H191.582C191.542 111.727 191.309 111.267 190.882 110.92C190.469 110.573 189.909 110.4 189.202 110.4C188.549 110.4 188.029 110.54 187.642 110.82C187.255 111.1 187.062 111.467 187.062 111.92C187.062 112.28 187.175 112.58 187.402 112.82C187.642 113.047 187.935 113.233 188.282 113.38C188.642 113.513 189.135 113.667 189.762 113.84C190.549 114.053 191.189 114.267 191.682 114.48C192.175 114.68 192.595 114.987 192.942 115.4C193.302 115.813 193.489 116.353 193.502 117.02C193.502 117.62 193.335 118.16 193.002 118.64C192.669 119.12 192.195 119.5 191.582 119.78C190.982 120.047 190.289 120.18 189.502 120.18ZM206.071 114.1C206.071 114.447 206.051 114.813 206.011 115.2H197.251C197.318 116.28 197.685 117.127 198.351 117.74C199.031 118.34 199.851 118.64 200.811 118.64C201.598 118.64 202.251 118.46 202.771 118.1C203.305 117.727 203.678 117.233 203.891 116.62H205.851C205.558 117.673 204.971 118.533 204.091 119.2C203.211 119.853 202.118 120.18 200.811 120.18C199.771 120.18 198.838 119.947 198.011 119.48C197.198 119.013 196.558 118.353 196.091 117.5C195.625 116.633 195.391 115.633 195.391 114.5C195.391 113.367 195.618 112.373 196.071 111.52C196.525 110.667 197.158 110.013 197.971 109.56C198.798 109.093 199.745 108.86 200.811 108.86C201.851 108.86 202.771 109.087 203.571 109.54C204.371 109.993 204.985 110.62 205.411 111.42C205.851 112.207 206.071 113.1 206.071 114.1ZM204.191 113.72C204.191 113.027 204.038 112.433 203.731 111.94C203.425 111.433 203.005 111.053 202.471 110.8C201.951 110.533 201.371 110.4 200.731 110.4C199.811 110.4 199.025 110.693 198.371 111.28C197.731 111.867 197.365 112.68 197.271 113.72H204.191ZM210.294 110.82C210.614 110.193 211.067 109.707 211.654 109.36C212.254 109.013 212.98 108.84 213.834 108.84V110.72H213.354C211.314 110.72 210.294 111.827 210.294 114.04V120H208.474V109.04H210.294V110.82Z" fill="white"/>
<circle cx="146" cy="43" r="21" fill="#FAFCFF"/>
<path d="M150.375 40.5629V39.875C150.374 39.2122 150.111 38.5767 149.642 38.1081C149.173 37.6394 148.538 37.3758 147.875 37.375H146.625V35.5H149.125C149.291 35.5002 149.45 35.5661 149.567 35.6833C149.684 35.8004 149.75 35.9593 149.75 36.125C149.75 36.2908 149.816 36.4497 149.933 36.5669C150.05 36.6842 150.209 36.75 150.375 36.75C150.541 36.75 150.7 36.6842 150.817 36.5669C150.934 36.4497 151 36.2908 151 36.125C150.999 35.6279 150.802 35.1513 150.45 34.7998C150.099 34.4483 149.622 34.2506 149.125 34.25H144.125C143.959 34.25 143.8 34.3158 143.683 34.4331C143.566 34.5503 143.5 34.7092 143.5 34.875C143.5 35.0408 143.566 35.1997 143.683 35.3169C143.8 35.4342 143.959 35.5 144.125 35.5H145.375V37.375H144.125C143.462 37.3758 142.827 37.6394 142.358 38.1081C141.889 38.5767 141.626 39.2122 141.625 39.875V40.5629C140.92 40.7079 140.286 41.0916 139.83 41.6494C139.375 42.2072 139.126 42.9049 139.125 43.625V49.875C139.125 50.2064 139.257 50.5241 139.492 50.7585C139.726 50.9928 140.044 51.1246 140.375 51.125H151.625C151.956 51.1246 152.274 50.9928 152.508 50.7585C152.743 50.5241 152.875 50.2064 152.875 49.875V43.625C152.874 42.9049 152.625 42.2072 152.17 41.6494C151.714 41.0916 151.08 40.7079 150.375 40.5629V40.5629ZM144.125 38.625H147.875C148.206 38.6254 148.524 38.7572 148.758 38.9915C148.993 39.2259 149.125 39.5436 149.125 39.875V40.5H142.875V39.875C142.875 39.5436 143.007 39.2259 143.242 38.9915C143.476 38.7572 143.794 38.6254 144.125 38.625Z" fill="#FFBB47"/>
<defs>
<filter id="filter0_f_55_160" x="0" y="276" width="16" height="16" filterUnits="userSpaceOnUse" color-interpolation-filters="sRGB">
<feFlood flood-opacity="0" result="BackgroundImageFix"/>
<feBlend mode="normal" in="SourceGraphic" in2="BackgroundImageFix" result="shape"/>
<feGaussianBlur stdDeviation="0.5" result="effect1_foregroundBlur_55_160"/>
</filter>
</defs>
</svg>
