<svg width="320" height="372" viewBox="0 0 320 372" fill="none" xmlns="http://www.w3.org/2000/svg">
<rect x="29.3042" y="15.1211" width="262" height="336" rx="5.81506"/>
<rect width="20" height="20" rx="2.90753" transform="matrix(-1 0 0 1 284.004 163.984)" fill="#6E59A4"/>
<path d="M158.98 162.82L158.98 299.474L228.761 299.474" stroke="#FFBB47" stroke-width="1.74452" stroke-linecap="round" stroke-dasharray="4.65 4.65"/>
<rect x="228.761" y="252.375" width="91" height="91" rx="5.81506" fill="#FFBB47"/>
<path opacity="0.5" d="M241.984 305.983C241.984 305.303 242.137 304.693 242.444 304.153C242.75 303.606 243.167 303.179 243.694 302.873C244.227 302.566 244.817 302.413 245.464 302.413C246.224 302.413 246.887 302.596 247.454 302.963C248.02 303.329 248.434 303.849 248.694 304.523H247.604C247.41 304.103 247.13 303.779 246.764 303.553C246.404 303.326 245.97 303.213 245.464 303.213C244.977 303.213 244.54 303.326 244.154 303.553C243.767 303.779 243.464 304.103 243.244 304.523C243.024 304.936 242.914 305.423 242.914 305.983C242.914 306.536 243.024 307.023 243.244 307.443C243.464 307.856 243.767 308.176 244.154 308.403C244.54 308.629 244.977 308.743 245.464 308.743C245.97 308.743 246.404 308.633 246.764 308.413C247.13 308.186 247.41 307.863 247.604 307.443H248.694C248.434 308.109 248.02 308.626 247.454 308.993C246.887 309.353 246.224 309.533 245.464 309.533C244.817 309.533 244.227 309.383 243.694 309.083C243.167 308.776 242.75 308.353 242.444 307.813C242.137 307.273 241.984 306.663 241.984 305.983ZM254.908 303.993V309.473H253.998V308.663C253.825 308.943 253.582 309.163 253.268 309.323C252.962 309.476 252.622 309.553 252.248 309.553C251.822 309.553 251.438 309.466 251.098 309.293C250.758 309.113 250.488 308.846 250.288 308.493C250.095 308.139 249.998 307.709 249.998 307.203V303.993H250.898V307.083C250.898 307.623 251.035 308.039 251.308 308.333C251.582 308.619 251.955 308.763 252.428 308.763C252.915 308.763 253.298 308.613 253.578 308.313C253.858 308.013 253.998 307.576 253.998 307.003V303.993H254.908ZM257.355 304.883C257.515 304.569 257.741 304.326 258.035 304.153C258.335 303.979 258.698 303.893 259.125 303.893V304.833H258.885C257.865 304.833 257.355 305.386 257.355 306.493V309.473H256.445V303.993H257.355V304.883ZM262.565 309.563C262.052 309.563 261.585 309.446 261.165 309.213C260.752 308.979 260.425 308.649 260.185 308.223C259.952 307.789 259.835 307.289 259.835 306.723C259.835 306.163 259.955 305.669 260.195 305.243C260.442 304.809 260.775 304.479 261.195 304.253C261.615 304.019 262.085 303.903 262.605 303.903C263.125 303.903 263.595 304.019 264.015 304.253C264.435 304.479 264.765 304.806 265.005 305.233C265.252 305.659 265.375 306.156 265.375 306.723C265.375 307.289 265.249 307.789 264.995 308.223C264.749 308.649 264.412 308.979 263.985 309.213C263.559 309.446 263.085 309.563 262.565 309.563ZM262.565 308.763C262.892 308.763 263.199 308.686 263.485 308.533C263.772 308.379 264.002 308.149 264.175 307.843C264.355 307.536 264.445 307.163 264.445 306.723C264.445 306.283 264.359 305.909 264.185 305.603C264.012 305.296 263.785 305.069 263.505 304.923C263.225 304.769 262.922 304.693 262.595 304.693C262.262 304.693 261.955 304.769 261.675 304.923C261.402 305.069 261.182 305.296 261.015 305.603C260.849 305.909 260.765 306.283 260.765 306.723C260.765 307.169 260.845 307.546 261.005 307.853C261.172 308.159 261.392 308.389 261.665 308.543C261.939 308.689 262.239 308.763 262.565 308.763ZM267.482 302.073V309.473H266.572V302.073H267.482ZM271.423 309.563C270.909 309.563 270.443 309.446 270.023 309.213C269.609 308.979 269.283 308.649 269.043 308.223C268.809 307.789 268.693 307.289 268.693 306.723C268.693 306.163 268.813 305.669 269.053 305.243C269.299 304.809 269.633 304.479 270.053 304.253C270.473 304.019 270.943 303.903 271.463 303.903C271.983 303.903 272.453 304.019 272.873 304.253C273.293 304.479 273.623 304.806 273.863 305.233C274.109 305.659 274.233 306.156 274.233 306.723C274.233 307.289 274.106 307.789 273.853 308.223C273.606 308.649 273.269 308.979 272.843 309.213C272.416 309.446 271.943 309.563 271.423 309.563ZM271.423 308.763C271.749 308.763 272.056 308.686 272.343 308.533C272.629 308.379 272.859 308.149 273.033 307.843C273.213 307.536 273.303 307.163 273.303 306.723C273.303 306.283 273.216 305.909 273.043 305.603C272.869 305.296 272.643 305.069 272.363 304.923C272.083 304.769 271.779 304.693 271.453 304.693C271.119 304.693 270.813 304.769 270.533 304.923C270.259 305.069 270.039 305.296 269.873 305.603C269.706 305.909 269.623 306.283 269.623 306.723C269.623 307.169 269.703 307.546 269.863 307.853C270.029 308.159 270.249 308.389 270.523 308.543C270.796 308.689 271.096 308.763 271.423 308.763ZM277.689 303.903C278.163 303.903 278.576 304.006 278.929 304.213C279.289 304.419 279.556 304.679 279.729 304.993V303.993H280.649V309.593C280.649 310.093 280.543 310.536 280.329 310.923C280.116 311.316 279.809 311.623 279.409 311.843C279.016 312.063 278.556 312.173 278.029 312.173C277.309 312.173 276.709 312.003 276.229 311.663C275.749 311.323 275.466 310.859 275.379 310.273H276.279C276.379 310.606 276.586 310.873 276.899 311.073C277.213 311.279 277.589 311.383 278.029 311.383C278.529 311.383 278.936 311.226 279.249 310.913C279.569 310.599 279.729 310.159 279.729 309.593V308.443C279.549 308.763 279.283 309.029 278.929 309.243C278.576 309.456 278.163 309.563 277.689 309.563C277.203 309.563 276.759 309.443 276.359 309.203C275.966 308.963 275.656 308.626 275.429 308.193C275.203 307.759 275.089 307.266 275.089 306.713C275.089 306.153 275.203 305.663 275.429 305.243C275.656 304.816 275.966 304.486 276.359 304.253C276.759 304.019 277.203 303.903 277.689 303.903ZM279.729 306.723C279.729 306.309 279.646 305.949 279.479 305.643C279.313 305.336 279.086 305.103 278.799 304.943C278.519 304.776 278.209 304.693 277.869 304.693C277.529 304.693 277.219 304.773 276.939 304.933C276.659 305.093 276.436 305.326 276.269 305.633C276.103 305.939 276.019 306.299 276.019 306.713C276.019 307.133 276.103 307.499 276.269 307.813C276.436 308.119 276.659 308.356 276.939 308.523C277.219 308.683 277.529 308.763 277.869 308.763C278.209 308.763 278.519 308.683 278.799 308.523C279.086 308.356 279.313 308.119 279.479 307.813C279.646 307.499 279.729 307.136 279.729 306.723ZM286.907 303.993L283.607 312.053H282.667L283.747 309.413L281.537 303.993H282.547L284.267 308.433L285.967 303.993H286.907Z" fill="white"/>
<path d="M247.206 317.231V318.119H243.57V320.939H246.522V321.827H243.57V325.595H242.478V317.231H247.206ZM248.117 322.283C248.117 321.611 248.253 321.023 248.525 320.519C248.797 320.007 249.169 319.611 249.641 319.331C250.121 319.051 250.653 318.911 251.237 318.911C251.813 318.911 252.313 319.035 252.737 319.283C253.161 319.531 253.477 319.843 253.685 320.219V319.019H254.789V325.595H253.685V324.371C253.469 324.755 253.145 325.075 252.713 325.331C252.289 325.579 251.793 325.703 251.225 325.703C250.641 325.703 250.113 325.559 249.641 325.271C249.169 324.983 248.797 324.579 248.525 324.059C248.253 323.539 248.117 322.947 248.117 322.283ZM253.685 322.295C253.685 321.799 253.585 321.367 253.385 320.999C253.185 320.631 252.913 320.351 252.569 320.159C252.233 319.959 251.861 319.859 251.453 319.859C251.045 319.859 250.673 319.955 250.337 320.147C250.001 320.339 249.733 320.619 249.533 320.987C249.333 321.355 249.233 321.787 249.233 322.283C249.233 322.787 249.333 323.227 249.533 323.603C249.733 323.971 250.001 324.255 250.337 324.455C250.673 324.647 251.045 324.743 251.453 324.743C251.861 324.743 252.233 324.647 252.569 324.455C252.913 324.255 253.185 323.971 253.385 323.603C253.585 323.227 253.685 322.791 253.685 322.295ZM256.226 322.295C256.226 321.615 256.362 321.023 256.634 320.519C256.906 320.007 257.282 319.611 257.762 319.331C258.25 319.051 258.806 318.911 259.43 318.911C260.238 318.911 260.902 319.107 261.422 319.499C261.95 319.891 262.298 320.435 262.466 321.131H261.29C261.178 320.731 260.958 320.415 260.63 320.183C260.31 319.951 259.91 319.835 259.43 319.835C258.806 319.835 258.302 320.051 257.918 320.483C257.534 320.907 257.342 321.511 257.342 322.295C257.342 323.087 257.534 323.699 257.918 324.131C258.302 324.563 258.806 324.779 259.43 324.779C259.91 324.779 260.31 324.667 260.63 324.443C260.95 324.219 261.17 323.899 261.29 323.483H262.466C262.29 324.155 261.938 324.695 261.41 325.103C260.882 325.503 260.222 325.703 259.43 325.703C258.806 325.703 258.25 325.563 257.762 325.283C257.282 325.003 256.906 324.607 256.634 324.095C256.362 323.583 256.226 322.983 256.226 322.295ZM269.923 322.055C269.923 322.263 269.911 322.483 269.887 322.715H264.631C264.671 323.363 264.891 323.871 265.291 324.239C265.699 324.599 266.191 324.779 266.767 324.779C267.239 324.779 267.631 324.671 267.943 324.455C268.263 324.231 268.487 323.935 268.615 323.567H269.791C269.615 324.199 269.263 324.715 268.735 325.115C268.207 325.507 267.551 325.703 266.767 325.703C266.143 325.703 265.583 325.563 265.087 325.283C264.599 325.003 264.215 324.607 263.935 324.095C263.655 323.575 263.515 322.975 263.515 322.295C263.515 321.615 263.651 321.019 263.923 320.507C264.195 319.995 264.575 319.603 265.063 319.331C265.559 319.051 266.127 318.911 266.767 318.911C267.391 318.911 267.943 319.047 268.423 319.319C268.903 319.591 269.271 319.967 269.527 320.447C269.791 320.919 269.923 321.455 269.923 322.055ZM268.795 321.827C268.795 321.411 268.703 321.055 268.519 320.759C268.335 320.455 268.083 320.227 267.763 320.075C267.451 319.915 267.103 319.835 266.719 319.835C266.167 319.835 265.695 320.011 265.303 320.363C264.919 320.715 264.699 321.203 264.643 321.827H268.795ZM282.472 318.899C282.984 318.899 283.44 319.007 283.84 319.223C284.24 319.431 284.556 319.747 284.788 320.171C285.02 320.595 285.136 321.111 285.136 321.719V325.595H284.056V321.875C284.056 321.219 283.892 320.719 283.564 320.375C283.244 320.023 282.808 319.847 282.256 319.847C281.688 319.847 281.236 320.031 280.9 320.399C280.564 320.759 280.396 321.283 280.396 321.971V325.595H279.316V321.875C279.316 321.219 279.152 320.719 278.824 320.375C278.504 320.023 278.068 319.847 277.516 319.847C276.948 319.847 276.496 320.031 276.16 320.399C275.824 320.759 275.656 321.283 275.656 321.971V325.595H274.564V319.019H275.656V319.967C275.872 319.623 276.16 319.359 276.52 319.175C276.888 318.991 277.292 318.899 277.732 318.899C278.284 318.899 278.772 319.023 279.196 319.271C279.62 319.519 279.936 319.883 280.144 320.363C280.328 319.899 280.632 319.539 281.056 319.283C281.48 319.027 281.952 318.899 282.472 318.899ZM287.491 317.951C287.283 317.951 287.107 317.879 286.963 317.735C286.819 317.591 286.747 317.415 286.747 317.207C286.747 316.999 286.819 316.823 286.963 316.679C287.107 316.535 287.283 316.463 287.491 316.463C287.691 316.463 287.859 316.535 287.995 316.679C288.139 316.823 288.211 316.999 288.211 317.207C288.211 317.415 288.139 317.591 287.995 317.735C287.859 317.879 287.691 317.951 287.491 317.951ZM288.019 319.019V325.595H286.927V319.019H288.019ZM292.208 325.703C291.704 325.703 291.252 325.619 290.852 325.451C290.452 325.275 290.136 325.035 289.904 324.731C289.672 324.419 289.544 324.063 289.52 323.663H290.648C290.68 323.991 290.832 324.259 291.104 324.467C291.384 324.675 291.748 324.779 292.196 324.779C292.612 324.779 292.94 324.687 293.18 324.503C293.42 324.319 293.54 324.087 293.54 323.807C293.54 323.519 293.412 323.307 293.156 323.171C292.9 323.027 292.504 322.887 291.968 322.751C291.48 322.623 291.08 322.495 290.768 322.367C290.464 322.231 290.2 322.035 289.976 321.779C289.76 321.515 289.652 321.171 289.652 320.747C289.652 320.411 289.752 320.103 289.952 319.823C290.152 319.543 290.436 319.323 290.804 319.163C291.172 318.995 291.592 318.911 292.064 318.911C292.792 318.911 293.38 319.095 293.828 319.463C294.276 319.831 294.516 320.335 294.548 320.975H293.456C293.432 320.631 293.292 320.355 293.036 320.147C292.788 319.939 292.452 319.835 292.028 319.835C291.636 319.835 291.324 319.919 291.092 320.087C290.86 320.255 290.744 320.475 290.744 320.747C290.744 320.963 290.812 321.143 290.948 321.287C291.092 321.423 291.268 321.535 291.476 321.623C291.692 321.703 291.988 321.795 292.364 321.899C292.836 322.027 293.22 322.155 293.516 322.283C293.812 322.403 294.064 322.587 294.272 322.835C294.488 323.083 294.6 323.407 294.608 323.807C294.608 324.167 294.508 324.491 294.308 324.779C294.108 325.067 293.824 325.295 293.456 325.463C293.096 325.623 292.68 325.703 292.208 325.703ZM297.482 319.919V323.795C297.482 324.115 297.55 324.343 297.686 324.479C297.822 324.607 298.058 324.671 298.394 324.671H299.198V325.595H298.214C297.606 325.595 297.15 325.455 296.846 325.175C296.542 324.895 296.39 324.435 296.39 323.795V319.919H295.538V319.019H296.39V317.363H297.482V319.019H299.198V319.919H297.482Z" fill="white"/>
<circle cx="253.811" cy="280.074" r="12" fill="#FAFCFF"/>
<path d="M256.436 279.01V278.598C256.435 278.2 256.277 277.819 255.996 277.537C255.715 277.256 255.333 277.098 254.936 277.098H254.186V275.973H255.686C255.785 275.973 255.88 276.012 255.951 276.083C256.021 276.153 256.061 276.248 256.061 276.348C256.061 276.447 256.1 276.542 256.171 276.613C256.241 276.683 256.336 276.723 256.436 276.723C256.535 276.723 256.631 276.683 256.701 276.613C256.771 276.542 256.811 276.447 256.811 276.348C256.81 276.049 256.692 275.763 256.481 275.553C256.27 275.342 255.984 275.223 255.686 275.223H252.686C252.586 275.223 252.491 275.262 252.421 275.332C252.35 275.403 252.311 275.498 252.311 275.598C252.311 275.697 252.35 275.792 252.421 275.863C252.491 275.933 252.586 275.973 252.686 275.973H253.436V277.098H252.686C252.288 277.098 251.907 277.256 251.626 277.537C251.344 277.819 251.186 278.2 251.186 278.598V279.01C250.762 279.097 250.382 279.328 250.109 279.662C249.836 279.997 249.686 280.416 249.686 280.848V284.598C249.686 284.796 249.765 284.987 249.906 285.128C250.046 285.268 250.237 285.347 250.436 285.348H257.186C257.385 285.347 257.575 285.268 257.716 285.128C257.856 284.987 257.935 284.796 257.936 284.598V280.848C257.935 280.416 257.786 279.997 257.512 279.662C257.239 279.328 256.859 279.097 256.436 279.01ZM252.686 277.848H254.936C255.135 277.848 255.325 277.927 255.466 278.068C255.606 278.208 255.685 278.399 255.686 278.598V278.973H251.936V278.598C251.936 278.399 252.015 278.208 252.156 278.068C252.296 277.927 252.487 277.848 252.686 277.848Z" fill="#FFBB47"/>
<g filter="url(#filter0_f_0_154)">
<circle cx="158.98" cy="156.426" r="4.07054" fill="white"/>
</g>
<circle cx="158.98" cy="156.424" r="2.32602" fill="#FFBB47"/>
<rect width="36" height="36" rx="2.90753" transform="matrix(-1 0 0 1 54.3091 0)" fill="#FFBB47"/>
<rect width="20" height="20" rx="2.90753" transform="matrix(-1 0 0 1 20 351.812)" fill="#C0B5DE"/>
<defs>
<filter id="filter0_f_0_154" x="154.328" y="151.774" width="9.30412" height="9.30412" filterUnits="userSpaceOnUse" color-interpolation-filters="sRGB">
<feFlood flood-opacity="0" result="BackgroundImageFix"/>
<feBlend mode="normal" in="SourceGraphic" in2="BackgroundImageFix" result="shape"/>
<feGaussianBlur stdDeviation="0.290753" result="effect1_foregroundBlur_0_154"/>
</filter>
</defs>
</svg>
