<svg width="659" height="455" viewBox="0 0 659 455" fill="none" xmlns="http://www.w3.org/2000/svg">
<path d="M385 329L385 94L402 94" stroke="#FFBB47" stroke-width="3" stroke-linecap="round" stroke-dasharray="8 8"/>
<path d="M135 314L135 134L179 134" stroke="#FFBB47" stroke-width="3" stroke-linecap="round" stroke-dasharray="8 8"/>
<rect x="402" y="52" width="257" height="89" rx="10" fill="#FFBB47"/>
<path opacity="0.8" d="M501.602 83.114C501.602 82.162 501.817 81.308 502.246 80.552C502.675 79.7867 503.259 79.1893 503.996 78.76C504.743 78.3307 505.569 78.116 506.474 78.116C507.538 78.116 508.467 78.3727 509.26 78.886C510.053 79.3993 510.632 80.1273 510.996 81.07H509.47C509.199 80.482 508.807 80.0293 508.294 79.712C507.79 79.3947 507.183 79.236 506.474 79.236C505.793 79.236 505.181 79.3947 504.64 79.712C504.099 80.0293 503.674 80.482 503.366 81.07C503.058 81.6487 502.904 82.33 502.904 83.114C502.904 83.8887 503.058 84.57 503.366 85.158C503.674 85.7367 504.099 86.1847 504.64 86.502C505.181 86.8193 505.793 86.978 506.474 86.978C507.183 86.978 507.79 86.824 508.294 86.516C508.807 86.1987 509.199 85.746 509.47 85.158H510.996C510.632 86.0913 510.053 86.8147 509.26 87.328C508.467 87.832 507.538 88.084 506.474 88.084C505.569 88.084 504.743 87.874 503.996 87.454C503.259 87.0247 502.675 86.432 502.246 85.676C501.817 84.92 501.602 84.066 501.602 83.114ZM519.696 80.328V88H518.422V86.866C518.18 87.258 517.839 87.566 517.4 87.79C516.971 88.0047 516.495 88.112 515.972 88.112C515.375 88.112 514.838 87.9907 514.362 87.748C513.886 87.496 513.508 87.1227 513.228 86.628C512.958 86.1333 512.822 85.5313 512.822 84.822V80.328H514.082V84.654C514.082 85.41 514.274 85.9933 514.656 86.404C515.039 86.8053 515.562 87.006 516.224 87.006C516.906 87.006 517.442 86.796 517.834 86.376C518.226 85.956 518.422 85.3447 518.422 84.542V80.328H519.696ZM523.122 81.574C523.346 81.1353 523.663 80.7947 524.074 80.552C524.494 80.3093 525.002 80.188 525.6 80.188V81.504H525.264C523.836 81.504 523.122 82.2787 523.122 83.828V88H521.848V80.328H523.122V81.574ZM530.416 88.126C529.698 88.126 529.044 87.9627 528.456 87.636C527.878 87.3093 527.42 86.8473 527.084 86.25C526.758 85.6433 526.594 84.9433 526.594 84.15C526.594 83.366 526.762 82.6753 527.098 82.078C527.444 81.4713 527.91 81.0093 528.498 80.692C529.086 80.3653 529.744 80.202 530.472 80.202C531.2 80.202 531.858 80.3653 532.446 80.692C533.034 81.0093 533.496 81.4667 533.832 82.064C534.178 82.6613 534.35 83.3567 534.35 84.15C534.35 84.9433 534.173 85.6433 533.818 86.25C533.473 86.8473 533.002 87.3093 532.404 87.636C531.807 87.9627 531.144 88.126 530.416 88.126ZM530.416 87.006C530.874 87.006 531.303 86.8987 531.704 86.684C532.106 86.4693 532.428 86.1473 532.67 85.718C532.922 85.2887 533.048 84.766 533.048 84.15C533.048 83.534 532.927 83.0113 532.684 82.582C532.442 82.1527 532.124 81.8353 531.732 81.63C531.34 81.4153 530.916 81.308 530.458 81.308C529.992 81.308 529.562 81.4153 529.17 81.63C528.788 81.8353 528.48 82.1527 528.246 82.582C528.013 83.0113 527.896 83.534 527.896 84.15C527.896 84.7753 528.008 85.3027 528.232 85.732C528.466 86.1613 528.774 86.4833 529.156 86.698C529.539 86.9033 529.959 87.006 530.416 87.006ZM537.299 77.64V88H536.025V77.64H537.299ZM542.817 88.126C542.098 88.126 541.445 87.9627 540.857 87.636C540.278 87.3093 539.821 86.8473 539.485 86.25C539.158 85.6433 538.995 84.9433 538.995 84.15C538.995 83.366 539.163 82.6753 539.499 82.078C539.844 81.4713 540.311 81.0093 540.899 80.692C541.487 80.3653 542.145 80.202 542.873 80.202C543.601 80.202 544.259 80.3653 544.847 80.692C545.435 81.0093 545.897 81.4667 546.233 82.064C546.578 82.6613 546.751 83.3567 546.751 84.15C546.751 84.9433 546.573 85.6433 546.219 86.25C545.873 86.8473 545.402 87.3093 544.805 87.636C544.207 87.9627 543.545 88.126 542.817 88.126ZM542.817 87.006C543.274 87.006 543.703 86.8987 544.105 86.684C544.506 86.4693 544.828 86.1473 545.071 85.718C545.323 85.2887 545.449 84.766 545.449 84.15C545.449 83.534 545.327 83.0113 545.085 82.582C544.842 82.1527 544.525 81.8353 544.133 81.63C543.741 81.4153 543.316 81.308 542.859 81.308C542.392 81.308 541.963 81.4153 541.571 81.63C541.188 81.8353 540.88 82.1527 540.647 82.582C540.413 83.0113 540.297 83.534 540.297 84.15C540.297 84.7753 540.409 85.3027 540.633 85.732C540.866 86.1613 541.174 86.4833 541.557 86.698C541.939 86.9033 542.359 87.006 542.817 87.006ZM551.59 80.202C552.252 80.202 552.831 80.3467 553.326 80.636C553.83 80.9253 554.203 81.2893 554.446 81.728V80.328H555.734V88.168C555.734 88.868 555.584 89.4887 555.286 90.03C554.987 90.5807 554.558 91.01 553.998 91.318C553.447 91.626 552.803 91.78 552.066 91.78C551.058 91.78 550.218 91.542 549.546 91.066C548.874 90.59 548.477 89.9413 548.356 89.12H549.616C549.756 89.5867 550.045 89.96 550.484 90.24C550.922 90.5293 551.45 90.674 552.066 90.674C552.766 90.674 553.335 90.4547 553.774 90.016C554.222 89.5773 554.446 88.9613 554.446 88.168V86.558C554.194 87.006 553.82 87.3793 553.326 87.678C552.831 87.9767 552.252 88.126 551.59 88.126C550.908 88.126 550.288 87.958 549.728 87.622C549.177 87.286 548.743 86.8147 548.426 86.208C548.108 85.6013 547.95 84.9107 547.95 84.136C547.95 83.352 548.108 82.666 548.426 82.078C548.743 81.4807 549.177 81.0187 549.728 80.692C550.288 80.3653 550.908 80.202 551.59 80.202ZM554.446 84.15C554.446 83.5713 554.329 83.0673 554.096 82.638C553.862 82.2087 553.545 81.882 553.144 81.658C552.752 81.4247 552.318 81.308 551.842 81.308C551.366 81.308 550.932 81.42 550.54 81.644C550.148 81.868 549.835 82.1947 549.602 82.624C549.368 83.0533 549.252 83.5573 549.252 84.136C549.252 84.724 549.368 85.2373 549.602 85.676C549.835 86.1053 550.148 86.4367 550.54 86.67C550.932 86.894 551.366 87.006 551.842 87.006C552.318 87.006 552.752 86.894 553.144 86.67C553.545 86.4367 553.862 86.1053 554.096 85.676C554.329 85.2373 554.446 84.7287 554.446 84.15ZM564.495 80.328L559.875 91.612H558.559L560.071 87.916L556.977 80.328H558.391L560.799 86.544L563.179 80.328H564.495Z" fill="white"/>
<path d="M516.68 102.16V116H514.86V105.68L510.26 116H508.98L504.36 105.66V116H502.54V102.16H504.5L509.62 113.6L514.74 102.16H516.68ZM524.547 116.18C523.52 116.18 522.587 115.947 521.747 115.48C520.92 115.013 520.267 114.353 519.787 113.5C519.32 112.633 519.087 111.633 519.087 110.5C519.087 109.38 519.327 108.393 519.807 107.54C520.3 106.673 520.967 106.013 521.807 105.56C522.647 105.093 523.587 104.86 524.627 104.86C525.667 104.86 526.607 105.093 527.447 105.56C528.287 106.013 528.947 106.667 529.427 107.52C529.92 108.373 530.167 109.367 530.167 110.5C530.167 111.633 529.913 112.633 529.407 113.5C528.913 114.353 528.24 115.013 527.387 115.48C526.533 115.947 525.587 116.18 524.547 116.18ZM524.547 114.58C525.2 114.58 525.813 114.427 526.387 114.12C526.96 113.813 527.42 113.353 527.767 112.74C528.127 112.127 528.307 111.38 528.307 110.5C528.307 109.62 528.133 108.873 527.787 108.26C527.44 107.647 526.987 107.193 526.427 106.9C525.867 106.593 525.26 106.44 524.607 106.44C523.94 106.44 523.327 106.593 522.767 106.9C522.22 107.193 521.78 107.647 521.447 108.26C521.113 108.873 520.947 109.62 520.947 110.5C520.947 111.393 521.107 112.147 521.427 112.76C521.76 113.373 522.2 113.833 522.747 114.14C523.293 114.433 523.893 114.58 524.547 114.58ZM533.5 103.26C533.153 103.26 532.86 103.14 532.62 102.9C532.38 102.66 532.26 102.367 532.26 102.02C532.26 101.673 532.38 101.38 532.62 101.14C532.86 100.9 533.153 100.78 533.5 100.78C533.833 100.78 534.113 100.9 534.34 101.14C534.58 101.38 534.7 101.673 534.7 102.02C534.7 102.367 534.58 102.66 534.34 102.9C534.113 103.14 533.833 103.26 533.5 103.26ZM534.38 105.04V116H532.56V105.04H534.38ZM541.361 116.18C540.521 116.18 539.768 116.04 539.101 115.76C538.435 115.467 537.908 115.067 537.521 114.56C537.135 114.04 536.921 113.447 536.881 112.78H538.761C538.815 113.327 539.068 113.773 539.521 114.12C539.988 114.467 540.595 114.64 541.341 114.64C542.035 114.64 542.581 114.487 542.981 114.18C543.381 113.873 543.581 113.487 543.581 113.02C543.581 112.54 543.368 112.187 542.941 111.96C542.515 111.72 541.855 111.487 540.961 111.26C540.148 111.047 539.481 110.833 538.961 110.62C538.455 110.393 538.015 110.067 537.641 109.64C537.281 109.2 537.101 108.627 537.101 107.92C537.101 107.36 537.268 106.847 537.601 106.38C537.935 105.913 538.408 105.547 539.021 105.28C539.635 105 540.335 104.86 541.121 104.86C542.335 104.86 543.315 105.167 544.061 105.78C544.808 106.393 545.208 107.233 545.261 108.3H543.441C543.401 107.727 543.168 107.267 542.741 106.92C542.328 106.573 541.768 106.4 541.061 106.4C540.408 106.4 539.888 106.54 539.501 106.82C539.115 107.1 538.921 107.467 538.921 107.92C538.921 108.28 539.035 108.58 539.261 108.82C539.501 109.047 539.795 109.233 540.141 109.38C540.501 109.513 540.995 109.667 541.621 109.84C542.408 110.053 543.048 110.267 543.541 110.48C544.035 110.68 544.455 110.987 544.801 111.4C545.161 111.813 545.348 112.353 545.361 113.02C545.361 113.62 545.195 114.16 544.861 114.64C544.528 115.12 544.055 115.5 543.441 115.78C542.841 116.047 542.148 116.18 541.361 116.18ZM550.151 106.54V113C550.151 113.533 550.264 113.913 550.491 114.14C550.717 114.353 551.111 114.46 551.671 114.46H553.011V116H551.371C550.357 116 549.597 115.767 549.091 115.3C548.584 114.833 548.331 114.067 548.331 113V106.54H546.911V105.04H548.331V102.28H550.151V105.04H553.011V106.54H550.151ZM564.936 105.04V116H563.116V114.38C562.769 114.94 562.282 115.38 561.656 115.7C561.042 116.007 560.362 116.16 559.616 116.16C558.762 116.16 557.996 115.987 557.316 115.64C556.636 115.28 556.096 114.747 555.696 114.04C555.309 113.333 555.116 112.473 555.116 111.46V105.04H556.916V111.22C556.916 112.3 557.189 113.133 557.736 113.72C558.282 114.293 559.029 114.58 559.976 114.58C560.949 114.58 561.716 114.28 562.276 113.68C562.836 113.08 563.116 112.207 563.116 111.06V105.04H564.936ZM569.829 106.82C570.149 106.193 570.602 105.707 571.189 105.36C571.789 105.013 572.515 104.84 573.369 104.84V106.72H572.889C570.849 106.72 569.829 107.827 569.829 110.04V116H568.009V105.04H569.829V106.82ZM576.41 103.26C576.063 103.26 575.77 103.14 575.53 102.9C575.29 102.66 575.17 102.367 575.17 102.02C575.17 101.673 575.29 101.38 575.53 101.14C575.77 100.9 576.063 100.78 576.41 100.78C576.743 100.78 577.023 100.9 577.25 101.14C577.49 101.38 577.61 101.673 577.61 102.02C577.61 102.367 577.49 102.66 577.25 102.9C577.023 103.14 576.743 103.26 576.41 103.26ZM577.29 105.04V116H575.47V105.04H577.29ZM581.752 114.5H587.132V116H579.672V114.5L584.992 106.52H579.712V105.04H587.092V106.52L581.752 114.5ZM599.493 110.1C599.493 110.447 599.473 110.813 599.433 111.2H590.673C590.74 112.28 591.106 113.127 591.773 113.74C592.453 114.34 593.273 114.64 594.233 114.64C595.02 114.64 595.673 114.46 596.193 114.1C596.726 113.727 597.1 113.233 597.313 112.62H599.273C598.98 113.673 598.393 114.533 597.513 115.2C596.633 115.853 595.54 116.18 594.233 116.18C593.193 116.18 592.26 115.947 591.433 115.48C590.62 115.013 589.98 114.353 589.513 113.5C589.046 112.633 588.813 111.633 588.813 110.5C588.813 109.367 589.04 108.373 589.493 107.52C589.946 106.667 590.58 106.013 591.393 105.56C592.22 105.093 593.166 104.86 594.233 104.86C595.273 104.86 596.193 105.087 596.993 105.54C597.793 105.993 598.406 106.62 598.833 107.42C599.273 108.207 599.493 109.1 599.493 110.1ZM597.613 109.72C597.613 109.027 597.46 108.433 597.153 107.94C596.846 107.433 596.426 107.053 595.893 106.8C595.373 106.533 594.793 106.4 594.153 106.4C593.233 106.4 592.446 106.693 591.793 107.28C591.153 107.867 590.786 108.68 590.693 109.72H597.613ZM603.715 106.82C604.035 106.193 604.489 105.707 605.075 105.36C605.675 105.013 606.402 104.84 607.255 104.84V106.72H606.775C604.735 106.72 603.715 107.827 603.715 110.04V116H601.895V105.04H603.715V106.82Z" fill="white"/>
<circle cx="448" cy="96" r="21" fill="#FAFCFF"/>
<path d="M452.375 93.5629V92.875C452.374 92.2122 452.111 91.5767 451.642 91.1081C451.173 90.6394 450.538 90.3758 449.875 90.375H448.625V88.5H451.125C451.291 88.5002 451.45 88.5661 451.567 88.6833C451.684 88.8004 451.75 88.9593 451.75 89.125C451.75 89.2908 451.816 89.4497 451.933 89.5669C452.05 89.6842 452.209 89.75 452.375 89.75C452.541 89.75 452.7 89.6842 452.817 89.5669C452.934 89.4497 453 89.2908 453 89.125C452.999 88.6279 452.802 88.1513 452.45 87.7998C452.099 87.4483 451.622 87.2506 451.125 87.25H446.125C445.959 87.25 445.8 87.3158 445.683 87.4331C445.566 87.5503 445.5 87.7092 445.5 87.875C445.5 88.0408 445.566 88.1997 445.683 88.3169C445.8 88.4342 445.959 88.5 446.125 88.5H447.375V90.375H446.125C445.462 90.3758 444.827 90.6394 444.358 91.1081C443.889 91.5767 443.626 92.2122 443.625 92.875V93.5629C442.92 93.7079 442.286 94.0916 441.83 94.6494C441.375 95.2072 441.126 95.9049 441.125 96.625V102.875C441.125 103.206 441.257 103.524 441.492 103.758C441.726 103.993 442.044 104.125 442.375 104.125H453.625C453.956 104.125 454.274 103.993 454.508 103.758C454.743 103.524 454.875 103.206 454.875 102.875V96.625C454.874 95.9049 454.625 95.2072 454.17 94.6494C453.714 94.0916 453.08 93.7079 452.375 93.5629V93.5629ZM446.125 91.625H449.875C450.206 91.6254 450.524 91.7572 450.758 91.9915C450.993 92.2259 451.125 92.5436 451.125 92.875V93.5H444.875V92.875C444.875 92.5436 445.007 92.2259 445.242 91.9915C445.476 91.7572 445.794 91.6254 446.125 91.625Z" fill="#6E59A4"/>
<rect y="315" width="257" height="89" rx="10" fill="#FFBB47"/>
<path opacity="0.8" d="M99.602 346.114C99.602 345.162 99.8167 344.308 100.246 343.552C100.675 342.787 101.259 342.189 101.996 341.76C102.743 341.331 103.569 341.116 104.474 341.116C105.538 341.116 106.467 341.373 107.26 341.886C108.053 342.399 108.632 343.127 108.996 344.07H107.47C107.199 343.482 106.807 343.029 106.294 342.712C105.79 342.395 105.183 342.236 104.474 342.236C103.793 342.236 103.181 342.395 102.64 342.712C102.099 343.029 101.674 343.482 101.366 344.07C101.058 344.649 100.904 345.33 100.904 346.114C100.904 346.889 101.058 347.57 101.366 348.158C101.674 348.737 102.099 349.185 102.64 349.502C103.181 349.819 103.793 349.978 104.474 349.978C105.183 349.978 105.79 349.824 106.294 349.516C106.807 349.199 107.199 348.746 107.47 348.158H108.996C108.632 349.091 108.053 349.815 107.26 350.328C106.467 350.832 105.538 351.084 104.474 351.084C103.569 351.084 102.743 350.874 101.996 350.454C101.259 350.025 100.675 349.432 100.246 348.676C99.8167 347.92 99.602 347.066 99.602 346.114ZM117.696 343.328V351H116.422V349.866C116.18 350.258 115.839 350.566 115.4 350.79C114.971 351.005 114.495 351.112 113.972 351.112C113.375 351.112 112.838 350.991 112.362 350.748C111.886 350.496 111.508 350.123 111.228 349.628C110.958 349.133 110.822 348.531 110.822 347.822V343.328H112.082V347.654C112.082 348.41 112.274 348.993 112.656 349.404C113.039 349.805 113.562 350.006 114.224 350.006C114.906 350.006 115.442 349.796 115.834 349.376C116.226 348.956 116.422 348.345 116.422 347.542V343.328H117.696ZM121.122 344.574C121.346 344.135 121.663 343.795 122.074 343.552C122.494 343.309 123.002 343.188 123.6 343.188V344.504H123.264C121.836 344.504 121.122 345.279 121.122 346.828V351H119.848V343.328H121.122V344.574ZM128.416 351.126C127.698 351.126 127.044 350.963 126.456 350.636C125.878 350.309 125.42 349.847 125.084 349.25C124.758 348.643 124.594 347.943 124.594 347.15C124.594 346.366 124.762 345.675 125.098 345.078C125.444 344.471 125.91 344.009 126.498 343.692C127.086 343.365 127.744 343.202 128.472 343.202C129.2 343.202 129.858 343.365 130.446 343.692C131.034 344.009 131.496 344.467 131.832 345.064C132.178 345.661 132.35 346.357 132.35 347.15C132.35 347.943 132.173 348.643 131.818 349.25C131.473 349.847 131.002 350.309 130.404 350.636C129.807 350.963 129.144 351.126 128.416 351.126ZM128.416 350.006C128.874 350.006 129.303 349.899 129.704 349.684C130.106 349.469 130.428 349.147 130.67 348.718C130.922 348.289 131.048 347.766 131.048 347.15C131.048 346.534 130.927 346.011 130.684 345.582C130.442 345.153 130.124 344.835 129.732 344.63C129.34 344.415 128.916 344.308 128.458 344.308C127.992 344.308 127.562 344.415 127.17 344.63C126.788 344.835 126.48 345.153 126.246 345.582C126.013 346.011 125.896 346.534 125.896 347.15C125.896 347.775 126.008 348.303 126.232 348.732C126.466 349.161 126.774 349.483 127.156 349.698C127.539 349.903 127.959 350.006 128.416 350.006ZM135.299 340.64V351H134.025V340.64H135.299ZM140.817 351.126C140.098 351.126 139.445 350.963 138.857 350.636C138.278 350.309 137.821 349.847 137.485 349.25C137.158 348.643 136.995 347.943 136.995 347.15C136.995 346.366 137.163 345.675 137.499 345.078C137.844 344.471 138.311 344.009 138.899 343.692C139.487 343.365 140.145 343.202 140.873 343.202C141.601 343.202 142.259 343.365 142.847 343.692C143.435 344.009 143.897 344.467 144.233 345.064C144.578 345.661 144.751 346.357 144.751 347.15C144.751 347.943 144.573 348.643 144.219 349.25C143.873 349.847 143.402 350.309 142.805 350.636C142.207 350.963 141.545 351.126 140.817 351.126ZM140.817 350.006C141.274 350.006 141.703 349.899 142.105 349.684C142.506 349.469 142.828 349.147 143.071 348.718C143.323 348.289 143.449 347.766 143.449 347.15C143.449 346.534 143.327 346.011 143.085 345.582C142.842 345.153 142.525 344.835 142.133 344.63C141.741 344.415 141.316 344.308 140.859 344.308C140.392 344.308 139.963 344.415 139.571 344.63C139.188 344.835 138.88 345.153 138.647 345.582C138.413 346.011 138.297 346.534 138.297 347.15C138.297 347.775 138.409 348.303 138.633 348.732C138.866 349.161 139.174 349.483 139.557 349.698C139.939 349.903 140.359 350.006 140.817 350.006ZM149.59 343.202C150.252 343.202 150.831 343.347 151.326 343.636C151.83 343.925 152.203 344.289 152.446 344.728V343.328H153.734V351.168C153.734 351.868 153.584 352.489 153.286 353.03C152.987 353.581 152.558 354.01 151.998 354.318C151.447 354.626 150.803 354.78 150.066 354.78C149.058 354.78 148.218 354.542 147.546 354.066C146.874 353.59 146.477 352.941 146.356 352.12H147.616C147.756 352.587 148.045 352.96 148.484 353.24C148.922 353.529 149.45 353.674 150.066 353.674C150.766 353.674 151.335 353.455 151.774 353.016C152.222 352.577 152.446 351.961 152.446 351.168V349.558C152.194 350.006 151.82 350.379 151.326 350.678C150.831 350.977 150.252 351.126 149.59 351.126C148.908 351.126 148.288 350.958 147.728 350.622C147.177 350.286 146.743 349.815 146.426 349.208C146.108 348.601 145.95 347.911 145.95 347.136C145.95 346.352 146.108 345.666 146.426 345.078C146.743 344.481 147.177 344.019 147.728 343.692C148.288 343.365 148.908 343.202 149.59 343.202ZM152.446 347.15C152.446 346.571 152.329 346.067 152.096 345.638C151.862 345.209 151.545 344.882 151.144 344.658C150.752 344.425 150.318 344.308 149.842 344.308C149.366 344.308 148.932 344.42 148.54 344.644C148.148 344.868 147.835 345.195 147.602 345.624C147.368 346.053 147.252 346.557 147.252 347.136C147.252 347.724 147.368 348.237 147.602 348.676C147.835 349.105 148.148 349.437 148.54 349.67C148.932 349.894 149.366 350.006 149.842 350.006C150.318 350.006 150.752 349.894 151.144 349.67C151.545 349.437 151.862 349.105 152.096 348.676C152.329 348.237 152.446 347.729 152.446 347.15ZM162.495 343.328L157.875 354.612H156.559L158.071 350.916L154.977 343.328H156.391L158.799 349.544L161.179 343.328H162.495Z" fill="white"/>
<path d="M99.86 372.02C99.86 370.66 100.167 369.44 100.78 368.36C101.393 367.267 102.227 366.413 103.28 365.8C104.347 365.187 105.527 364.88 106.82 364.88C108.34 364.88 109.667 365.247 110.8 365.98C111.933 366.713 112.76 367.753 113.28 369.1H111.1C110.713 368.26 110.153 367.613 109.42 367.16C108.7 366.707 107.833 366.48 106.82 366.48C105.847 366.48 104.973 366.707 104.2 367.16C103.427 367.613 102.82 368.26 102.38 369.1C101.94 369.927 101.72 370.9 101.72 372.02C101.72 373.127 101.94 374.1 102.38 374.94C102.82 375.767 103.427 376.407 104.2 376.86C104.973 377.313 105.847 377.54 106.82 377.54C107.833 377.54 108.7 377.32 109.42 376.88C110.153 376.427 110.713 375.78 111.1 374.94H113.28C112.76 376.273 111.933 377.307 110.8 378.04C109.667 378.76 108.34 379.12 106.82 379.12C105.527 379.12 104.347 378.82 103.28 378.22C102.227 377.607 101.393 376.76 100.78 375.68C100.167 374.6 99.86 373.38 99.86 372.02ZM117.809 364.2V379H115.989V364.2H117.809ZM130.911 373.1C130.911 373.447 130.891 373.813 130.851 374.2H122.091C122.158 375.28 122.524 376.127 123.191 376.74C123.871 377.34 124.691 377.64 125.651 377.64C126.438 377.64 127.091 377.46 127.611 377.1C128.144 376.727 128.518 376.233 128.731 375.62H130.691C130.398 376.673 129.811 377.533 128.931 378.2C128.051 378.853 126.958 379.18 125.651 379.18C124.611 379.18 123.678 378.947 122.851 378.48C122.038 378.013 121.398 377.353 120.931 376.5C120.464 375.633 120.231 374.633 120.231 373.5C120.231 372.367 120.458 371.373 120.911 370.52C121.364 369.667 121.998 369.013 122.811 368.56C123.638 368.093 124.584 367.86 125.651 367.86C126.691 367.86 127.611 368.087 128.411 368.54C129.211 368.993 129.824 369.62 130.251 370.42C130.691 371.207 130.911 372.1 130.911 373.1ZM129.031 372.72C129.031 372.027 128.878 371.433 128.571 370.94C128.264 370.433 127.844 370.053 127.311 369.8C126.791 369.533 126.211 369.4 125.571 369.4C124.651 369.4 123.864 369.693 123.211 370.28C122.571 370.867 122.204 371.68 122.111 372.72H129.031ZM132.633 373.48C132.633 372.36 132.86 371.38 133.313 370.54C133.767 369.687 134.387 369.027 135.173 368.56C135.973 368.093 136.86 367.86 137.833 367.86C138.793 367.86 139.627 368.067 140.333 368.48C141.04 368.893 141.567 369.413 141.913 370.04V368.04H143.753V379H141.913V376.96C141.553 377.6 141.013 378.133 140.293 378.56C139.587 378.973 138.76 379.18 137.813 379.18C136.84 379.18 135.96 378.94 135.173 378.46C134.387 377.98 133.767 377.307 133.313 376.44C132.86 375.573 132.633 374.587 132.633 373.48ZM141.913 373.5C141.913 372.673 141.747 371.953 141.413 371.34C141.08 370.727 140.627 370.26 140.053 369.94C139.493 369.607 138.873 369.44 138.193 369.44C137.513 369.44 136.893 369.6 136.333 369.92C135.773 370.24 135.327 370.707 134.993 371.32C134.66 371.933 134.493 372.653 134.493 373.48C134.493 374.32 134.66 375.053 134.993 375.68C135.327 376.293 135.773 376.767 136.333 377.1C136.893 377.42 137.513 377.58 138.193 377.58C138.873 377.58 139.493 377.42 140.053 377.1C140.627 376.767 141.08 376.293 141.413 375.68C141.747 375.053 141.913 374.327 141.913 373.5ZM152.169 367.84C153.502 367.84 154.582 368.247 155.409 369.06C156.236 369.86 156.649 371.02 156.649 372.54V379H154.849V372.8C154.849 371.707 154.576 370.873 154.029 370.3C153.482 369.713 152.736 369.42 151.789 369.42C150.829 369.42 150.062 369.72 149.489 370.32C148.929 370.92 148.649 371.793 148.649 372.94V379H146.829V368.04H148.649V369.6C149.009 369.04 149.496 368.607 150.109 368.3C150.736 367.993 151.422 367.84 152.169 367.84ZM163.502 379.18C162.662 379.18 161.909 379.04 161.242 378.76C160.575 378.467 160.049 378.067 159.662 377.56C159.275 377.04 159.062 376.447 159.022 375.78H160.902C160.955 376.327 161.209 376.773 161.662 377.12C162.129 377.467 162.735 377.64 163.482 377.64C164.175 377.64 164.722 377.487 165.122 377.18C165.522 376.873 165.722 376.487 165.722 376.02C165.722 375.54 165.509 375.187 165.082 374.96C164.655 374.72 163.995 374.487 163.102 374.26C162.289 374.047 161.622 373.833 161.102 373.62C160.595 373.393 160.155 373.067 159.782 372.64C159.422 372.2 159.242 371.627 159.242 370.92C159.242 370.36 159.409 369.847 159.742 369.38C160.075 368.913 160.549 368.547 161.162 368.28C161.775 368 162.475 367.86 163.262 367.86C164.475 367.86 165.455 368.167 166.202 368.78C166.949 369.393 167.349 370.233 167.402 371.3H165.582C165.542 370.727 165.309 370.267 164.882 369.92C164.469 369.573 163.909 369.4 163.202 369.4C162.549 369.4 162.029 369.54 161.642 369.82C161.255 370.1 161.062 370.467 161.062 370.92C161.062 371.28 161.175 371.58 161.402 371.82C161.642 372.047 161.935 372.233 162.282 372.38C162.642 372.513 163.135 372.667 163.762 372.84C164.549 373.053 165.189 373.267 165.682 373.48C166.175 373.68 166.595 373.987 166.942 374.4C167.302 374.813 167.489 375.353 167.502 376.02C167.502 376.62 167.335 377.16 167.002 377.64C166.669 378.12 166.195 378.5 165.582 378.78C164.982 379.047 164.289 379.18 163.502 379.18ZM180.071 373.1C180.071 373.447 180.051 373.813 180.011 374.2H171.251C171.318 375.28 171.685 376.127 172.351 376.74C173.031 377.34 173.851 377.64 174.811 377.64C175.598 377.64 176.251 377.46 176.771 377.1C177.305 376.727 177.678 376.233 177.891 375.62H179.851C179.558 376.673 178.971 377.533 178.091 378.2C177.211 378.853 176.118 379.18 174.811 379.18C173.771 379.18 172.838 378.947 172.011 378.48C171.198 378.013 170.558 377.353 170.091 376.5C169.625 375.633 169.391 374.633 169.391 373.5C169.391 372.367 169.618 371.373 170.071 370.52C170.525 369.667 171.158 369.013 171.971 368.56C172.798 368.093 173.745 367.86 174.811 367.86C175.851 367.86 176.771 368.087 177.571 368.54C178.371 368.993 178.985 369.62 179.411 370.42C179.851 371.207 180.071 372.1 180.071 373.1ZM178.191 372.72C178.191 372.027 178.038 371.433 177.731 370.94C177.425 370.433 177.005 370.053 176.471 369.8C175.951 369.533 175.371 369.4 174.731 369.4C173.811 369.4 173.025 369.693 172.371 370.28C171.731 370.867 171.365 371.68 171.271 372.72H178.191ZM184.294 369.82C184.614 369.193 185.067 368.707 185.654 368.36C186.254 368.013 186.98 367.84 187.834 367.84V369.72H187.354C185.314 369.72 184.294 370.827 184.294 373.04V379H182.474V368.04H184.294V369.82Z" fill="white"/>
<circle cx="46" cy="359" r="21" fill="#FAFCFF"/>
<path d="M50.375 356.563V355.875C50.3742 355.212 50.1106 354.577 49.6419 354.108C49.1733 353.639 48.5378 353.376 47.875 353.375H46.625V351.5H49.125C49.2907 351.5 49.4496 351.566 49.5667 351.683C49.6839 351.8 49.7498 351.959 49.75 352.125C49.75 352.291 49.8158 352.45 49.9331 352.567C50.0503 352.684 50.2092 352.75 50.375 352.75C50.5408 352.75 50.6997 352.684 50.8169 352.567C50.9342 352.45 51 352.291 51 352.125C50.9994 351.628 50.8017 351.151 50.4502 350.8C50.0987 350.448 49.6221 350.251 49.125 350.25H44.125C43.9592 350.25 43.8003 350.316 43.6831 350.433C43.5658 350.55 43.5 350.709 43.5 350.875C43.5 351.041 43.5658 351.2 43.6831 351.317C43.8003 351.434 43.9592 351.5 44.125 351.5H45.375V353.375H44.125C43.4622 353.376 42.8267 353.639 42.3581 354.108C41.8894 354.577 41.6258 355.212 41.625 355.875V356.563C40.9197 356.708 40.2859 357.092 39.8305 357.649C39.3751 358.207 39.1259 358.905 39.125 359.625V365.875C39.1254 366.206 39.2572 366.524 39.4915 366.758C39.7259 366.993 40.0436 367.125 40.375 367.125H51.625C51.9564 367.125 52.2741 366.993 52.5085 366.758C52.7428 366.524 52.8746 366.206 52.875 365.875V359.625C52.8741 358.905 52.6249 358.207 52.1695 357.649C51.7141 357.092 51.0803 356.708 50.375 356.563V356.563ZM44.125 354.625H47.875C48.2064 354.625 48.5241 354.757 48.7585 354.992C48.9928 355.226 49.1246 355.544 49.125 355.875V356.5H42.875V355.875C42.8754 355.544 43.0072 355.226 43.2415 354.992C43.4759 354.757 43.7936 354.625 44.125 354.625Z" fill="#6E59A4"/>
<rect width="62" height="62" rx="5" transform="matrix(-1 0 0 1 78 0)" fill="#C0B5DE"/>
<g filter="url(#filter0_f_16_101)">
<circle cx="385" cy="342" r="7" fill="white"/>
</g>
<g filter="url(#filter1_f_16_101)">
<circle cx="180" cy="134" r="7" fill="white"/>
</g>
<circle cx="385" cy="342" r="4" fill="#FFBB47"/>
<circle cx="180" cy="134" r="4" fill="#FFBB47"/>
<rect width="33" height="33" rx="5" transform="matrix(-1 0 0 1 618 422)" fill="#6E59A4"/>
<defs>
<filter id="filter0_f_16_101" x="377" y="334" width="16" height="16" filterUnits="userSpaceOnUse" color-interpolation-filters="sRGB">
<feFlood flood-opacity="0" result="BackgroundImageFix"/>
<feBlend mode="normal" in="SourceGraphic" in2="BackgroundImageFix" result="shape"/>
<feGaussianBlur stdDeviation="0.5" result="effect1_foregroundBlur_16_101"/>
</filter>
<filter id="filter1_f_16_101" x="172" y="126" width="16" height="16" filterUnits="userSpaceOnUse" color-interpolation-filters="sRGB">
<feFlood flood-opacity="0" result="BackgroundImageFix"/>
<feBlend mode="normal" in="SourceGraphic" in2="BackgroundImageFix" result="shape"/>
<feGaussianBlur stdDeviation="0.5" result="effect1_foregroundBlur_16_101"/>
</filter>
</defs>
</svg>
