<svg width="357" height="315" viewBox="0 0 357 315" fill="none" xmlns="http://www.w3.org/2000/svg">
<rect x="12.1274" y="21.7246" width="329" height="255" rx="6.68132"/>
<path d="M211 215L211 37L172 37" stroke="#FFBB47" stroke-width="2.0044" stroke-linecap="round" stroke-dasharray="5.35 5.35"/>
<rect y="6" width="172" height="60" rx="6.68132" fill="#FFBB47"/>
<path opacity="0.8" d="M66.575 26.8733C66.575 26.1933 66.7284 25.5833 67.035 25.0433C67.3417 24.4966 67.7584 24.0699 68.285 23.7633C68.8184 23.4566 69.4084 23.3033 70.055 23.3033C70.815 23.3033 71.4784 23.4866 72.045 23.8533C72.6117 24.2199 73.025 24.7399 73.285 25.4133H72.195C72.0017 24.9933 71.7217 24.6699 71.355 24.4433C70.995 24.2166 70.5617 24.1033 70.055 24.1033C69.5684 24.1033 69.1317 24.2166 68.745 24.4433C68.3584 24.6699 68.055 24.9933 67.835 25.4133C67.615 25.8266 67.505 26.3133 67.505 26.8733C67.505 27.4266 67.615 27.9133 67.835 28.3333C68.055 28.7466 68.3584 29.0666 68.745 29.2933C69.1317 29.5199 69.5684 29.6333 70.055 29.6333C70.5617 29.6333 70.995 29.5233 71.355 29.3033C71.7217 29.0766 72.0017 28.7533 72.195 28.3333H73.285C73.025 28.9999 72.6117 29.5166 72.045 29.8833C71.4784 30.2433 70.815 30.4233 70.055 30.4233C69.4084 30.4233 68.8184 30.2733 68.285 29.9733C67.7584 29.6666 67.3417 29.2433 67.035 28.7033C66.7284 28.1633 66.575 27.5533 66.575 26.8733ZM79.4996 24.8833V30.3633H78.5896V29.5533C78.4163 29.8333 78.173 30.0533 77.8596 30.2133C77.553 30.3666 77.213 30.4433 76.8396 30.4433C76.413 30.4433 76.0296 30.3566 75.6896 30.1833C75.3496 30.0033 75.0796 29.7366 74.8796 29.3833C74.6863 29.0299 74.5896 28.5999 74.5896 28.0933V24.8833H75.4896V27.9733C75.4896 28.5133 75.6263 28.9299 75.8996 29.2233C76.173 29.5099 76.5463 29.6533 77.0196 29.6533C77.5063 29.6533 77.8896 29.5033 78.1696 29.2033C78.4496 28.9033 78.5896 28.4666 78.5896 27.8933V24.8833H79.4996ZM81.9461 25.7733C82.1061 25.4599 82.3328 25.2166 82.6261 25.0433C82.9261 24.8699 83.2894 24.7833 83.7161 24.7833V25.7233H83.4761C82.4561 25.7233 81.9461 26.2766 81.9461 27.3833V30.3633H81.0361V24.8833H81.9461V25.7733ZM87.1566 30.4533C86.6432 30.4533 86.1766 30.3366 85.7566 30.1033C85.3432 29.8699 85.0166 29.5399 84.7766 29.1133C84.5432 28.6799 84.4266 28.1799 84.4266 27.6133C84.4266 27.0533 84.5466 26.5599 84.7866 26.1333C85.0332 25.6999 85.3666 25.3699 85.7866 25.1433C86.2066 24.9099 86.6766 24.7933 87.1966 24.7933C87.7166 24.7933 88.1866 24.9099 88.6066 25.1433C89.0266 25.3699 89.3566 25.6966 89.5966 26.1233C89.8432 26.5499 89.9666 27.0466 89.9666 27.6133C89.9666 28.1799 89.8399 28.6799 89.5866 29.1133C89.3399 29.5399 89.0032 29.8699 88.5766 30.1033C88.1499 30.3366 87.6766 30.4533 87.1566 30.4533ZM87.1566 29.6533C87.4832 29.6533 87.7899 29.5766 88.0766 29.4233C88.3632 29.2699 88.5932 29.0399 88.7666 28.7333C88.9466 28.4266 89.0366 28.0533 89.0366 27.6133C89.0366 27.1733 88.9499 26.7999 88.7766 26.4933C88.6032 26.1866 88.3766 25.9599 88.0966 25.8133C87.8166 25.6599 87.5132 25.5833 87.1866 25.5833C86.8532 25.5833 86.5466 25.6599 86.2666 25.8133C85.9932 25.9599 85.7732 26.1866 85.6066 26.4933C85.4399 26.7999 85.3566 27.1733 85.3566 27.6133C85.3566 28.0599 85.4366 28.4366 85.5966 28.7433C85.7632 29.0499 85.9832 29.2799 86.2566 29.4333C86.5299 29.5799 86.8299 29.6533 87.1566 29.6533ZM92.0731 22.9633V30.3633H91.1631V22.9633H92.0731ZM96.014 30.4533C95.5007 30.4533 95.034 30.3366 94.614 30.1033C94.2007 29.8699 93.874 29.5399 93.634 29.1133C93.4007 28.6799 93.284 28.1799 93.284 27.6133C93.284 27.0533 93.404 26.5599 93.644 26.1333C93.8907 25.6999 94.224 25.3699 94.644 25.1433C95.064 24.9099 95.534 24.7933 96.054 24.7933C96.574 24.7933 97.044 24.9099 97.464 25.1433C97.884 25.3699 98.214 25.6966 98.454 26.1233C98.7007 26.5499 98.824 27.0466 98.824 27.6133C98.824 28.1799 98.6973 28.6799 98.444 29.1133C98.1973 29.5399 97.8607 29.8699 97.434 30.1033C97.0073 30.3366 96.534 30.4533 96.014 30.4533ZM96.014 29.6533C96.3407 29.6533 96.6473 29.5766 96.934 29.4233C97.2207 29.2699 97.4507 29.0399 97.624 28.7333C97.804 28.4266 97.894 28.0533 97.894 27.6133C97.894 27.1733 97.8073 26.7999 97.634 26.4933C97.4607 26.1866 97.234 25.9599 96.954 25.8133C96.674 25.6599 96.3707 25.5833 96.044 25.5833C95.7107 25.5833 95.404 25.6599 95.124 25.8133C94.8507 25.9599 94.6307 26.1866 94.464 26.4933C94.2973 26.7999 94.214 27.1733 94.214 27.6133C94.214 28.0599 94.294 28.4366 94.454 28.7433C94.6207 29.0499 94.8407 29.2799 95.114 29.4333C95.3873 29.5799 95.6873 29.6533 96.014 29.6533ZM102.28 24.7933C102.754 24.7933 103.167 24.8966 103.52 25.1033C103.88 25.3099 104.147 25.5699 104.32 25.8833V24.8833H105.24V30.4833C105.24 30.9833 105.134 31.4266 104.92 31.8133C104.707 32.2066 104.4 32.5133 104 32.7333C103.607 32.9533 103.147 33.0633 102.62 33.0633C101.9 33.0633 101.3 32.8933 100.82 32.5533C100.34 32.2133 100.057 31.7499 99.9705 31.1633H100.87C100.97 31.4966 101.177 31.7633 101.49 31.9633C101.804 32.1699 102.18 32.2733 102.62 32.2733C103.12 32.2733 103.527 32.1166 103.84 31.8033C104.16 31.4899 104.32 31.0499 104.32 30.4833V29.3333C104.14 29.6533 103.874 29.9199 103.52 30.1333C103.167 30.3466 102.754 30.4533 102.28 30.4533C101.794 30.4533 101.35 30.3333 100.95 30.0933C100.557 29.8533 100.247 29.5166 100.02 29.0833C99.7938 28.6499 99.6805 28.1566 99.6805 27.6033C99.6805 27.0433 99.7938 26.5533 100.02 26.1333C100.247 25.7066 100.557 25.3766 100.95 25.1433C101.35 24.9099 101.794 24.7933 102.28 24.7933ZM104.32 27.6133C104.32 27.1999 104.237 26.8399 104.07 26.5333C103.904 26.2266 103.677 25.9933 103.39 25.8333C103.11 25.6666 102.8 25.5833 102.46 25.5833C102.12 25.5833 101.81 25.6633 101.53 25.8233C101.25 25.9833 101.027 26.2166 100.86 26.5233C100.694 26.8299 100.61 27.1899 100.61 27.6033C100.61 28.0233 100.694 28.3899 100.86 28.7033C101.027 29.0099 101.25 29.2466 101.53 29.4133C101.81 29.5733 102.12 29.6533 102.46 29.6533C102.8 29.6533 103.11 29.5733 103.39 29.4133C103.677 29.2466 103.904 29.0099 104.07 28.7033C104.237 28.3899 104.32 28.0266 104.32 27.6133ZM111.498 24.8833L108.198 32.9433H107.258L108.338 30.3033L106.128 24.8833H107.138L108.858 29.3233L110.558 24.8833H111.498Z" fill="white"/>
<path d="M77.121 39.0467V48.7347H75.847V41.5107L72.627 48.7347H71.731L68.497 41.4967V48.7347H67.223V39.0467H68.595L72.179 47.0547L75.763 39.0467H77.121ZM82.6276 48.8607C81.9089 48.8607 81.2556 48.6974 80.6676 48.3707C80.0889 48.0441 79.6316 47.5821 79.2956 46.9847C78.9689 46.3781 78.8056 45.6781 78.8056 44.8847C78.8056 44.1007 78.9736 43.4101 79.3096 42.8127C79.6549 42.2061 80.1216 41.7441 80.7096 41.4267C81.2976 41.1001 81.9556 40.9367 82.6836 40.9367C83.4116 40.9367 84.0696 41.1001 84.6576 41.4267C85.2456 41.7441 85.7076 42.2014 86.0436 42.7987C86.3889 43.3961 86.5616 44.0914 86.5616 44.8847C86.5616 45.6781 86.3843 46.3781 86.0296 46.9847C85.6843 47.5821 85.2129 48.0441 84.6156 48.3707C84.0183 48.6974 83.3556 48.8607 82.6276 48.8607ZM82.6276 47.7407C83.0849 47.7407 83.5143 47.6334 83.9156 47.4187C84.3169 47.2041 84.6389 46.8821 84.8816 46.4527C85.1336 46.0234 85.2596 45.5007 85.2596 44.8847C85.2596 44.2687 85.1383 43.7461 84.8956 43.3167C84.6529 42.8874 84.3356 42.5701 83.9436 42.3647C83.5516 42.1501 83.1269 42.0427 82.6696 42.0427C82.2029 42.0427 81.7736 42.1501 81.3816 42.3647C80.9989 42.5701 80.6909 42.8874 80.4576 43.3167C80.2243 43.7461 80.1076 44.2687 80.1076 44.8847C80.1076 45.5101 80.2196 46.0374 80.4436 46.4667C80.6769 46.8961 80.9849 47.2181 81.3676 47.4327C81.7503 47.6381 82.1703 47.7407 82.6276 47.7407ZM88.8947 39.8167C88.652 39.8167 88.4467 39.7327 88.2787 39.5647C88.1107 39.3967 88.0267 39.1914 88.0267 38.9487C88.0267 38.7061 88.1107 38.5007 88.2787 38.3327C88.4467 38.1647 88.652 38.0807 88.8947 38.0807C89.128 38.0807 89.324 38.1647 89.4827 38.3327C89.6507 38.5007 89.7347 38.7061 89.7347 38.9487C89.7347 39.1914 89.6507 39.3967 89.4827 39.5647C89.324 39.7327 89.128 39.8167 88.8947 39.8167ZM89.5107 41.0627V48.7347H88.2367V41.0627H89.5107ZM94.398 48.8607C93.81 48.8607 93.2827 48.7627 92.816 48.5667C92.3493 48.3614 91.9807 48.0814 91.71 47.7267C91.4393 47.3627 91.29 46.9474 91.262 46.4807H92.578C92.6153 46.8634 92.7927 47.1761 93.11 47.4187C93.4367 47.6614 93.8613 47.7827 94.384 47.7827C94.8693 47.7827 95.252 47.6754 95.532 47.4607C95.812 47.2461 95.952 46.9754 95.952 46.6487C95.952 46.3127 95.8027 46.0654 95.504 45.9067C95.2053 45.7387 94.7433 45.5754 94.118 45.4167C93.5487 45.2674 93.082 45.1181 92.718 44.9687C92.3633 44.8101 92.0553 44.5814 91.794 44.2827C91.542 43.9747 91.416 43.5734 91.416 43.0787C91.416 42.6867 91.5327 42.3274 91.766 42.0007C91.9993 41.6741 92.3307 41.4174 92.76 41.2307C93.1893 41.0347 93.6793 40.9367 94.23 40.9367C95.0793 40.9367 95.7653 41.1514 96.288 41.5807C96.8107 42.0101 97.0907 42.5981 97.128 43.3447H95.854C95.826 42.9434 95.6627 42.6214 95.364 42.3787C95.0747 42.1361 94.6827 42.0147 94.188 42.0147C93.7307 42.0147 93.3667 42.1127 93.096 42.3087C92.8253 42.5047 92.69 42.7614 92.69 43.0787C92.69 43.3307 92.7693 43.5407 92.928 43.7087C93.096 43.8674 93.3013 43.9981 93.544 44.1007C93.796 44.1941 94.1413 44.3014 94.58 44.4227C95.1307 44.5721 95.5787 44.7214 95.924 44.8707C96.2693 45.0107 96.5633 45.2254 96.806 45.5147C97.058 45.8041 97.1887 46.1821 97.198 46.6487C97.198 47.0687 97.0813 47.4467 96.848 47.7827C96.6147 48.1187 96.2833 48.3847 95.854 48.5807C95.434 48.7674 94.9487 48.8607 94.398 48.8607ZM100.55 42.1127V46.6347C100.55 47.0081 100.63 47.2741 100.788 47.4327C100.947 47.5821 101.222 47.6567 101.614 47.6567H102.552V48.7347H101.404C100.695 48.7347 100.163 48.5714 99.8085 48.2447C99.4538 47.9181 99.2765 47.3814 99.2765 46.6347V42.1127H98.2825V41.0627H99.2765V39.1307H100.55V41.0627H102.552V42.1127H100.55ZM110.9 41.0627V48.7347H109.626V47.6007C109.383 47.9927 109.043 48.3007 108.604 48.5247C108.175 48.7394 107.699 48.8467 107.176 48.8467C106.579 48.8467 106.042 48.7254 105.566 48.4827C105.09 48.2307 104.712 47.8574 104.432 47.3627C104.161 46.8681 104.026 46.2661 104.026 45.5567V41.0627H105.286V45.3887C105.286 46.1447 105.477 46.7281 105.86 47.1387C106.243 47.5401 106.765 47.7407 107.428 47.7407C108.109 47.7407 108.646 47.5307 109.038 47.1107C109.43 46.6907 109.626 46.0794 109.626 45.2767V41.0627H110.9ZM114.325 42.3087C114.549 41.8701 114.866 41.5294 115.277 41.2867C115.697 41.0441 116.206 40.9227 116.803 40.9227V42.2387H116.467C115.039 42.2387 114.325 43.0134 114.325 44.5627V48.7347H113.051V41.0627H114.325V42.3087ZM118.932 39.8167C118.689 39.8167 118.484 39.7327 118.316 39.5647C118.148 39.3967 118.064 39.1914 118.064 38.9487C118.064 38.7061 118.148 38.5007 118.316 38.3327C118.484 38.1647 118.689 38.0807 118.932 38.0807C119.165 38.0807 119.361 38.1647 119.52 38.3327C119.688 38.5007 119.772 38.7061 119.772 38.9487C119.772 39.1914 119.688 39.3967 119.52 39.5647C119.361 39.7327 119.165 39.8167 118.932 39.8167ZM119.548 41.0627V48.7347H118.274V41.0627H119.548ZM122.671 47.6847H126.437V48.7347H121.215V47.6847L124.939 42.0987H121.243V41.0627H126.409V42.0987L122.671 47.6847ZM135.09 44.6047C135.09 44.8474 135.076 45.1041 135.048 45.3747H128.916C128.963 46.1307 129.22 46.7234 129.686 47.1527C130.162 47.5727 130.736 47.7827 131.408 47.7827C131.959 47.7827 132.416 47.6567 132.78 47.4047C133.154 47.1434 133.415 46.7981 133.564 46.3687H134.936C134.731 47.1061 134.32 47.7081 133.704 48.1747C133.088 48.6321 132.323 48.8607 131.408 48.8607C130.68 48.8607 130.027 48.6974 129.448 48.3707C128.879 48.0441 128.431 47.5821 128.104 46.9847C127.778 46.3781 127.614 45.6781 127.614 44.8847C127.614 44.0914 127.773 43.3961 128.09 42.7987C128.408 42.2014 128.851 41.7441 129.42 41.4267C129.999 41.1001 130.662 40.9367 131.408 40.9367C132.136 40.9367 132.78 41.0954 133.34 41.4127C133.9 41.7301 134.33 42.1687 134.628 42.7287C134.936 43.2794 135.09 43.9047 135.09 44.6047ZM133.774 44.3387C133.774 43.8534 133.667 43.4381 133.452 43.0927C133.238 42.7381 132.944 42.4721 132.57 42.2947C132.206 42.1081 131.8 42.0147 131.352 42.0147C130.708 42.0147 130.158 42.2201 129.7 42.6307C129.252 43.0414 128.996 43.6107 128.93 44.3387H133.774ZM138.046 42.3087C138.27 41.8701 138.587 41.5294 138.998 41.2867C139.418 41.0441 139.927 40.9227 140.524 40.9227V42.2387H140.188C138.76 42.2387 138.046 43.0134 138.046 44.5627V48.7347H136.772V41.0627H138.046V42.3087Z" fill="white"/>
<circle cx="30.7032" cy="35.3677" r="14" fill="#FAFCFF"/>
<path d="M34.0978 33.9952V33.5137C34.0972 33.0497 33.9127 32.6049 33.5846 32.2768C33.2566 31.9487 32.8117 31.7642 32.3478 31.7637H31.4728V30.4512H33.2228C33.3388 30.4513 33.45 30.4974 33.532 30.5795C33.614 30.6615 33.6601 30.7727 33.6603 30.8887C33.6603 31.0047 33.7064 31.116 33.7884 31.198C33.8705 31.2801 33.9817 31.3262 34.0978 31.3262C34.2138 31.3262 34.3251 31.2801 34.4071 31.198C34.4892 31.116 34.5353 31.0047 34.5353 30.8887C34.5349 30.5407 34.3965 30.2071 34.1504 29.961C33.9044 29.715 33.5708 29.5766 33.2228 29.5762H29.7228C29.6067 29.5762 29.4955 29.6223 29.4134 29.7043C29.3314 29.7864 29.2853 29.8976 29.2853 30.0137C29.2853 30.1297 29.3314 30.241 29.4134 30.323C29.4955 30.4051 29.6067 30.4512 29.7228 30.4512H30.5978V31.7637H29.7228C29.2588 31.7642 28.814 31.9487 28.4859 32.2768C28.1579 32.6049 27.9733 33.0497 27.9728 33.5137V33.9952C27.479 34.0967 27.0354 34.3653 26.7166 34.7557C26.3978 35.1462 26.2234 35.6346 26.2228 36.1387V40.5137C26.223 40.7457 26.3153 40.9681 26.4794 41.1321C26.6434 41.2961 26.8658 41.3884 27.0978 41.3887H34.9728C35.2048 41.3884 35.4272 41.2961 35.5912 41.1321C35.7552 40.9681 35.8475 40.7457 35.8478 40.5137V36.1387C35.8471 35.6346 35.6727 35.1462 35.3539 34.7557C35.0352 34.3653 34.5915 34.0967 34.0978 33.9952ZM29.7228 32.6387H32.3478C32.5798 32.6389 32.8022 32.7312 32.9662 32.8952C33.1302 33.0593 33.2225 33.2817 33.2228 33.5137V33.9512H28.8478V33.5137C28.848 33.2817 28.9403 33.0593 29.1044 32.8952C29.2684 32.7312 29.4908 32.6389 29.7228 32.6387Z" fill="#6E59A4"/>
<rect x="177" y="255" width="172" height="60" rx="6.68132" fill="#FFBB47"/>
<path opacity="0.8" d="M243.575 275.873C243.575 275.193 243.729 274.583 244.035 274.043C244.342 273.496 244.759 273.07 245.285 272.763C245.819 272.456 246.409 272.303 247.055 272.303C247.815 272.303 248.479 272.486 249.045 272.853C249.612 273.22 250.025 273.74 250.285 274.413H249.195C249.002 273.993 248.722 273.67 248.355 273.443C247.995 273.216 247.562 273.103 247.055 273.103C246.569 273.103 246.132 273.216 245.745 273.443C245.359 273.67 245.055 273.993 244.835 274.413C244.615 274.826 244.505 275.313 244.505 275.873C244.505 276.426 244.615 276.913 244.835 277.333C245.055 277.746 245.359 278.066 245.745 278.293C246.132 278.52 246.569 278.633 247.055 278.633C247.562 278.633 247.995 278.523 248.355 278.303C248.722 278.076 249.002 277.753 249.195 277.333H250.285C250.025 278 249.612 278.516 249.045 278.883C248.479 279.243 247.815 279.423 247.055 279.423C246.409 279.423 245.819 279.273 245.285 278.973C244.759 278.666 244.342 278.243 244.035 277.703C243.729 277.163 243.575 276.553 243.575 275.873ZM256.5 273.883V279.363H255.59V278.553C255.417 278.833 255.173 279.053 254.86 279.213C254.553 279.366 254.213 279.443 253.84 279.443C253.413 279.443 253.03 279.356 252.69 279.183C252.35 279.003 252.08 278.736 251.88 278.383C251.687 278.03 251.59 277.6 251.59 277.093V273.883H252.49V276.973C252.49 277.513 252.627 277.93 252.9 278.223C253.173 278.51 253.547 278.653 254.02 278.653C254.507 278.653 254.89 278.503 255.17 278.203C255.45 277.903 255.59 277.466 255.59 276.893V273.883H256.5ZM258.946 274.773C259.106 274.46 259.333 274.216 259.626 274.043C259.926 273.87 260.29 273.783 260.716 273.783V274.723H260.476C259.456 274.723 258.946 275.276 258.946 276.383V279.363H258.036V273.883H258.946V274.773ZM264.157 279.453C263.643 279.453 263.177 279.336 262.757 279.103C262.343 278.87 262.017 278.54 261.777 278.113C261.543 277.68 261.427 277.18 261.427 276.613C261.427 276.053 261.547 275.56 261.787 275.133C262.033 274.7 262.367 274.37 262.787 274.143C263.207 273.91 263.677 273.793 264.197 273.793C264.717 273.793 265.187 273.91 265.607 274.143C266.027 274.37 266.357 274.696 266.597 275.123C266.843 275.55 266.967 276.046 266.967 276.613C266.967 277.18 266.84 277.68 266.587 278.113C266.34 278.54 266.003 278.87 265.577 279.103C265.15 279.336 264.677 279.453 264.157 279.453ZM264.157 278.653C264.483 278.653 264.79 278.576 265.077 278.423C265.363 278.27 265.593 278.04 265.767 277.733C265.947 277.426 266.037 277.053 266.037 276.613C266.037 276.173 265.95 275.8 265.777 275.493C265.603 275.186 265.377 274.96 265.097 274.813C264.817 274.66 264.513 274.583 264.187 274.583C263.853 274.583 263.547 274.66 263.267 274.813C262.993 274.96 262.773 275.186 262.607 275.493C262.44 275.8 262.357 276.173 262.357 276.613C262.357 277.06 262.437 277.436 262.597 277.743C262.763 278.05 262.983 278.28 263.257 278.433C263.53 278.58 263.83 278.653 264.157 278.653ZM269.073 271.963V279.363H268.163V271.963H269.073ZM273.014 279.453C272.501 279.453 272.034 279.336 271.614 279.103C271.201 278.87 270.874 278.54 270.634 278.113C270.401 277.68 270.284 277.18 270.284 276.613C270.284 276.053 270.404 275.56 270.644 275.133C270.891 274.7 271.224 274.37 271.644 274.143C272.064 273.91 272.534 273.793 273.054 273.793C273.574 273.793 274.044 273.91 274.464 274.143C274.884 274.37 275.214 274.696 275.454 275.123C275.701 275.55 275.824 276.046 275.824 276.613C275.824 277.18 275.698 277.68 275.444 278.113C275.198 278.54 274.861 278.87 274.434 279.103C274.008 279.336 273.534 279.453 273.014 279.453ZM273.014 278.653C273.341 278.653 273.648 278.576 273.934 278.423C274.221 278.27 274.451 278.04 274.624 277.733C274.804 277.426 274.894 277.053 274.894 276.613C274.894 276.173 274.808 275.8 274.634 275.493C274.461 275.186 274.234 274.96 273.954 274.813C273.674 274.66 273.371 274.583 273.044 274.583C272.711 274.583 272.404 274.66 272.124 274.813C271.851 274.96 271.631 275.186 271.464 275.493C271.298 275.8 271.214 276.173 271.214 276.613C271.214 277.06 271.294 277.436 271.454 277.743C271.621 278.05 271.841 278.28 272.114 278.433C272.388 278.58 272.688 278.653 273.014 278.653ZM279.281 273.793C279.754 273.793 280.167 273.896 280.521 274.103C280.881 274.31 281.147 274.57 281.321 274.883V273.883H282.241V279.483C282.241 279.983 282.134 280.426 281.921 280.813C281.707 281.206 281.401 281.513 281.001 281.733C280.607 281.953 280.147 282.063 279.621 282.063C278.901 282.063 278.301 281.893 277.821 281.553C277.341 281.213 277.057 280.75 276.971 280.163H277.871C277.971 280.496 278.177 280.763 278.491 280.963C278.804 281.17 279.181 281.273 279.621 281.273C280.121 281.273 280.527 281.116 280.841 280.803C281.161 280.49 281.321 280.05 281.321 279.483V278.333C281.141 278.653 280.874 278.92 280.521 279.133C280.167 279.346 279.754 279.453 279.281 279.453C278.794 279.453 278.351 279.333 277.951 279.093C277.557 278.853 277.247 278.516 277.021 278.083C276.794 277.65 276.681 277.156 276.681 276.603C276.681 276.043 276.794 275.553 277.021 275.133C277.247 274.706 277.557 274.376 277.951 274.143C278.351 273.91 278.794 273.793 279.281 273.793ZM281.321 276.613C281.321 276.2 281.237 275.84 281.071 275.533C280.904 275.226 280.677 274.993 280.391 274.833C280.111 274.666 279.801 274.583 279.461 274.583C279.121 274.583 278.811 274.663 278.531 274.823C278.251 274.983 278.027 275.216 277.861 275.523C277.694 275.83 277.611 276.19 277.611 276.603C277.611 277.023 277.694 277.39 277.861 277.703C278.027 278.01 278.251 278.246 278.531 278.413C278.811 278.573 279.121 278.653 279.461 278.653C279.801 278.653 280.111 278.573 280.391 278.413C280.677 278.246 280.904 278.01 281.071 277.703C281.237 277.39 281.321 277.026 281.321 276.613ZM288.499 273.883L285.199 281.943H284.259L285.339 279.303L283.129 273.883H284.139L285.859 278.323L287.559 273.883H288.499Z" fill="white"/>
<path d="M243.747 292.849C243.747 291.897 243.962 291.043 244.391 290.287C244.821 289.521 245.404 288.924 246.141 288.495C246.888 288.065 247.714 287.851 248.619 287.851C249.683 287.851 250.612 288.107 251.405 288.621C252.199 289.134 252.777 289.862 253.141 290.805H251.615C251.345 290.217 250.953 289.764 250.439 289.447C249.935 289.129 249.329 288.971 248.619 288.971C247.938 288.971 247.327 289.129 246.785 289.447C246.244 289.764 245.819 290.217 245.511 290.805C245.203 291.383 245.049 292.065 245.049 292.849C245.049 293.623 245.203 294.305 245.511 294.893C245.819 295.471 246.244 295.919 246.785 296.237C247.327 296.554 247.938 296.713 248.619 296.713C249.329 296.713 249.935 296.559 250.439 296.251C250.953 295.933 251.345 295.481 251.615 294.893H253.141C252.777 295.826 252.199 296.549 251.405 297.063C250.612 297.567 249.683 297.819 248.619 297.819C247.714 297.819 246.888 297.609 246.141 297.189C245.404 296.759 244.821 296.167 244.391 295.411C243.962 294.655 243.747 293.801 243.747 292.849ZM256.312 287.375V297.735H255.038V287.375H256.312ZM265.483 293.605C265.483 293.847 265.469 294.104 265.441 294.375H259.309C259.356 295.131 259.612 295.723 260.079 296.153C260.555 296.573 261.129 296.783 261.801 296.783C262.352 296.783 262.809 296.657 263.173 296.405C263.546 296.143 263.808 295.798 263.957 295.369H265.329C265.124 296.106 264.713 296.708 264.097 297.175C263.481 297.632 262.716 297.861 261.801 297.861C261.073 297.861 260.42 297.697 259.841 297.371C259.272 297.044 258.824 296.582 258.497 295.985C258.17 295.378 258.007 294.678 258.007 293.885C258.007 293.091 258.166 292.396 258.483 291.799C258.8 291.201 259.244 290.744 259.813 290.427C260.392 290.1 261.054 289.937 261.801 289.937C262.529 289.937 263.173 290.095 263.733 290.413C264.293 290.73 264.722 291.169 265.021 291.729C265.329 292.279 265.483 292.905 265.483 293.605ZM264.167 293.339C264.167 292.853 264.06 292.438 263.845 292.093C263.63 291.738 263.336 291.472 262.963 291.295C262.599 291.108 262.193 291.015 261.745 291.015C261.101 291.015 260.55 291.22 260.093 291.631C259.645 292.041 259.388 292.611 259.323 293.339H264.167ZM266.689 293.871C266.689 293.087 266.847 292.401 267.165 291.813C267.482 291.215 267.916 290.753 268.467 290.427C269.027 290.1 269.647 289.937 270.329 289.937C271.001 289.937 271.584 290.081 272.079 290.371C272.573 290.66 272.942 291.024 273.185 291.463V290.063H274.473V297.735H273.185V296.307C272.933 296.755 272.555 297.128 272.051 297.427C271.556 297.716 270.977 297.861 270.315 297.861C269.633 297.861 269.017 297.693 268.467 297.357C267.916 297.021 267.482 296.549 267.165 295.943C266.847 295.336 266.689 294.645 266.689 293.871ZM273.185 293.885C273.185 293.306 273.068 292.802 272.835 292.373C272.601 291.943 272.284 291.617 271.883 291.393C271.491 291.159 271.057 291.043 270.581 291.043C270.105 291.043 269.671 291.155 269.279 291.379C268.887 291.603 268.574 291.929 268.341 292.359C268.107 292.788 267.991 293.292 267.991 293.871C267.991 294.459 268.107 294.972 268.341 295.411C268.574 295.84 268.887 296.171 269.279 296.405C269.671 296.629 270.105 296.741 270.581 296.741C271.057 296.741 271.491 296.629 271.883 296.405C272.284 296.171 272.601 295.84 272.835 295.411C273.068 294.972 273.185 294.463 273.185 293.885ZM280.364 289.923C281.297 289.923 282.053 290.207 282.632 290.777C283.21 291.337 283.5 292.149 283.5 293.213V297.735H282.24V293.395C282.24 292.629 282.048 292.046 281.666 291.645C281.283 291.234 280.76 291.029 280.098 291.029C279.426 291.029 278.889 291.239 278.488 291.659C278.096 292.079 277.9 292.69 277.9 293.493V297.735H276.626V290.063H277.9V291.155C278.152 290.763 278.492 290.459 278.922 290.245C279.36 290.03 279.841 289.923 280.364 289.923ZM288.297 297.861C287.709 297.861 287.181 297.763 286.715 297.567C286.248 297.361 285.879 297.081 285.609 296.727C285.338 296.363 285.189 295.947 285.161 295.481H286.477C286.514 295.863 286.691 296.176 287.009 296.419C287.335 296.661 287.76 296.783 288.283 296.783C288.768 296.783 289.151 296.675 289.431 296.461C289.711 296.246 289.851 295.975 289.851 295.649C289.851 295.313 289.701 295.065 289.403 294.907C289.104 294.739 288.642 294.575 288.017 294.417C287.447 294.267 286.981 294.118 286.617 293.969C286.262 293.81 285.954 293.581 285.693 293.283C285.441 292.975 285.315 292.573 285.315 292.079C285.315 291.687 285.431 291.327 285.665 291.001C285.898 290.674 286.229 290.417 286.659 290.231C287.088 290.035 287.578 289.937 288.129 289.937C288.978 289.937 289.664 290.151 290.187 290.581C290.709 291.01 290.989 291.598 291.027 292.345H289.753C289.725 291.943 289.561 291.621 289.263 291.379C288.973 291.136 288.581 291.015 288.087 291.015C287.629 291.015 287.265 291.113 286.995 291.309C286.724 291.505 286.589 291.761 286.589 292.079C286.589 292.331 286.668 292.541 286.827 292.709C286.995 292.867 287.2 292.998 287.443 293.101C287.695 293.194 288.04 293.301 288.479 293.423C289.029 293.572 289.477 293.721 289.823 293.871C290.168 294.011 290.462 294.225 290.705 294.515C290.957 294.804 291.087 295.182 291.097 295.649C291.097 296.069 290.98 296.447 290.747 296.783C290.513 297.119 290.182 297.385 289.753 297.581C289.333 297.767 288.847 297.861 288.297 297.861ZM299.895 293.605C299.895 293.847 299.881 294.104 299.853 294.375H293.721C293.768 295.131 294.024 295.723 294.491 296.153C294.967 296.573 295.541 296.783 296.213 296.783C296.764 296.783 297.221 296.657 297.585 296.405C297.958 296.143 298.22 295.798 298.369 295.369H299.741C299.536 296.106 299.125 296.708 298.509 297.175C297.893 297.632 297.128 297.861 296.213 297.861C295.485 297.861 294.832 297.697 294.253 297.371C293.684 297.044 293.236 296.582 292.909 295.985C292.582 295.378 292.419 294.678 292.419 293.885C292.419 293.091 292.578 292.396 292.895 291.799C293.212 291.201 293.656 290.744 294.225 290.427C294.804 290.1 295.466 289.937 296.213 289.937C296.941 289.937 297.585 290.095 298.145 290.413C298.705 290.73 299.134 291.169 299.433 291.729C299.741 292.279 299.895 292.905 299.895 293.605ZM298.579 293.339C298.579 292.853 298.472 292.438 298.257 292.093C298.042 291.738 297.748 291.472 297.375 291.295C297.011 291.108 296.605 291.015 296.157 291.015C295.513 291.015 294.962 291.22 294.505 291.631C294.057 292.041 293.8 292.611 293.735 293.339H298.579ZM302.851 291.309C303.075 290.87 303.392 290.529 303.803 290.287C304.223 290.044 304.731 289.923 305.329 289.923V291.239H304.993C303.565 291.239 302.851 292.013 302.851 293.563V297.735H301.577V290.063H302.851V291.309Z" fill="white"/>
<circle cx="207.703" cy="284.368" r="14" fill="#FAFCFF"/>
<path d="M211.1 282.996V282.514C211.099 282.05 210.915 281.605 210.587 281.277C210.259 280.949 209.814 280.765 209.35 280.764H208.475V279.452H210.225C210.341 279.452 210.452 279.498 210.534 279.58C210.616 279.662 210.662 279.773 210.662 279.889C210.662 280.005 210.709 280.116 210.791 280.198C210.873 280.28 210.984 280.327 211.1 280.327C211.216 280.327 211.327 280.28 211.409 280.198C211.491 280.116 211.537 280.005 211.537 279.889C211.537 279.541 211.399 279.207 211.153 278.961C210.907 278.715 210.573 278.577 210.225 278.577H206.725C206.609 278.577 206.498 278.623 206.416 278.705C206.334 278.787 206.287 278.898 206.287 279.014C206.287 279.13 206.334 279.241 206.416 279.323C206.498 279.405 206.609 279.452 206.725 279.452H207.6V280.764H206.725C206.261 280.765 205.816 280.949 205.488 281.277C205.16 281.605 204.976 282.05 204.975 282.514V282.996C204.481 283.097 204.038 283.366 203.719 283.756C203.4 284.147 203.226 284.635 203.225 285.139V289.514C203.225 289.746 203.318 289.968 203.482 290.132C203.646 290.297 203.868 290.389 204.1 290.389H211.975C212.207 290.389 212.429 290.297 212.593 290.132C212.757 289.968 212.85 289.746 212.85 289.514V285.139C212.849 284.635 212.675 284.147 212.356 283.756C212.037 283.366 211.594 283.097 211.1 282.996ZM206.725 281.639H209.35C209.582 281.639 209.804 281.732 209.968 281.896C210.132 282.06 210.225 282.282 210.225 282.514V282.952H205.85V282.514C205.85 282.282 205.943 282.06 206.107 281.896C206.271 281.732 206.493 281.639 206.725 281.639Z" fill="#6E59A4"/>
<rect width="42" height="42" rx="3.34066" transform="matrix(-1 0 0 1 356.424 0)" fill="#C0B5DE"/>
<rect width="22" height="22" rx="3.34066" transform="matrix(-1 0 0 1 28.0483 267)" fill="#6E59A4"/>
<g filter="url(#filter0_f_0_74)">
<circle cx="212" cy="224" r="5" fill="white"/>
</g>
<g filter="url(#filter1_f_0_74)">
<circle cx="74.5869" cy="84.8535" r="5" fill="white"/>
</g>
<circle cx="212" cy="224" r="3" fill="#FFBB47"/>
<circle cx="74.5913" cy="84.8574" r="3" fill="#FFBB47"/>
<path d="M74 90V288H176" stroke="#FFBB47" stroke-width="2.0044" stroke-linecap="round" stroke-dasharray="5.35 5.35"/>
<defs>
<filter id="filter0_f_0_74" x="206.332" y="218.332" width="11.3363" height="11.3363" filterUnits="userSpaceOnUse" color-interpolation-filters="sRGB">
<feFlood flood-opacity="0" result="BackgroundImageFix"/>
<feBlend mode="normal" in="SourceGraphic" in2="BackgroundImageFix" result="shape"/>
<feGaussianBlur stdDeviation="0.334066" result="effect1_foregroundBlur_0_74"/>
</filter>
<filter id="filter1_f_0_74" x="68.9188" y="79.1854" width="11.3363" height="11.3363" filterUnits="userSpaceOnUse" color-interpolation-filters="sRGB">
<feFlood flood-opacity="0" result="BackgroundImageFix"/>
<feBlend mode="normal" in="SourceGraphic" in2="BackgroundImageFix" result="shape"/>
<feGaussianBlur stdDeviation="0.334066" result="effect1_foregroundBlur_0_74"/>
</filter>
</defs>
</svg>
