<svg width="35" height="35" viewBox="0 0 35 35" fill="none" xmlns="http://www.w3.org/2000/svg">
<circle cx="17.5" cy="17.5" r="17.5" fill="#6E59A4"/>
<g opacity="0.5">
<path d="M17.5 20.125C18.9497 20.125 20.125 18.9497 20.125 17.5C20.125 16.0503 18.9497 14.875 17.5 14.875C16.0503 14.875 14.875 16.0503 14.875 17.5C14.875 18.9497 16.0503 20.125 17.5 20.125Z" fill="white"/>
<path d="M21.1094 9.29688H13.8906C12.6727 9.29825 11.5051 9.78268 10.6439 10.6439C9.78268 11.5051 9.29825 12.6727 9.29688 13.8906V21.1094C9.29825 22.3273 9.78268 23.4949 10.6439 24.3561C11.5051 25.2173 12.6727 25.7017 13.8906 25.7031H21.1094C22.3273 25.7017 23.4949 25.2173 24.3561 24.3561C25.2173 23.4949 25.7017 22.3273 25.7031 21.1094V13.8906C25.7017 12.6727 25.2173 11.5051 24.3561 10.6439C23.4949 9.78268 22.3273 9.29825 21.1094 9.29688V9.29688ZM17.5 21.4375C16.7212 21.4375 15.96 21.2066 15.3124 20.7739C14.6649 20.3413 14.1602 19.7263 13.8622 19.0068C13.5642 18.2873 13.4862 17.4956 13.6382 16.7318C13.7901 15.968 14.1651 15.2664 14.7158 14.7158C15.2664 14.1651 15.968 13.7901 16.7318 13.6382C17.4956 13.4862 18.2873 13.5642 19.0068 13.8622C19.7263 14.1602 20.3413 14.6649 20.7739 15.3124C21.2066 15.96 21.4375 16.7212 21.4375 17.5C21.4363 18.5439 21.0211 19.5448 20.2829 20.2829C19.5448 21.0211 18.5439 21.4363 17.5 21.4375V21.4375ZM21.7656 14.2188C21.5709 14.2188 21.3806 14.161 21.2187 14.0529C21.0569 13.9447 20.9307 13.791 20.8562 13.6111C20.7817 13.4312 20.7622 13.2333 20.8002 13.0423C20.8381 12.8514 20.9319 12.676 21.0696 12.5383C21.2072 12.4006 21.3826 12.3069 21.5736 12.2689C21.7645 12.2309 21.9625 12.2504 22.1423 12.3249C22.3222 12.3994 22.4759 12.5256 22.5841 12.6875C22.6923 12.8494 22.75 13.0397 22.75 13.2344C22.75 13.4954 22.6463 13.7458 22.4617 13.9304C22.2771 14.115 22.0267 14.2188 21.7656 14.2188Z" fill="white"/>
</g>
</svg>
