<svg width="128" height="53" viewBox="0 0 128 53" fill="none" xmlns="http://www.w3.org/2000/svg">
<rect width="68" height="53" rx="26" fill="#6E59A4"/>
<path d="M4.075 27.275C4.075 25.575 4.45833 24.05 5.225 22.7C5.99167 21.3333 7.03333 20.2667 8.35 19.5C9.68333 18.7333 11.1583 18.35 12.775 18.35C14.675 18.35 16.3333 18.8083 17.75 19.725C19.1667 20.6417 20.2 21.9417 20.85 23.625H18.125C17.6417 22.575 16.9417 21.7667 16.025 21.2C15.125 20.6333 14.0417 20.35 12.775 20.35C11.5583 20.35 10.4667 20.6333 9.5 21.2C8.53333 21.7667 7.775 22.575 7.225 23.625C6.675 24.6583 6.4 25.875 6.4 27.275C6.4 28.6583 6.675 29.875 7.225 30.925C7.775 31.9583 8.53333 32.7583 9.5 33.325C10.4667 33.8917 11.5583 34.175 12.775 34.175C14.0417 34.175 15.125 33.9 16.025 33.35C16.9417 32.7833 17.6417 31.975 18.125 30.925H20.85C20.2 32.5917 19.1667 33.8833 17.75 34.8C16.3333 35.7 14.675 36.15 12.775 36.15C11.1583 36.15 9.68333 35.775 8.35 35.025C7.03333 34.2583 5.99167 33.2 5.225 31.85C4.45833 30.5 4.075 28.975 4.075 27.275ZM36.3865 22.3V36H34.1115V33.975C33.6782 34.675 33.0699 35.225 32.2865 35.625C31.5199 36.0083 30.6699 36.2 29.7365 36.2C28.6699 36.2 27.7115 35.9833 26.8615 35.55C26.0115 35.1 25.3365 34.4333 24.8365 33.55C24.3532 32.6667 24.1115 31.5917 24.1115 30.325V22.3H26.3615V30.025C26.3615 31.375 26.7032 32.4167 27.3865 33.15C28.0699 33.8667 29.0032 34.225 30.1865 34.225C31.4032 34.225 32.3615 33.85 33.0615 33.1C33.7615 32.35 34.1115 31.2583 34.1115 29.825V22.3H36.3865ZM42.5027 24.525C42.9027 23.7417 43.4694 23.1333 44.2027 22.7C44.9527 22.2667 45.8611 22.05 46.9277 22.05V24.4H46.3277C43.7777 24.4 42.5027 25.7833 42.5027 28.55V36H40.2277V22.3H42.5027V24.525ZM55.5289 36.225C54.2456 36.225 53.0789 35.9333 52.0289 35.35C50.9956 34.7667 50.1789 33.9417 49.5789 32.875C48.9956 31.7917 48.7039 30.5417 48.7039 29.125C48.7039 27.725 49.0039 26.4917 49.6039 25.425C50.2206 24.3417 51.0539 23.5167 52.1039 22.95C53.1539 22.3667 54.3289 22.075 55.6289 22.075C56.9289 22.075 58.1039 22.3667 59.1539 22.95C60.2039 23.5167 61.0289 24.3333 61.6289 25.4C62.2456 26.4667 62.5539 27.7083 62.5539 29.125C62.5539 30.5417 62.2372 31.7917 61.6039 32.875C60.9872 33.9417 60.1456 34.7667 59.0789 35.35C58.0122 35.9333 56.8289 36.225 55.5289 36.225ZM55.5289 34.225C56.3456 34.225 57.1122 34.0333 57.8289 33.65C58.5456 33.2667 59.1206 32.6917 59.5539 31.925C60.0039 31.1583 60.2289 30.225 60.2289 29.125C60.2289 28.025 60.0122 27.0917 59.5789 26.325C59.1456 25.5583 58.5789 24.9917 57.8789 24.625C57.1789 24.2417 56.4206 24.05 55.6039 24.05C54.7706 24.05 54.0039 24.2417 53.3039 24.625C52.6206 24.9917 52.0706 25.5583 51.6539 26.325C51.2372 27.0917 51.0289 28.025 51.0289 29.125C51.0289 30.2417 51.2289 31.1833 51.6289 31.95C52.0456 32.7167 52.5956 33.2917 53.2789 33.675C53.9622 34.0417 54.7122 34.225 55.5289 34.225Z" fill="white"/>
<path d="M78.2 17.5V36H75.925V17.5H78.2ZM88.0523 36.225C86.769 36.225 85.6023 35.9333 84.5523 35.35C83.519 34.7667 82.7023 33.9417 82.1023 32.875C81.519 31.7917 81.2273 30.5417 81.2273 29.125C81.2273 27.725 81.5273 26.4917 82.1273 25.425C82.744 24.3417 83.5773 23.5167 84.6273 22.95C85.6773 22.3667 86.8523 22.075 88.1523 22.075C89.4523 22.075 90.6273 22.3667 91.6773 22.95C92.7273 23.5167 93.5523 24.3333 94.1523 25.4C94.769 26.4667 95.0773 27.7083 95.0773 29.125C95.0773 30.5417 94.7607 31.7917 94.1273 32.875C93.5107 33.9417 92.669 34.7667 91.6023 35.35C90.5357 35.9333 89.3523 36.225 88.0523 36.225ZM88.0523 34.225C88.869 34.225 89.6357 34.0333 90.3523 33.65C91.069 33.2667 91.644 32.6917 92.0773 31.925C92.5273 31.1583 92.7523 30.225 92.7523 29.125C92.7523 28.025 92.5357 27.0917 92.1023 26.325C91.669 25.5583 91.1023 24.9917 90.4023 24.625C89.7023 24.2417 88.944 24.05 88.1273 24.05C87.294 24.05 86.5273 24.2417 85.8273 24.625C85.144 24.9917 84.594 25.5583 84.1773 26.325C83.7607 27.0917 83.5523 28.025 83.5523 29.125C83.5523 30.2417 83.7523 31.1833 84.1523 31.95C84.569 32.7167 85.119 33.2917 85.8023 33.675C86.4857 34.0417 87.2357 34.225 88.0523 34.225ZM103.719 22.075C104.902 22.075 105.935 22.3333 106.819 22.85C107.719 23.3667 108.385 24.0167 108.819 24.8V22.3H111.119V36.3C111.119 37.55 110.852 38.6583 110.319 39.625C109.785 40.6083 109.019 41.375 108.019 41.925C107.035 42.475 105.885 42.75 104.569 42.75C102.769 42.75 101.269 42.325 100.069 41.475C98.8686 40.625 98.1602 39.4667 97.9436 38H100.194C100.444 38.8333 100.96 39.5 101.744 40C102.527 40.5167 103.469 40.775 104.569 40.775C105.819 40.775 106.835 40.3833 107.619 39.6C108.419 38.8167 108.819 37.7167 108.819 36.3V33.425C108.369 34.225 107.702 34.8917 106.819 35.425C105.935 35.9583 104.902 36.225 103.719 36.225C102.502 36.225 101.394 35.925 100.394 35.325C99.4102 34.725 98.6352 33.8833 98.0686 32.8C97.5019 31.7167 97.2186 30.4833 97.2186 29.1C97.2186 27.7 97.5019 26.475 98.0686 25.425C98.6352 24.3583 99.4102 23.5333 100.394 22.95C101.394 22.3667 102.502 22.075 103.719 22.075ZM108.819 29.125C108.819 28.0917 108.61 27.1917 108.194 26.425C107.777 25.6583 107.21 25.075 106.494 24.675C105.794 24.2583 105.019 24.05 104.169 24.05C103.319 24.05 102.544 24.25 101.844 24.65C101.144 25.05 100.585 25.6333 100.169 26.4C99.7519 27.1667 99.5436 28.0667 99.5436 29.1C99.5436 30.15 99.7519 31.0667 100.169 31.85C100.585 32.6167 101.144 33.2083 101.844 33.625C102.544 34.025 103.319 34.225 104.169 34.225C105.019 34.225 105.794 34.025 106.494 33.625C107.21 33.2083 107.777 32.6167 108.194 31.85C108.61 31.0667 108.819 30.1583 108.819 29.125ZM126.763 22.3L118.513 42.45H116.163L118.863 35.85L113.338 22.3H115.863L120.163 33.4L124.413 22.3H126.763Z" fill="white"/>
</svg>
