<svg width="84" height="34" viewBox="0 0 84 34" fill="none" xmlns="http://www.w3.org/2000/svg">
<rect width="44.625" height="34" rx="17" fill="#6E59A4"/>
<path d="M2.67422 17.4063C2.67422 16.2907 2.92578 15.2899 3.42891 14.404C3.93203 13.5071 4.61563 12.8071 5.47969 12.304C6.35469 11.8008 7.32266 11.5493 8.38359 11.5493C9.63047 11.5493 10.7188 11.85 11.6484 12.4516C12.5781 13.0532 13.2563 13.9063 13.6828 15.011H11.8945C11.5773 14.3219 11.118 13.7915 10.5164 13.4196C9.92578 13.0477 9.21484 12.8618 8.38359 12.8618C7.58516 12.8618 6.86875 13.0477 6.23438 13.4196C5.6 13.7915 5.10234 14.3219 4.74141 15.011C4.38047 15.6891 4.2 16.4875 4.2 17.4063C4.2 18.3141 4.38047 19.1125 4.74141 19.8016C5.10234 20.4797 5.6 21.0047 6.23438 21.3766C6.86875 21.7485 7.58516 21.9344 8.38359 21.9344C9.21484 21.9344 9.92578 21.754 10.5164 21.393C11.118 21.0211 11.5773 20.4907 11.8945 19.8016H13.6828C13.2563 20.8954 12.5781 21.743 11.6484 22.3446C10.7188 22.9352 9.63047 23.2305 8.38359 23.2305C7.32266 23.2305 6.35469 22.9844 5.47969 22.4922C4.61563 21.9891 3.93203 21.2946 3.42891 20.4086C2.92578 19.5227 2.67422 18.5219 2.67422 17.4063ZM23.8787 14.1415V23.1321H22.3857V21.8032C22.1013 22.2625 21.7021 22.6235 21.188 22.886C20.6849 23.1375 20.1271 23.2633 19.5146 23.2633C18.8146 23.2633 18.1857 23.1211 17.6279 22.8368C17.0701 22.5415 16.6271 22.104 16.299 21.5243C15.9818 20.9446 15.8232 20.2391 15.8232 19.4079V14.1415H17.2997V19.211C17.2997 20.0969 17.524 20.7805 17.9724 21.2618C18.4208 21.7321 19.0333 21.9672 19.8099 21.9672C20.6083 21.9672 21.2372 21.7211 21.6966 21.229C22.156 20.7368 22.3857 20.0204 22.3857 19.0797V14.1415H23.8787ZM27.8924 15.6016C28.1549 15.0875 28.5268 14.6883 29.008 14.404C29.5002 14.1196 30.0963 13.9774 30.7963 13.9774V15.5196H30.4026C28.7291 15.5196 27.8924 16.4274 27.8924 18.243V23.1321H26.3995V14.1415H27.8924V15.6016ZM36.4408 23.2797C35.5987 23.2797 34.833 23.0883 34.144 22.7055C33.4658 22.3227 32.9299 21.7813 32.5362 21.0813C32.1533 20.3704 31.9619 19.55 31.9619 18.6204C31.9619 17.7016 32.1588 16.8922 32.5526 16.1922C32.9573 15.4813 33.5041 14.9399 34.1932 14.568C34.8823 14.1852 35.6533 13.9938 36.5065 13.9938C37.3596 13.9938 38.1307 14.1852 38.8198 14.568C39.5088 14.9399 40.0502 15.4758 40.444 16.1758C40.8487 16.8758 41.051 17.6907 41.051 18.6204C41.051 19.55 40.8432 20.3704 40.4276 21.0813C40.0229 21.7813 39.4705 22.3227 38.7705 22.7055C38.0705 23.0883 37.294 23.2797 36.4408 23.2797ZM36.4408 21.9672C36.9768 21.9672 37.4799 21.8415 37.9502 21.5899C38.4205 21.3383 38.7979 20.961 39.0823 20.4579C39.3776 19.9547 39.5252 19.3422 39.5252 18.6204C39.5252 17.8985 39.383 17.286 39.0987 16.7829C38.8143 16.2797 38.4424 15.9079 37.983 15.6672C37.5237 15.4157 37.026 15.2899 36.4901 15.2899C35.9432 15.2899 35.4401 15.4157 34.9807 15.6672C34.5323 15.9079 34.1713 16.2797 33.8979 16.7829C33.6244 17.286 33.4877 17.8985 33.4877 18.6204C33.4877 19.3532 33.619 19.9711 33.8815 20.4743C34.1549 20.9774 34.5158 21.3547 34.9643 21.6063C35.4127 21.8469 35.9049 21.9672 36.4408 21.9672Z" fill="white"/>
<path d="M51.3188 10.9915V23.1321H49.8258V10.9915H51.3188ZM57.7844 23.2797C56.9422 23.2797 56.1765 23.0883 55.4875 22.7055C54.8094 22.3227 54.2734 21.7813 53.8797 21.0813C53.4969 20.3704 53.3054 19.55 53.3054 18.6204C53.3054 17.7016 53.5023 16.8922 53.8961 16.1922C54.3008 15.4813 54.8476 14.9399 55.5367 14.568C56.2258 14.1852 56.9969 13.9938 57.85 13.9938C58.7031 13.9938 59.4742 14.1852 60.1633 14.568C60.8523 14.9399 61.3937 15.4758 61.7875 16.1758C62.1922 16.8758 62.3945 17.6907 62.3945 18.6204C62.3945 19.55 62.1867 20.3704 61.7711 21.0813C61.3664 21.7813 60.814 22.3227 60.114 22.7055C59.414 23.0883 58.6375 23.2797 57.7844 23.2797ZM57.7844 21.9672C58.3203 21.9672 58.8234 21.8415 59.2937 21.5899C59.764 21.3383 60.1414 20.961 60.4258 20.4579C60.7211 19.9547 60.8687 19.3422 60.8687 18.6204C60.8687 17.8985 60.7265 17.286 60.4422 16.7829C60.1578 16.2797 59.7859 15.9079 59.3265 15.6672C58.8672 15.4157 58.3695 15.2899 57.8336 15.2899C57.2867 15.2899 56.7836 15.4157 56.3242 15.6672C55.8758 15.9079 55.5148 16.2797 55.2414 16.7829C54.9679 17.286 54.8312 17.8985 54.8312 18.6204C54.8312 19.3532 54.9625 19.9711 55.225 20.4743C55.4984 20.9774 55.8594 21.3547 56.3078 21.6063C56.7562 21.8469 57.2484 21.9672 57.7844 21.9672ZM68.0653 13.9938C68.8419 13.9938 69.52 14.1633 70.0997 14.5024C70.6903 14.8415 71.1278 15.268 71.4122 15.7821V14.1415H72.9216V23.329C72.9216 24.1493 72.7466 24.8766 72.3966 25.511C72.0466 26.1563 71.5434 26.6594 70.8872 27.0204C70.2419 27.3813 69.4872 27.5618 68.6231 27.5618C67.4419 27.5618 66.4575 27.2829 65.67 26.725C64.8825 26.1672 64.4176 25.4071 64.2755 24.4446H65.752C65.9161 24.9915 66.2551 25.429 66.7692 25.7571C67.2833 26.0961 67.9012 26.2657 68.6231 26.2657C69.4434 26.2657 70.1106 26.0086 70.6247 25.4946C71.1497 24.9805 71.4122 24.2586 71.4122 23.329V21.4422C71.1169 21.9672 70.6794 22.4047 70.0997 22.7547C69.52 23.1047 68.8419 23.2797 68.0653 23.2797C67.2669 23.2797 66.5395 23.0829 65.8833 22.6891C65.238 22.2954 64.7294 21.743 64.3575 21.0321C63.9856 20.3211 63.7997 19.5118 63.7997 18.604C63.7997 17.6852 63.9856 16.8813 64.3575 16.1922C64.7294 15.4922 65.238 14.9508 65.8833 14.568C66.5395 14.1852 67.2669 13.9938 68.0653 13.9938ZM71.4122 18.6204C71.4122 17.9422 71.2755 17.3516 71.002 16.8485C70.7286 16.3454 70.3567 15.9625 69.8864 15.7C69.427 15.4266 68.9184 15.2899 68.3606 15.2899C67.8028 15.2899 67.2942 15.4211 66.8348 15.6836C66.3755 15.9461 66.0091 16.329 65.7356 16.8321C65.4622 17.3352 65.3255 17.9258 65.3255 18.604C65.3255 19.293 65.4622 19.8946 65.7356 20.4086C66.0091 20.9118 66.3755 21.3 66.8348 21.5735C67.2942 21.836 67.8028 21.9672 68.3606 21.9672C68.9184 21.9672 69.427 21.836 69.8864 21.5735C70.3567 21.3 70.7286 20.9118 71.002 20.4086C71.2755 19.8946 71.4122 19.2985 71.4122 18.6204ZM83.1883 14.1415L77.7742 27.3649H76.232L78.0039 23.0336L74.3781 14.1415H76.0352L78.857 21.4258L81.6461 14.1415H83.1883Z" fill="#6E59A4"/>
</svg>
