<svg width="24" height="24" viewBox="0 0 24 24" fill="none" xmlns="http://www.w3.org/2000/svg">
<path d="M20.2499 11.25H3.74988C3.55097 11.25 3.3602 11.3291 3.21955 11.4697C3.0789 11.6104 2.99988 11.8011 2.99988 12C2.99988 12.199 3.0789 12.3897 3.21955 12.5304C3.3602 12.671 3.55097 12.75 3.74988 12.75H20.2499C20.4488 12.75 20.6396 12.671 20.7802 12.5304C20.9209 12.3897 20.9999 12.199 20.9999 12C20.9999 11.8011 20.9209 11.6104 20.7802 11.4697C20.6396 11.3291 20.4488 11.25 20.2499 11.25Z" fill="#19183A"/>
<path d="M3.74988 6.75005H20.2499C20.4488 6.75005 20.6396 6.67103 20.7802 6.53038C20.9209 6.38972 20.9999 6.19896 20.9999 6.00005C20.9999 5.80113 20.9209 5.61037 20.7802 5.46972C20.6396 5.32906 20.4488 5.25005 20.2499 5.25005H3.74988C3.55097 5.25005 3.3602 5.32906 3.21955 5.46972C3.0789 5.61037 2.99988 5.80113 2.99988 6.00005C2.99988 6.19896 3.0789 6.38972 3.21955 6.53038C3.3602 6.67103 3.55097 6.75005 3.74988 6.75005V6.75005Z" fill="#19183A"/>
<path d="M20.2499 17.25H3.74988C3.55097 17.25 3.3602 17.3291 3.21955 17.4697C3.0789 17.6104 2.99988 17.8011 2.99988 18C2.99988 18.199 3.0789 18.3897 3.21955 18.5304C3.3602 18.671 3.55097 18.75 3.74988 18.75H20.2499C20.4488 18.75 20.6396 18.671 20.7802 18.5304C20.9209 18.3897 20.9999 18.199 20.9999 18C20.9999 17.8011 20.9209 17.6104 20.7802 17.4697C20.6396 17.3291 20.4488 17.25 20.2499 17.25Z" fill="#19183A"/>
</svg>
