<svg width="52" height="52" viewBox="0 0 52 52" fill="none" xmlns="http://www.w3.org/2000/svg">
<circle cx="26" cy="26" r="26" fill="white"/>
<path d="M35.4538 20.9162C35.4513 20.9114 35.4493 20.9066 35.4466 20.9018C35.4455 20.8998 35.4441 20.898 35.4429 20.896C35.3031 20.6561 35.1018 20.4578 34.8597 20.3216L26.2661 15.4876C26.0319 15.3569 25.7682 15.2883 25.5 15.2883C25.2319 15.2883 24.9682 15.3569 24.734 15.4876L16.1402 20.3217C15.8972 20.4585 15.6954 20.6578 15.5555 20.899C15.554 20.9016 15.5522 20.904 15.5507 20.9067C15.5483 20.9109 15.5466 20.9154 15.5443 20.9197C15.4131 21.1529 15.344 21.4159 15.3438 21.6835V31.3165C15.344 31.5937 15.4178 31.8659 15.5578 32.1052C15.6977 32.3445 15.8987 32.5423 16.1403 32.6784L24.7341 37.5124C24.9506 37.6334 25.1928 37.7011 25.4406 37.7098C25.4584 37.7112 25.4761 37.7128 25.4942 37.713H25.5012C25.5258 37.713 25.5501 37.7116 25.5741 37.7093C25.817 37.6985 26.0539 37.6311 26.266 37.5124L34.8597 32.6784C35.1013 32.5423 35.3023 32.3445 35.4423 32.1052C35.5822 31.8659 35.6561 31.5937 35.6562 31.3165V21.6835C35.656 21.4145 35.5863 21.1502 35.4538 20.9162V20.9162ZM25.5 16.8495L33.2875 21.23L30.2972 22.9288L22.418 18.5831L25.5 16.8495ZM25.5889 25.6036L17.7245 21.2232L20.8163 19.4841L28.7035 23.8342L25.5889 25.6036ZM26.2931 35.7044L26.37 26.957L29.5061 25.1753V28.8936C29.5061 29.1008 29.5884 29.2995 29.7349 29.4461C29.8814 29.5926 30.0801 29.6749 30.2873 29.6749C30.4945 29.6749 30.6933 29.5926 30.8398 29.4461C30.9863 29.2995 31.0686 29.1008 31.0686 28.8936V24.2876L34.0937 22.569V31.3165L26.2931 35.7044Z" fill="#FFBB47"/>
</svg>
