<svg width="52" height="52" viewBox="0 0 52 52" fill="none" xmlns="http://www.w3.org/2000/svg">
<circle cx="26" cy="26" r="26" fill="white"/>
<path d="M35.6552 23.3554C35.655 23.3438 35.6543 23.3322 35.6535 23.3205C35.6522 23.3026 35.6504 23.2849 35.648 23.2673C35.6466 23.2572 35.6452 23.2472 35.6434 23.2372C35.6397 23.2165 35.635 23.1963 35.6297 23.1762C35.6284 23.171 35.6277 23.1656 35.6262 23.1604L34.2256 18.2582C34.1314 17.9323 33.934 17.6457 33.6631 17.4414C33.3923 17.2371 33.0625 17.1261 32.7232 17.125H18.2768C17.9375 17.1261 17.6077 17.2371 17.3369 17.4414C17.066 17.6457 16.8686 17.9323 16.7744 18.2583L15.3738 23.1604C15.3723 23.1656 15.3716 23.171 15.3703 23.1762C15.365 23.1963 15.3603 23.2165 15.3566 23.2372C15.3548 23.2472 15.3534 23.2572 15.352 23.2673C15.3496 23.2849 15.3478 23.3026 15.3465 23.3205C15.3457 23.3322 15.345 23.3438 15.3448 23.3554C15.3446 23.362 15.3438 23.3684 15.3438 23.375V24.9375C15.3438 25.5436 15.485 26.1414 15.7562 26.6834C16.0274 27.2255 16.4212 27.6969 16.9062 28.0604V34.3125C16.9067 34.7268 17.0715 35.1239 17.3644 35.4168C17.6573 35.7098 18.0545 35.8745 18.4688 35.875H32.5312C32.9455 35.8745 33.3427 35.7098 33.6356 35.4168C33.9285 35.1239 34.0933 34.7268 34.0938 34.3125V28.0604C34.5788 27.6969 34.9726 27.2255 35.2438 26.6834C35.515 26.1414 35.6562 25.5436 35.6562 24.9375V23.375C35.6562 23.3684 35.6554 23.362 35.6552 23.3554ZM16.9062 24.1562H21.5938V24.9375C21.594 25.3407 21.4902 25.7372 21.2923 26.0885C21.0944 26.4398 20.8092 26.7341 20.4642 26.9429C20.1192 27.1517 19.7262 27.2678 19.3232 27.2802C18.9201 27.2925 18.5207 27.2006 18.1636 27.0133C18.1094 26.9712 18.0499 26.9365 17.9866 26.91C17.6556 26.6982 17.3831 26.4065 17.1943 26.0618C17.0055 25.7171 16.9065 25.3305 16.9062 24.9375V24.1562ZM27.8438 24.9375C27.8437 25.5591 27.5968 26.1552 27.1573 26.5948C26.7177 27.0343 26.1216 27.2812 25.5 27.2812C24.8784 27.2812 24.2823 27.0343 23.8427 26.5948C23.4032 26.1552 23.1562 25.5591 23.1562 24.9375V24.1562H27.8438V24.9375ZM33.0129 26.9103C32.95 26.9367 32.8909 26.9712 32.837 27.013C32.4799 27.2004 32.0804 27.2924 31.6773 27.2802C31.2742 27.2679 30.8811 27.1518 30.5361 26.9431C30.191 26.7343 29.9057 26.44 29.7078 26.0887C29.5099 25.7373 29.406 25.3408 29.4062 24.9375V24.1562H34.0938V24.9375C34.0935 25.3306 33.9944 25.7173 33.8055 26.0621C33.6166 26.4068 33.3441 26.6985 33.0129 26.9103V26.9103Z" fill="#FFBB47"/>
</svg>
