<svg width="52" height="52" viewBox="0 0 52 52" fill="none" xmlns="http://www.w3.org/2000/svg">
<circle cx="26" cy="26" r="26" fill="white"/>
<path d="M36.4375 26.3889L26.2371 16.1885C26.0554 16.0063 25.8315 15.8719 25.5852 15.7974C25.3389 15.7228 25.078 15.7103 24.8258 15.7612L16.9493 17.3364C16.7981 17.3667 16.6592 17.4411 16.5501 17.5501C16.4411 17.6592 16.3667 17.798 16.3365 17.9493L14.7612 25.8258C14.7105 26.078 14.723 26.3389 14.7975 26.5851C14.8721 26.8314 15.0064 27.0554 15.1885 27.2371L25.3888 37.4374C25.5339 37.5825 25.7062 37.6976 25.8958 37.7762C26.0853 37.8547 26.2885 37.8952 26.4937 37.8952C26.699 37.8952 26.9022 37.8548 27.0917 37.7762C27.2813 37.6977 27.4536 37.5826 27.5987 37.4375L36.4374 28.5988C36.5826 28.4537 36.6977 28.2814 36.7762 28.0918C36.8548 27.9023 36.8952 27.6991 36.8952 27.4938C36.8952 27.2886 36.8548 27.0854 36.7763 26.8959C36.6977 26.7063 36.5826 26.534 36.4375 26.3889V26.3889ZM21.2026 23.375C20.9708 23.375 20.7442 23.3063 20.5515 23.1775C20.3588 23.0487 20.2086 22.8657 20.1199 22.6516C20.0312 22.4375 20.008 22.2018 20.0532 21.9745C20.0984 21.7472 20.2101 21.5384 20.3739 21.3745C20.5378 21.2106 20.7466 21.099 20.974 21.0538C21.2013 21.0086 21.4369 21.0318 21.651 21.1205C21.8652 21.2092 22.0482 21.3594 22.177 21.5521C22.3057 21.7448 22.3745 21.9714 22.3745 22.2031C22.3745 22.5139 22.251 22.812 22.0312 23.0318C21.8115 23.2515 21.5134 23.375 21.2026 23.375Z" fill="#FFBB47"/>
</svg>
