<svg width="35" height="35" viewBox="0 0 35 35" fill="none" xmlns="http://www.w3.org/2000/svg">
<circle cx="17.5" cy="17.5" r="17.5" fill="#6E59A4"/>
<g opacity="0.5">
<path d="M26.0312 13.8906V17.1719C26.0313 17.2581 26.0143 17.3434 25.9813 17.423C25.9483 17.5026 25.9 17.575 25.839 17.6359C25.7781 17.6969 25.7058 17.7452 25.6261 17.7782C25.5465 17.8112 25.4612 17.8281 25.375 17.8281C24.0041 17.8311 22.653 17.5016 21.4375 16.8677L21.4375 19.7969C21.4373 20.9829 21.0989 22.1442 20.4619 23.1446C19.8248 24.1449 18.9157 24.9429 17.8411 25.4447C16.7665 25.9465 15.5711 26.1314 14.3952 25.9777C13.2192 25.824 12.1114 25.3381 11.2019 24.5769C10.2924 23.8158 9.61891 22.811 9.26041 21.6805C8.90191 20.55 8.8733 19.3407 9.17794 18.1945C9.48258 17.0483 10.1078 16.0128 10.9803 15.2095C11.8528 14.4062 12.9363 13.8684 14.1037 13.6593C14.1981 13.6425 14.2951 13.6465 14.3878 13.6712C14.4805 13.696 14.5666 13.7407 14.6402 13.8023C14.7137 13.8639 14.7728 13.9408 14.8134 14.0278C14.854 14.1147 14.875 14.2094 14.875 14.3053L14.875 17.7211C14.875 17.8452 14.8398 17.9668 14.7735 18.0717C14.7071 18.1766 14.6124 18.2606 14.5003 18.3138C14.2349 18.4396 14.0082 18.6342 13.8437 18.8775C13.6792 19.1207 13.583 19.4037 13.5651 19.6968C13.5472 19.9899 13.6084 20.2825 13.7421 20.5439C13.8758 20.8054 14.0773 21.0261 14.3254 21.1832C14.5736 21.3402 14.8593 21.4278 15.1529 21.4367C15.4464 21.4457 15.7369 21.3757 15.9942 21.2341C16.2515 21.0925 16.466 20.8844 16.6154 20.6316C16.7649 20.3788 16.8437 20.0905 16.8438 19.7969V9.29688C16.8437 9.21069 16.8607 9.12536 16.8937 9.04574C16.9267 8.96612 16.975 8.89377 17.036 8.83283C17.0969 8.77189 17.1692 8.72355 17.2489 8.69057C17.3285 8.6576 17.4138 8.64062 17.5 8.64063H20.7812C20.8674 8.64062 20.9528 8.6576 21.0324 8.69057C21.112 8.72355 21.1844 8.77189 21.2453 8.83283C21.3062 8.89377 21.3546 8.96612 21.3876 9.04574C21.4205 9.12536 21.4375 9.21069 21.4375 9.29688C21.4387 10.3408 21.8539 11.3416 22.5921 12.0798C23.3302 12.818 24.3311 13.2332 25.375 13.2344C25.4612 13.2344 25.5465 13.2513 25.6261 13.2843C25.7058 13.3173 25.7781 13.3656 25.839 13.4266C25.9 13.4875 25.9483 13.5599 25.9813 13.6395C26.0143 13.7191 26.0313 13.8044 26.0312 13.8906V13.8906Z" fill="white"/>
</g>
</svg>
