<svg width="35" height="35" viewBox="0 0 35 35" fill="none" xmlns="http://www.w3.org/2000/svg">
<circle cx="17.5" cy="17.5" r="17.5" fill="#6E59A4"/>
<g opacity="0.5">
<path d="M27.1512 13.3701L24.6768 15.8445C24.1828 21.5769 19.3485 26.031 13.5622 26.031C12.3707 26.031 11.3888 25.8421 10.6437 25.4696C10.0423 25.1689 9.79601 24.8462 9.73489 24.7544C9.68006 24.6722 9.64451 24.5786 9.63091 24.4807C9.61731 24.3828 9.62601 24.283 9.65635 24.189C9.6867 24.0949 9.7379 24.0089 9.80615 23.9374C9.8744 23.8658 9.95792 23.8107 10.0505 23.7759C10.0716 23.768 12.0068 23.0247 13.2575 21.6096C12.4795 21.0556 11.7948 20.3812 11.2292 19.6117C10.1047 18.0857 8.91538 15.4354 9.63524 11.4761C9.65666 11.3583 9.70992 11.2486 9.78925 11.1589C9.86857 11.0691 9.97094 11.0028 10.0853 10.9671C10.1996 10.9314 10.3215 10.9277 10.4378 10.9563C10.5541 10.9849 10.6603 11.0448 10.745 11.1295C10.7739 11.1583 13.5047 13.8506 16.843 14.7202L16.8434 14.2182C16.8505 13.1675 17.2745 12.1626 18.0222 11.4244C18.7699 10.6861 19.7801 10.275 20.8308 10.2813C21.5134 10.2908 22.1819 10.4771 22.7709 10.8221C23.3599 11.1671 23.8494 11.659 24.1915 12.2498L26.6872 12.2498C26.817 12.2498 26.9438 12.2883 27.0518 12.3604C27.1597 12.4325 27.2438 12.535 27.2935 12.6549C27.3431 12.7748 27.3561 12.9068 27.3308 13.0341C27.3055 13.1614 27.243 13.2783 27.1512 13.3701Z" fill="white"/>
</g>
</svg>
