<svg width="52" height="52" viewBox="0 0 52 52" fill="none" xmlns="http://www.w3.org/2000/svg">
<circle cx="26" cy="26" r="26" fill="white"/>
<path d="M35.0846 34.7022C33.7276 32.1914 31.5544 30.3083 28.9829 29.4148C30.2149 28.6274 31.1721 27.4273 31.7076 25.9989C32.243 24.5705 32.3272 22.9927 31.9471 21.5079C31.567 20.0231 30.7436 18.7134 29.6035 17.78C28.4634 16.8466 27.0696 16.3411 25.6361 16.3411C24.2026 16.3411 22.8087 16.8466 21.6686 17.78C20.5285 18.7134 19.7051 20.0231 19.325 21.5079C18.9449 22.9927 19.0291 24.5705 19.5646 25.9989C20.1001 27.4273 21.0573 28.6274 22.2892 29.4148C19.7178 30.3083 17.5446 32.1914 16.1876 34.702C16.1237 34.8208 16.0899 34.9555 16.0898 35.0927C16.0898 35.2299 16.1233 35.3647 16.1871 35.4836C16.2509 35.6024 16.3427 35.7011 16.4533 35.7697C16.5639 35.8384 16.6894 35.8745 16.8171 35.8745L34.4552 35.8747C34.5829 35.8747 34.7084 35.8386 34.819 35.77C34.9296 35.7013 35.0214 35.6026 35.0852 35.4838C35.149 35.3649 35.1825 35.2301 35.1824 35.0929C35.1823 34.9557 35.1486 34.821 35.0846 34.7022L35.0846 34.7022Z" fill="#F3B411"/>
</svg>
