<svg width="605" height="470" viewBox="0 0 605 470" fill="none" xmlns="http://www.w3.org/2000/svg">
<rect width="257" height="89" rx="10" fill="#6E59A4"/>
<path opacity="0.8" d="M99.602 31.114C99.602 30.162 99.8167 29.308 100.246 28.552C100.675 27.7867 101.259 27.1893 101.996 26.76C102.743 26.3307 103.569 26.116 104.474 26.116C105.538 26.116 106.467 26.3727 107.26 26.886C108.053 27.3993 108.632 28.1273 108.996 29.07H107.47C107.199 28.482 106.807 28.0293 106.294 27.712C105.79 27.3947 105.183 27.236 104.474 27.236C103.793 27.236 103.181 27.3947 102.64 27.712C102.099 28.0293 101.674 28.482 101.366 29.07C101.058 29.6487 100.904 30.33 100.904 31.114C100.904 31.8887 101.058 32.57 101.366 33.158C101.674 33.7367 102.099 34.1847 102.64 34.502C103.181 34.8193 103.793 34.978 104.474 34.978C105.183 34.978 105.79 34.824 106.294 34.516C106.807 34.1987 107.199 33.746 107.47 33.158H108.996C108.632 34.0913 108.053 34.8147 107.26 35.328C106.467 35.832 105.538 36.084 104.474 36.084C103.569 36.084 102.743 35.874 101.996 35.454C101.259 35.0247 100.675 34.432 100.246 33.676C99.8167 32.92 99.602 32.066 99.602 31.114ZM117.696 28.328V36H116.422V34.866C116.18 35.258 115.839 35.566 115.4 35.79C114.971 36.0047 114.495 36.112 113.972 36.112C113.375 36.112 112.838 35.9907 112.362 35.748C111.886 35.496 111.508 35.1227 111.228 34.628C110.958 34.1333 110.822 33.5313 110.822 32.822V28.328H112.082V32.654C112.082 33.41 112.274 33.9933 112.656 34.404C113.039 34.8053 113.562 35.006 114.224 35.006C114.906 35.006 115.442 34.796 115.834 34.376C116.226 33.956 116.422 33.3447 116.422 32.542V28.328H117.696ZM121.122 29.574C121.346 29.1353 121.663 28.7947 122.074 28.552C122.494 28.3093 123.002 28.188 123.6 28.188V29.504H123.264C121.836 29.504 121.122 30.2787 121.122 31.828V36H119.848V28.328H121.122V29.574ZM128.416 36.126C127.698 36.126 127.044 35.9627 126.456 35.636C125.878 35.3093 125.42 34.8473 125.084 34.25C124.758 33.6433 124.594 32.9433 124.594 32.15C124.594 31.366 124.762 30.6753 125.098 30.078C125.444 29.4713 125.91 29.0093 126.498 28.692C127.086 28.3653 127.744 28.202 128.472 28.202C129.2 28.202 129.858 28.3653 130.446 28.692C131.034 29.0093 131.496 29.4667 131.832 30.064C132.178 30.6613 132.35 31.3567 132.35 32.15C132.35 32.9433 132.173 33.6433 131.818 34.25C131.473 34.8473 131.002 35.3093 130.404 35.636C129.807 35.9627 129.144 36.126 128.416 36.126ZM128.416 35.006C128.874 35.006 129.303 34.8987 129.704 34.684C130.106 34.4693 130.428 34.1473 130.67 33.718C130.922 33.2887 131.048 32.766 131.048 32.15C131.048 31.534 130.927 31.0113 130.684 30.582C130.442 30.1527 130.124 29.8353 129.732 29.63C129.34 29.4153 128.916 29.308 128.458 29.308C127.992 29.308 127.562 29.4153 127.17 29.63C126.788 29.8353 126.48 30.1527 126.246 30.582C126.013 31.0113 125.896 31.534 125.896 32.15C125.896 32.7753 126.008 33.3027 126.232 33.732C126.466 34.1613 126.774 34.4833 127.156 34.698C127.539 34.9033 127.959 35.006 128.416 35.006ZM135.299 25.64V36H134.025V25.64H135.299ZM140.817 36.126C140.098 36.126 139.445 35.9627 138.857 35.636C138.278 35.3093 137.821 34.8473 137.485 34.25C137.158 33.6433 136.995 32.9433 136.995 32.15C136.995 31.366 137.163 30.6753 137.499 30.078C137.844 29.4713 138.311 29.0093 138.899 28.692C139.487 28.3653 140.145 28.202 140.873 28.202C141.601 28.202 142.259 28.3653 142.847 28.692C143.435 29.0093 143.897 29.4667 144.233 30.064C144.578 30.6613 144.751 31.3567 144.751 32.15C144.751 32.9433 144.573 33.6433 144.219 34.25C143.873 34.8473 143.402 35.3093 142.805 35.636C142.207 35.9627 141.545 36.126 140.817 36.126ZM140.817 35.006C141.274 35.006 141.703 34.8987 142.105 34.684C142.506 34.4693 142.828 34.1473 143.071 33.718C143.323 33.2887 143.449 32.766 143.449 32.15C143.449 31.534 143.327 31.0113 143.085 30.582C142.842 30.1527 142.525 29.8353 142.133 29.63C141.741 29.4153 141.316 29.308 140.859 29.308C140.392 29.308 139.963 29.4153 139.571 29.63C139.188 29.8353 138.88 30.1527 138.647 30.582C138.413 31.0113 138.297 31.534 138.297 32.15C138.297 32.7753 138.409 33.3027 138.633 33.732C138.866 34.1613 139.174 34.4833 139.557 34.698C139.939 34.9033 140.359 35.006 140.817 35.006ZM149.59 28.202C150.252 28.202 150.831 28.3467 151.326 28.636C151.83 28.9253 152.203 29.2893 152.446 29.728V28.328H153.734V36.168C153.734 36.868 153.584 37.4887 153.286 38.03C152.987 38.5807 152.558 39.01 151.998 39.318C151.447 39.626 150.803 39.78 150.066 39.78C149.058 39.78 148.218 39.542 147.546 39.066C146.874 38.59 146.477 37.9413 146.356 37.12H147.616C147.756 37.5867 148.045 37.96 148.484 38.24C148.922 38.5293 149.45 38.674 150.066 38.674C150.766 38.674 151.335 38.4547 151.774 38.016C152.222 37.5773 152.446 36.9613 152.446 36.168V34.558C152.194 35.006 151.82 35.3793 151.326 35.678C150.831 35.9767 150.252 36.126 149.59 36.126C148.908 36.126 148.288 35.958 147.728 35.622C147.177 35.286 146.743 34.8147 146.426 34.208C146.108 33.6013 145.95 32.9107 145.95 32.136C145.95 31.352 146.108 30.666 146.426 30.078C146.743 29.4807 147.177 29.0187 147.728 28.692C148.288 28.3653 148.908 28.202 149.59 28.202ZM152.446 32.15C152.446 31.5713 152.329 31.0673 152.096 30.638C151.862 30.2087 151.545 29.882 151.144 29.658C150.752 29.4247 150.318 29.308 149.842 29.308C149.366 29.308 148.932 29.42 148.54 29.644C148.148 29.868 147.835 30.1947 147.602 30.624C147.368 31.0533 147.252 31.5573 147.252 32.136C147.252 32.724 147.368 33.2373 147.602 33.676C147.835 34.1053 148.148 34.4367 148.54 34.67C148.932 34.894 149.366 35.006 149.842 35.006C150.318 35.006 150.752 34.894 151.144 34.67C151.545 34.4367 151.862 34.1053 152.096 33.676C152.329 33.2373 152.446 32.7287 152.446 32.15ZM162.495 28.328L157.875 39.612H156.559L158.071 35.916L154.977 28.328H156.391L158.799 34.544L161.179 28.328H162.495Z" fill="white"/>
<path d="M109.86 54.14C109.86 55.3 109.46 56.2667 108.66 57.04C107.873 57.8 106.667 58.18 105.04 58.18H102.36V64H100.54V50.06H105.04C106.613 50.06 107.807 50.44 108.62 51.2C109.447 51.96 109.86 52.94 109.86 54.14ZM105.04 56.68C106.053 56.68 106.8 56.46 107.28 56.02C107.76 55.58 108 54.9533 108 54.14C108 52.42 107.013 51.56 105.04 51.56H102.36V56.68H105.04ZM111.442 58.48C111.442 57.36 111.669 56.38 112.122 55.54C112.575 54.6867 113.195 54.0267 113.982 53.56C114.782 53.0933 115.669 52.86 116.642 52.86C117.602 52.86 118.435 53.0667 119.142 53.48C119.849 53.8933 120.375 54.4133 120.722 55.04V53.04H122.562V64H120.722V61.96C120.362 62.6 119.822 63.1333 119.102 63.56C118.395 63.9733 117.569 64.18 116.622 64.18C115.649 64.18 114.769 63.94 113.982 63.46C113.195 62.98 112.575 62.3067 112.122 61.44C111.669 60.5733 111.442 59.5867 111.442 58.48ZM120.722 58.5C120.722 57.6733 120.555 56.9533 120.222 56.34C119.889 55.7267 119.435 55.26 118.862 54.94C118.302 54.6067 117.682 54.44 117.002 54.44C116.322 54.44 115.702 54.6 115.142 54.92C114.582 55.24 114.135 55.7067 113.802 56.32C113.469 56.9333 113.302 57.6533 113.302 58.48C113.302 59.32 113.469 60.0533 113.802 60.68C114.135 61.2933 114.582 61.7667 115.142 62.1C115.702 62.42 116.322 62.58 117.002 62.58C117.682 62.58 118.302 62.42 118.862 62.1C119.435 61.7667 119.889 61.2933 120.222 60.68C120.555 60.0533 120.722 59.3267 120.722 58.5ZM124.958 58.5C124.958 57.3667 125.184 56.38 125.638 55.54C126.091 54.6867 126.718 54.0267 127.518 53.56C128.331 53.0933 129.258 52.86 130.298 52.86C131.644 52.86 132.751 53.1867 133.618 53.84C134.498 54.4933 135.078 55.4 135.358 56.56H133.398C133.211 55.8933 132.844 55.3667 132.298 54.98C131.764 54.5933 131.098 54.4 130.298 54.4C129.258 54.4 128.418 54.76 127.778 55.48C127.138 56.1867 126.818 57.1933 126.818 58.5C126.818 59.82 127.138 60.84 127.778 61.56C128.418 62.28 129.258 62.64 130.298 62.64C131.098 62.64 131.764 62.4533 132.298 62.08C132.831 61.7067 133.198 61.1733 133.398 60.48H135.358C135.064 61.6 134.478 62.5 133.598 63.18C132.718 63.8467 131.618 64.18 130.298 64.18C129.258 64.18 128.331 63.9467 127.518 63.48C126.718 63.0133 126.091 62.3533 125.638 61.5C125.184 60.6467 124.958 59.6467 124.958 58.5ZM143.906 64L139.606 59.16V64H137.786V49.2H139.606V57.9L143.826 53.04H146.366L141.206 58.5L146.386 64H143.906ZM147.399 58.48C147.399 57.36 147.626 56.38 148.079 55.54C148.532 54.6867 149.152 54.0267 149.939 53.56C150.739 53.0933 151.626 52.86 152.599 52.86C153.559 52.86 154.392 53.0667 155.099 53.48C155.806 53.8933 156.332 54.4133 156.679 55.04V53.04H158.519V64H156.679V61.96C156.319 62.6 155.779 63.1333 155.059 63.56C154.352 63.9733 153.526 64.18 152.579 64.18C151.606 64.18 150.726 63.94 149.939 63.46C149.152 62.98 148.532 62.3067 148.079 61.44C147.626 60.5733 147.399 59.5867 147.399 58.48ZM156.679 58.5C156.679 57.6733 156.512 56.9533 156.179 56.34C155.846 55.7267 155.392 55.26 154.819 54.94C154.259 54.6067 153.639 54.44 152.959 54.44C152.279 54.44 151.659 54.6 151.099 54.92C150.539 55.24 150.092 55.7067 149.759 56.32C149.426 56.9333 149.259 57.6533 149.259 58.48C149.259 59.32 149.426 60.0533 149.759 60.68C150.092 61.2933 150.539 61.7667 151.099 62.1C151.659 62.42 152.279 62.58 152.959 62.58C153.639 62.58 154.259 62.42 154.819 62.1C155.392 61.7667 155.846 61.2933 156.179 60.68C156.512 60.0533 156.679 59.3267 156.679 58.5ZM166.115 52.86C167.061 52.86 167.888 53.0667 168.595 53.48C169.315 53.8933 169.848 54.4133 170.195 55.04V53.04H172.035V64.24C172.035 65.24 171.821 66.1267 171.395 66.9C170.968 67.6867 170.355 68.3 169.555 68.74C168.768 69.18 167.848 69.4 166.795 69.4C165.355 69.4 164.155 69.06 163.195 68.38C162.235 67.7 161.668 66.7733 161.495 65.6H163.295C163.495 66.2667 163.908 66.8 164.535 67.2C165.161 67.6133 165.915 67.82 166.795 67.82C167.795 67.82 168.608 67.5067 169.235 66.88C169.875 66.2533 170.195 65.3733 170.195 64.24V61.94C169.835 62.58 169.301 63.1133 168.595 63.54C167.888 63.9667 167.061 64.18 166.115 64.18C165.141 64.18 164.255 63.94 163.455 63.46C162.668 62.98 162.048 62.3067 161.595 61.44C161.141 60.5733 160.915 59.5867 160.915 58.48C160.915 57.36 161.141 56.38 161.595 55.54C162.048 54.6867 162.668 54.0267 163.455 53.56C164.255 53.0933 165.141 52.86 166.115 52.86ZM170.195 58.5C170.195 57.6733 170.028 56.9533 169.695 56.34C169.361 55.7267 168.908 55.26 168.335 54.94C167.775 54.6067 167.155 54.44 166.475 54.44C165.795 54.44 165.175 54.6 164.615 54.92C164.055 55.24 163.608 55.7067 163.275 56.32C162.941 56.9333 162.775 57.6533 162.775 58.48C162.775 59.32 162.941 60.0533 163.275 60.68C163.608 61.2933 164.055 61.7667 164.615 62.1C165.175 62.42 165.795 62.58 166.475 62.58C167.155 62.58 167.775 62.42 168.335 62.1C168.908 61.7667 169.361 61.2933 169.695 60.68C170.028 60.0533 170.195 59.3267 170.195 58.5ZM176.05 51.26C175.704 51.26 175.41 51.14 175.17 50.9C174.93 50.66 174.81 50.3667 174.81 50.02C174.81 49.6733 174.93 49.38 175.17 49.14C175.41 48.9 175.704 48.78 176.05 48.78C176.384 48.78 176.664 48.9 176.89 49.14C177.13 49.38 177.25 49.6733 177.25 50.02C177.25 50.3667 177.13 50.66 176.89 50.9C176.664 51.14 176.384 51.26 176.05 51.26ZM176.93 53.04V64H175.11V53.04H176.93ZM185.372 52.84C186.706 52.84 187.786 53.2467 188.612 54.06C189.439 54.86 189.852 56.02 189.852 57.54V64H188.052V57.8C188.052 56.7067 187.779 55.8733 187.232 55.3C186.686 54.7133 185.939 54.42 184.992 54.42C184.032 54.42 183.266 54.72 182.692 55.32C182.132 55.92 181.852 56.7933 181.852 57.94V64H180.032V53.04H181.852V54.6C182.212 54.04 182.699 53.6067 183.312 53.3C183.939 52.9933 184.626 52.84 185.372 52.84ZM197.345 52.86C198.292 52.86 199.118 53.0667 199.825 53.48C200.545 53.8933 201.078 54.4133 201.425 55.04V53.04H203.265V64.24C203.265 65.24 203.052 66.1267 202.625 66.9C202.198 67.6867 201.585 68.3 200.785 68.74C199.998 69.18 199.078 69.4 198.025 69.4C196.585 69.4 195.385 69.06 194.425 68.38C193.465 67.7 192.898 66.7733 192.725 65.6H194.525C194.725 66.2667 195.138 66.8 195.765 67.2C196.392 67.6133 197.145 67.82 198.025 67.82C199.025 67.82 199.838 67.5067 200.465 66.88C201.105 66.2533 201.425 65.3733 201.425 64.24V61.94C201.065 62.58 200.532 63.1133 199.825 63.54C199.118 63.9667 198.292 64.18 197.345 64.18C196.372 64.18 195.485 63.94 194.685 63.46C193.898 62.98 193.278 62.3067 192.825 61.44C192.372 60.5733 192.145 59.5867 192.145 58.48C192.145 57.36 192.372 56.38 192.825 55.54C193.278 54.6867 193.898 54.0267 194.685 53.56C195.485 53.0933 196.372 52.86 197.345 52.86ZM201.425 58.5C201.425 57.6733 201.258 56.9533 200.925 56.34C200.592 55.7267 200.138 55.26 199.565 54.94C199.005 54.6067 198.385 54.44 197.705 54.44C197.025 54.44 196.405 54.6 195.845 54.92C195.285 55.24 194.838 55.7067 194.505 56.32C194.172 56.9333 194.005 57.6533 194.005 58.48C194.005 59.32 194.172 60.0533 194.505 60.68C194.838 61.2933 195.285 61.7667 195.845 62.1C196.405 62.42 197.025 62.58 197.705 62.58C198.385 62.58 199.005 62.42 199.565 62.1C200.138 61.7667 200.592 61.2933 200.925 60.68C201.258 60.0533 201.425 59.3267 201.425 58.5Z" fill="white"/>
<circle cx="46" cy="44" r="21" fill="#FAFCFF"/>
<path d="M50.375 41.5629V40.875C50.3742 40.2122 50.1106 39.5767 49.6419 39.1081C49.1733 38.6394 48.5378 38.3758 47.875 38.375H46.625V36.5H49.125C49.2907 36.5002 49.4496 36.5661 49.5667 36.6833C49.6839 36.8004 49.7498 36.9593 49.75 37.125C49.75 37.2908 49.8158 37.4497 49.9331 37.5669C50.0503 37.6842 50.2092 37.75 50.375 37.75C50.5408 37.75 50.6997 37.6842 50.8169 37.5669C50.9342 37.4497 51 37.2908 51 37.125C50.9994 36.6279 50.8017 36.1513 50.4502 35.7998C50.0987 35.4483 49.6221 35.2506 49.125 35.25H44.125C43.9592 35.25 43.8003 35.3158 43.6831 35.4331C43.5658 35.5503 43.5 35.7092 43.5 35.875C43.5 36.0408 43.5658 36.1997 43.6831 36.3169C43.8003 36.4342 43.9592 36.5 44.125 36.5H45.375V38.375H44.125C43.4622 38.3758 42.8267 38.6394 42.3581 39.1081C41.8894 39.5767 41.6258 40.2122 41.625 40.875V41.5629C40.9197 41.7079 40.2859 42.0916 39.8305 42.6494C39.3751 43.2072 39.1259 43.9049 39.125 44.625V50.875C39.1254 51.2064 39.2572 51.5241 39.4915 51.7585C39.7259 51.9928 40.0436 52.1246 40.375 52.125H51.625C51.9564 52.1246 52.2741 51.9928 52.5085 51.7585C52.7428 51.5241 52.8746 51.2064 52.875 50.875V44.625C52.8741 43.9049 52.6249 43.2072 52.1695 42.6494C51.7141 42.0916 51.0803 41.7079 50.375 41.5629V41.5629ZM44.125 39.625H47.875C48.2064 39.6254 48.5241 39.7572 48.7585 39.9915C48.9928 40.2259 49.1246 40.5436 49.125 40.875V41.5H42.875V40.875C42.8754 40.5436 43.0072 40.2259 43.2415 39.9915C43.4759 39.7572 43.7936 39.6254 44.125 39.625Z" fill="#F3B411"/>
<rect x="543" y="15" width="62" height="62" rx="5" fill="#FFBB47"/>
<rect x="3" y="437" width="33" height="33" rx="5" fill="#6E59A4"/>
<rect x="496" y="415" width="47" height="47" rx="5" fill="#C0B5DE"/>
</svg>
