<svg width="364" height="327" viewBox="0 0 364 327" fill="none" xmlns="http://www.w3.org/2000/svg">
<rect x="8" y="22" width="346" height="295" rx="10"/>
<rect width="172" height="60" rx="6.68132" fill="#6E59A4"/>
<path opacity="0.8" d="M66.5753 20.8733C66.5753 20.1933 66.7286 19.5833 67.0353 19.0433C67.3419 18.4966 67.7586 18.0699 68.2853 17.7633C68.8186 17.4566 69.4086 17.3033 70.0553 17.3033C70.8153 17.3033 71.4786 17.4866 72.0453 17.8533C72.6119 18.2199 73.0253 18.7399 73.2853 19.4133H72.1953C72.0019 18.9933 71.7219 18.6699 71.3553 18.4433C70.9953 18.2166 70.5619 18.1033 70.0553 18.1033C69.5686 18.1033 69.1319 18.2166 68.7453 18.4433C68.3586 18.6699 68.0553 18.9933 67.8353 19.4133C67.6153 19.8266 67.5053 20.3133 67.5053 20.8733C67.5053 21.4266 67.6153 21.9133 67.8353 22.3333C68.0553 22.7466 68.3586 23.0666 68.7453 23.2933C69.1319 23.5199 69.5686 23.6333 70.0553 23.6333C70.5619 23.6333 70.9953 23.5233 71.3553 23.3033C71.7219 23.0766 72.0019 22.7533 72.1953 22.3333H73.2853C73.0253 22.9999 72.6119 23.5166 72.0453 23.8833C71.4786 24.2433 70.8153 24.4233 70.0553 24.4233C69.4086 24.4233 68.8186 24.2733 68.2853 23.9733C67.7586 23.6666 67.3419 23.2433 67.0353 22.7033C66.7286 22.1633 66.5753 21.5533 66.5753 20.8733ZM79.4999 18.8833V24.3633H78.5899V23.5533C78.4165 23.8333 78.1732 24.0533 77.8599 24.2133C77.5532 24.3666 77.2132 24.4433 76.8399 24.4433C76.4132 24.4433 76.0299 24.3566 75.6899 24.1833C75.3499 24.0033 75.0799 23.7366 74.8799 23.3833C74.6865 23.0299 74.5899 22.5999 74.5899 22.0933V18.8833H75.4899V21.9733C75.4899 22.5133 75.6265 22.9299 75.8999 23.2233C76.1732 23.5099 76.5465 23.6533 77.0199 23.6533C77.5065 23.6533 77.8899 23.5033 78.1699 23.2033C78.4499 22.9033 78.5899 22.4666 78.5899 21.8933V18.8833H79.4999ZM81.9464 19.7733C82.1064 19.4599 82.333 19.2166 82.6264 19.0433C82.9264 18.8699 83.2897 18.7833 83.7164 18.7833V19.7233H83.4764C82.4564 19.7233 81.9464 20.2766 81.9464 21.3833V24.3633H81.0364V18.8833H81.9464V19.7733ZM87.1568 24.4533C86.6435 24.4533 86.1768 24.3366 85.7568 24.1033C85.3435 23.8699 85.0168 23.5399 84.7768 23.1133C84.5435 22.6799 84.4268 22.1799 84.4268 21.6133C84.4268 21.0533 84.5468 20.5599 84.7868 20.1333C85.0335 19.6999 85.3668 19.3699 85.7868 19.1433C86.2068 18.9099 86.6768 18.7933 87.1968 18.7933C87.7168 18.7933 88.1868 18.9099 88.6068 19.1433C89.0268 19.3699 89.3568 19.6966 89.5968 20.1233C89.8435 20.5499 89.9668 21.0466 89.9668 21.6133C89.9668 22.1799 89.8402 22.6799 89.5868 23.1133C89.3402 23.5399 89.0035 23.8699 88.5768 24.1033C88.1502 24.3366 87.6768 24.4533 87.1568 24.4533ZM87.1568 23.6533C87.4835 23.6533 87.7902 23.5766 88.0768 23.4233C88.3635 23.2699 88.5935 23.0399 88.7668 22.7333C88.9468 22.4266 89.0368 22.0533 89.0368 21.6133C89.0368 21.1733 88.9502 20.7999 88.7768 20.4933C88.6035 20.1866 88.3768 19.9599 88.0968 19.8133C87.8168 19.6599 87.5135 19.5833 87.1868 19.5833C86.8535 19.5833 86.5468 19.6599 86.2668 19.8133C85.9935 19.9599 85.7735 20.1866 85.6068 20.4933C85.4402 20.7999 85.3568 21.1733 85.3568 21.6133C85.3568 22.0599 85.4368 22.4366 85.5968 22.7433C85.7635 23.0499 85.9835 23.2799 86.2568 23.4333C86.5302 23.5799 86.8302 23.6533 87.1568 23.6533ZM92.0733 16.9633V24.3633H91.1633V16.9633H92.0733ZM96.0142 24.4533C95.5009 24.4533 95.0342 24.3366 94.6142 24.1033C94.2009 23.8699 93.8742 23.5399 93.6342 23.1133C93.4009 22.6799 93.2842 22.1799 93.2842 21.6133C93.2842 21.0533 93.4042 20.5599 93.6442 20.1333C93.8909 19.6999 94.2242 19.3699 94.6442 19.1433C95.0642 18.9099 95.5342 18.7933 96.0542 18.7933C96.5742 18.7933 97.0442 18.9099 97.4642 19.1433C97.8842 19.3699 98.2142 19.6966 98.4542 20.1233C98.7009 20.5499 98.8242 21.0466 98.8242 21.6133C98.8242 22.1799 98.6976 22.6799 98.4442 23.1133C98.1976 23.5399 97.8609 23.8699 97.4342 24.1033C97.0076 24.3366 96.5342 24.4533 96.0142 24.4533ZM96.0142 23.6533C96.3409 23.6533 96.6476 23.5766 96.9342 23.4233C97.2209 23.2699 97.4509 23.0399 97.6242 22.7333C97.8042 22.4266 97.8942 22.0533 97.8942 21.6133C97.8942 21.1733 97.8076 20.7999 97.6342 20.4933C97.4609 20.1866 97.2342 19.9599 96.9542 19.8133C96.6742 19.6599 96.3709 19.5833 96.0442 19.5833C95.7109 19.5833 95.4042 19.6599 95.1242 19.8133C94.8509 19.9599 94.6309 20.1866 94.4642 20.4933C94.2976 20.7999 94.2142 21.1733 94.2142 21.6133C94.2142 22.0599 94.2942 22.4366 94.4542 22.7433C94.6209 23.0499 94.8409 23.2799 95.1142 23.4333C95.3876 23.5799 95.6876 23.6533 96.0142 23.6533ZM102.281 18.7933C102.754 18.7933 103.167 18.8966 103.521 19.1033C103.881 19.3099 104.147 19.5699 104.321 19.8833V18.8833H105.241V24.4833C105.241 24.9833 105.134 25.4266 104.921 25.8133C104.707 26.2066 104.401 26.5133 104.001 26.7333C103.607 26.9533 103.147 27.0633 102.621 27.0633C101.901 27.0633 101.301 26.8933 100.821 26.5533C100.341 26.2133 100.057 25.7499 99.9707 25.1633H100.871C100.971 25.4966 101.177 25.7633 101.491 25.9633C101.804 26.1699 102.181 26.2733 102.621 26.2733C103.121 26.2733 103.527 26.1166 103.841 25.8033C104.161 25.4899 104.321 25.0499 104.321 24.4833V23.3333C104.141 23.6533 103.874 23.9199 103.521 24.1333C103.167 24.3466 102.754 24.4533 102.281 24.4533C101.794 24.4533 101.351 24.3333 100.951 24.0933C100.557 23.8533 100.247 23.5166 100.021 23.0833C99.7941 22.6499 99.6807 22.1566 99.6807 21.6033C99.6807 21.0433 99.7941 20.5533 100.021 20.1333C100.247 19.7066 100.557 19.3766 100.951 19.1433C101.351 18.9099 101.794 18.7933 102.281 18.7933ZM104.321 21.6133C104.321 21.1999 104.237 20.8399 104.071 20.5333C103.904 20.2266 103.677 19.9933 103.391 19.8333C103.111 19.6666 102.801 19.5833 102.461 19.5833C102.121 19.5833 101.811 19.6633 101.531 19.8233C101.251 19.9833 101.027 20.2166 100.861 20.5233C100.694 20.8299 100.611 21.1899 100.611 21.6033C100.611 22.0233 100.694 22.3899 100.861 22.7033C101.027 23.0099 101.251 23.2466 101.531 23.4133C101.811 23.5733 102.121 23.6533 102.461 23.6533C102.801 23.6533 103.111 23.5733 103.391 23.4133C103.677 23.2466 103.904 23.0099 104.071 22.7033C104.237 22.3899 104.321 22.0266 104.321 21.6133ZM111.499 18.8833L108.199 26.9433H107.259L108.339 24.3033L106.129 18.8833H107.139L108.859 23.3233L110.559 18.8833H111.499Z" fill="white"/>
<path d="M73.7473 35.8329C73.7473 36.6449 73.4673 37.3215 72.9073 37.8629C72.3566 38.3949 71.5119 38.6609 70.3733 38.6609H68.4973V42.7349H67.2233V32.9769H70.3733C71.4746 32.9769 72.3099 33.2429 72.8793 33.7749C73.4579 34.3069 73.7473 34.9929 73.7473 35.8329ZM70.3733 37.6109C71.0826 37.6109 71.6053 37.4569 71.9413 37.1489C72.2773 36.8409 72.4453 36.4022 72.4453 35.8329C72.4453 34.6289 71.7546 34.0269 70.3733 34.0269H68.4973V37.6109H70.3733ZM74.8547 38.8709C74.8547 38.0869 75.0134 37.4009 75.3307 36.8129C75.648 36.2155 76.082 35.7535 76.6327 35.4269C77.1927 35.1002 77.8134 34.9369 78.4947 34.9369C79.1667 34.9369 79.75 35.0815 80.2447 35.3709C80.7394 35.6602 81.108 36.0242 81.3507 36.4629V35.0629H82.6387V42.7349H81.3507V41.3069C81.0987 41.7549 80.7207 42.1282 80.2167 42.4269C79.722 42.7162 79.1434 42.8609 78.4807 42.8609C77.7994 42.8609 77.1834 42.6929 76.6327 42.3569C76.082 42.0209 75.648 41.5495 75.3307 40.9429C75.0134 40.3362 74.8547 39.6455 74.8547 38.8709ZM81.3507 38.8849C81.3507 38.3062 81.234 37.8022 81.0007 37.3729C80.7674 36.9435 80.45 36.6169 80.0487 36.3929C79.6567 36.1595 79.2227 36.0429 78.7467 36.0429C78.2707 36.0429 77.8367 36.1549 77.4447 36.3789C77.0527 36.6029 76.74 36.9295 76.5067 37.3589C76.2734 37.7882 76.1567 38.2922 76.1567 38.8709C76.1567 39.4589 76.2734 39.9722 76.5067 40.4109C76.74 40.8402 77.0527 41.1715 77.4447 41.4049C77.8367 41.6289 78.2707 41.7409 78.7467 41.7409C79.2227 41.7409 79.6567 41.6289 80.0487 41.4049C80.45 41.1715 80.7674 40.8402 81.0007 40.4109C81.234 39.9722 81.3507 39.4635 81.3507 38.8849ZM84.3156 38.8849C84.3156 38.0915 84.4743 37.4009 84.7916 36.8129C85.109 36.2155 85.5476 35.7535 86.1076 35.4269C86.677 35.1002 87.3256 34.9369 88.0536 34.9369C88.9963 34.9369 89.771 35.1655 90.3776 35.6229C90.9936 36.0802 91.3996 36.7149 91.5956 37.5269H90.2236C90.093 37.0602 89.8363 36.6915 89.4536 36.4209C89.0803 36.1502 88.6136 36.0149 88.0536 36.0149C87.3256 36.0149 86.7376 36.2669 86.2896 36.7709C85.8416 37.2655 85.6176 37.9702 85.6176 38.8849C85.6176 39.8089 85.8416 40.5229 86.2896 41.0269C86.7376 41.5309 87.3256 41.7829 88.0536 41.7829C88.6136 41.7829 89.0803 41.6522 89.4536 41.3909C89.827 41.1295 90.0836 40.7562 90.2236 40.2709H91.5956C91.3903 41.0549 90.9796 41.6849 90.3636 42.1609C89.7476 42.6275 88.9776 42.8609 88.0536 42.8609C87.3256 42.8609 86.677 42.6975 86.1076 42.3709C85.5476 42.0442 85.109 41.5822 84.7916 40.9849C84.4743 40.3875 84.3156 39.6875 84.3156 38.8849ZM97.5795 42.7349L94.5695 39.3469V42.7349H93.2955V32.3749H94.5695V38.4649L97.5235 35.0629H99.3015L95.6895 38.8849L99.3155 42.7349H97.5795ZM100.025 38.8709C100.025 38.0869 100.183 37.4009 100.501 36.8129C100.818 36.2155 101.252 35.7535 101.803 35.4269C102.363 35.1002 102.983 34.9369 103.665 34.9369C104.337 34.9369 104.92 35.0815 105.415 35.3709C105.909 35.6602 106.278 36.0242 106.521 36.4629V35.0629H107.809V42.7349H106.521V41.3069C106.269 41.7549 105.891 42.1282 105.387 42.4269C104.892 42.7162 104.313 42.8609 103.651 42.8609C102.969 42.8609 102.353 42.6929 101.803 42.3569C101.252 42.0209 100.818 41.5495 100.501 40.9429C100.183 40.3362 100.025 39.6455 100.025 38.8709ZM106.521 38.8849C106.521 38.3062 106.404 37.8022 106.171 37.3729C105.937 36.9435 105.62 36.6169 105.219 36.3929C104.827 36.1595 104.393 36.0429 103.917 36.0429C103.441 36.0429 103.007 36.1549 102.615 36.3789C102.223 36.6029 101.91 36.9295 101.677 37.3589C101.443 37.7882 101.327 38.2922 101.327 38.8709C101.327 39.4589 101.443 39.9722 101.677 40.4109C101.91 40.8402 102.223 41.1715 102.615 41.4049C103.007 41.6289 103.441 41.7409 103.917 41.7409C104.393 41.7409 104.827 41.6289 105.219 41.4049C105.62 41.1715 105.937 40.8402 106.171 40.4109C106.404 39.9722 106.521 39.4635 106.521 38.8849ZM113.126 34.9369C113.788 34.9369 114.367 35.0815 114.862 35.3709C115.366 35.6602 115.739 36.0242 115.982 36.4629V35.0629H117.27V42.9029C117.27 43.6029 117.12 44.2235 116.822 44.7649C116.523 45.3155 116.094 45.7449 115.534 46.0529C114.983 46.3609 114.339 46.5149 113.602 46.5149C112.594 46.5149 111.754 46.2769 111.082 45.8009C110.41 45.3249 110.013 44.6762 109.892 43.8549H111.152C111.292 44.3215 111.581 44.6949 112.02 44.9749C112.458 45.2642 112.986 45.4089 113.602 45.4089C114.302 45.4089 114.871 45.1895 115.31 44.7509C115.758 44.3122 115.982 43.6962 115.982 42.9029V41.2929C115.73 41.7409 115.356 42.1142 114.862 42.4129C114.367 42.7115 113.788 42.8609 113.126 42.8609C112.444 42.8609 111.824 42.6929 111.264 42.3569C110.713 42.0209 110.279 41.5495 109.962 40.9429C109.644 40.3362 109.486 39.6455 109.486 38.8709C109.486 38.0869 109.644 37.4009 109.962 36.8129C110.279 36.2155 110.713 35.7535 111.264 35.4269C111.824 35.1002 112.444 34.9369 113.126 34.9369ZM115.982 38.8849C115.982 38.3062 115.865 37.8022 115.632 37.3729C115.398 36.9435 115.081 36.6169 114.68 36.3929C114.288 36.1595 113.854 36.0429 113.378 36.0429C112.902 36.0429 112.468 36.1549 112.076 36.3789C111.684 36.6029 111.371 36.9295 111.138 37.3589C110.904 37.7882 110.788 38.2922 110.788 38.8709C110.788 39.4589 110.904 39.9722 111.138 40.4109C111.371 40.8402 111.684 41.1715 112.076 41.4049C112.468 41.6289 112.902 41.7409 113.378 41.7409C113.854 41.7409 114.288 41.6289 114.68 41.4049C115.081 41.1715 115.398 40.8402 115.632 40.4109C115.865 39.9722 115.982 39.4635 115.982 38.8849ZM120.08 33.8169C119.838 33.8169 119.632 33.7329 119.464 33.5649C119.296 33.3969 119.212 33.1915 119.212 32.9489C119.212 32.7062 119.296 32.5009 119.464 32.3329C119.632 32.1649 119.838 32.0809 120.08 32.0809C120.314 32.0809 120.51 32.1649 120.668 32.3329C120.836 32.5009 120.92 32.7062 120.92 32.9489C120.92 33.1915 120.836 33.3969 120.668 33.5649C120.51 33.7329 120.314 33.8169 120.08 33.8169ZM120.696 35.0629V42.7349H119.422V35.0629H120.696ZM126.606 34.9229C127.539 34.9229 128.295 35.2075 128.874 35.7769C129.452 36.3369 129.742 37.1489 129.742 38.2129V42.7349H128.482V38.3949C128.482 37.6295 128.29 37.0462 127.908 36.6449C127.525 36.2342 127.002 36.0289 126.34 36.0289C125.668 36.0289 125.131 36.2389 124.73 36.6589C124.338 37.0789 124.142 37.6902 124.142 38.4929V42.7349H122.868V35.0629H124.142V36.1549C124.394 35.7629 124.734 35.4595 125.164 35.2449C125.602 35.0302 126.083 34.9229 126.606 34.9229ZM134.987 34.9369C135.65 34.9369 136.228 35.0815 136.723 35.3709C137.227 35.6602 137.6 36.0242 137.843 36.4629V35.0629H139.131V42.9029C139.131 43.6029 138.982 44.2235 138.683 44.7649C138.384 45.3155 137.955 45.7449 137.395 46.0529C136.844 46.3609 136.2 46.5149 135.463 46.5149C134.455 46.5149 133.615 46.2769 132.943 45.8009C132.271 45.3249 131.874 44.6762 131.753 43.8549H133.013C133.153 44.3215 133.442 44.6949 133.881 44.9749C134.32 45.2642 134.847 45.4089 135.463 45.4089C136.163 45.4089 136.732 45.1895 137.171 44.7509C137.619 44.3122 137.843 43.6962 137.843 42.9029V41.2929C137.591 41.7409 137.218 42.1142 136.723 42.4129C136.228 42.7115 135.65 42.8609 134.987 42.8609C134.306 42.8609 133.685 42.6929 133.125 42.3569C132.574 42.0209 132.14 41.5495 131.823 40.9429C131.506 40.3362 131.347 39.6455 131.347 38.8709C131.347 38.0869 131.506 37.4009 131.823 36.8129C132.14 36.2155 132.574 35.7535 133.125 35.4269C133.685 35.1002 134.306 34.9369 134.987 34.9369ZM137.843 38.8849C137.843 38.3062 137.726 37.8022 137.493 37.3729C137.26 36.9435 136.942 36.6169 136.541 36.3929C136.149 36.1595 135.715 36.0429 135.239 36.0429C134.763 36.0429 134.329 36.1549 133.937 36.3789C133.545 36.6029 133.232 36.9295 132.999 37.3589C132.766 37.7882 132.649 38.2922 132.649 38.8709C132.649 39.4589 132.766 39.9722 132.999 40.4109C133.232 40.8402 133.545 41.1715 133.937 41.4049C134.329 41.6289 134.763 41.7409 135.239 41.7409C135.715 41.7409 136.149 41.6289 136.541 41.4049C136.942 41.1715 137.26 40.8402 137.493 40.4109C137.726 39.9722 137.843 39.4635 137.843 38.8849Z" fill="white"/>
<circle cx="30.7035" cy="29.3677" r="14" fill="#FAFCFF"/>
<path d="M34.1 27.9976V27.5161C34.0994 27.0521 33.9149 26.6073 33.5868 26.2793C33.2588 25.9512 32.8139 25.7666 32.35 25.7661H31.475V24.4536H33.225C33.341 24.4537 33.4522 24.4999 33.5342 24.5819C33.6162 24.6639 33.6623 24.7751 33.6625 24.8911C33.6625 25.0071 33.7086 25.1184 33.7906 25.2005C33.8727 25.2825 33.9839 25.3286 34.1 25.3286C34.216 25.3286 34.3273 25.2825 34.4093 25.2005C34.4914 25.1184 34.5375 25.0071 34.5375 24.8911C34.5371 24.5431 34.3987 24.2095 34.1526 23.9635C33.9066 23.7174 33.5729 23.579 33.225 23.5786H29.725C29.6089 23.5786 29.4977 23.6247 29.4156 23.7068C29.3336 23.7888 29.2875 23.9001 29.2875 24.0161C29.2875 24.1321 29.3336 24.2434 29.4156 24.3255C29.4977 24.4075 29.6089 24.4536 29.725 24.4536H30.6V25.7661H29.725C29.261 25.7666 28.8162 25.9512 28.4881 26.2793C28.1601 26.6073 27.9755 27.0521 27.975 27.5161V27.9976C27.4812 28.0991 27.0376 28.3677 26.7188 28.7582C26.4 29.1486 26.2256 29.6371 26.225 30.1411V34.5161C26.2252 34.7481 26.3175 34.9705 26.4816 35.1345C26.6456 35.2986 26.868 35.3908 27.1 35.3911H34.975C35.207 35.3908 35.4294 35.2986 35.5934 35.1345C35.7574 34.9705 35.8497 34.7481 35.85 34.5161V30.1411C35.8493 29.6371 35.6749 29.1486 35.3561 28.7582C35.0374 28.3677 34.5937 28.0991 34.1 27.9976ZM29.725 26.6411H32.35C32.582 26.6414 32.8044 26.7337 32.9684 26.8977C33.1324 27.0617 33.2247 27.2841 33.225 27.5161V27.9536H28.85V27.5161C28.8502 27.2841 28.9425 27.0617 29.1066 26.8977C29.2706 26.7337 29.493 26.6414 29.725 26.6411Z" fill="#F8B644"/>
<rect x="326" y="8" width="38" height="38" rx="5" fill="#FFBB47"/>
<rect x="3" y="252" width="21" height="21" rx="5" fill="#6E59A4"/>
<rect x="316" y="298" width="30" height="29" rx="5" fill="#C0B5DE"/>
</svg>
