<svg width="731" height="515" viewBox="0 0 731 515" fill="none" xmlns="http://www.w3.org/2000/svg">
<path d="M157 82H263V255" stroke="#FFBB47" stroke-width="3" stroke-linecap="round" stroke-dasharray="8 8"/>
<path d="M511 325L511 436L585 436" stroke="#FFBB47" stroke-width="3" stroke-linecap="round" stroke-dasharray="8 8"/>
<rect width="157" height="147" rx="10" fill="#6E59A4"/>
<rect x="574" y="358" width="157" height="157" rx="10" fill="#6E59A4"/>
<path opacity="0.5" d="M22.602 87.114C22.602 86.162 22.8167 85.308 23.246 84.552C23.6753 83.7867 24.2587 83.1893 24.996 82.76C25.7427 82.3307 26.5687 82.116 27.474 82.116C28.538 82.116 29.4667 82.3727 30.26 82.886C31.0533 83.3993 31.632 84.1273 31.996 85.07H30.47C30.1993 84.482 29.8073 84.0293 29.294 83.712C28.79 83.3947 28.1833 83.236 27.474 83.236C26.7927 83.236 26.1813 83.3947 25.64 83.712C25.0987 84.0293 24.674 84.482 24.366 85.07C24.058 85.6487 23.904 86.33 23.904 87.114C23.904 87.8887 24.058 88.57 24.366 89.158C24.674 89.7367 25.0987 90.1847 25.64 90.502C26.1813 90.8193 26.7927 90.978 27.474 90.978C28.1833 90.978 28.79 90.824 29.294 90.516C29.8073 90.1987 30.1993 89.746 30.47 89.158H31.996C31.632 90.0913 31.0533 90.8147 30.26 91.328C29.4667 91.832 28.538 92.084 27.474 92.084C26.5687 92.084 25.7427 91.874 24.996 91.454C24.2587 91.0247 23.6753 90.432 23.246 89.676C22.8167 88.92 22.602 88.066 22.602 87.114ZM40.6965 84.328V92H39.4225V90.866C39.1798 91.258 38.8391 91.566 38.4005 91.79C37.9711 92.0047 37.4951 92.112 36.9725 92.112C36.3751 92.112 35.8385 91.9907 35.3625 91.748C34.8865 91.496 34.5085 91.1227 34.2285 90.628C33.9578 90.1333 33.8225 89.5313 33.8225 88.822V84.328H35.0825V88.654C35.0825 89.41 35.2738 89.9933 35.6565 90.404C36.0391 90.8053 36.5618 91.006 37.2245 91.006C37.9058 91.006 38.4425 90.796 38.8345 90.376C39.2265 89.956 39.4225 89.3447 39.4225 88.542V84.328H40.6965ZM44.1215 85.574C44.3455 85.1353 44.6629 84.7947 45.0735 84.552C45.4935 84.3093 46.0022 84.188 46.5995 84.188V85.504H46.2635C44.8355 85.504 44.1215 86.2787 44.1215 87.828V92H42.8475V84.328H44.1215V85.574ZM51.4162 92.126C50.6975 92.126 50.0442 91.9627 49.4562 91.636C48.8775 91.3093 48.4202 90.8473 48.0842 90.25C47.7575 89.6433 47.5942 88.9433 47.5942 88.15C47.5942 87.366 47.7622 86.6753 48.0982 86.078C48.4435 85.4713 48.9102 85.0093 49.4982 84.692C50.0862 84.3653 50.7442 84.202 51.4722 84.202C52.2002 84.202 52.8582 84.3653 53.4462 84.692C54.0342 85.0093 54.4962 85.4667 54.8322 86.064C55.1775 86.6613 55.3502 87.3567 55.3502 88.15C55.3502 88.9433 55.1729 89.6433 54.8182 90.25C54.4729 90.8473 54.0015 91.3093 53.4042 91.636C52.8069 91.9627 52.1442 92.126 51.4162 92.126ZM51.4162 91.006C51.8735 91.006 52.3029 90.8987 52.7042 90.684C53.1055 90.4693 53.4275 90.1473 53.6702 89.718C53.9222 89.2887 54.0482 88.766 54.0482 88.15C54.0482 87.534 53.9269 87.0113 53.6842 86.582C53.4415 86.1527 53.1242 85.8353 52.7322 85.63C52.3402 85.4153 51.9155 85.308 51.4582 85.308C50.9915 85.308 50.5622 85.4153 50.1702 85.63C49.7875 85.8353 49.4795 86.1527 49.2462 86.582C49.0129 87.0113 48.8962 87.534 48.8962 88.15C48.8962 88.7753 49.0082 89.3027 49.2322 89.732C49.4655 90.1613 49.7735 90.4833 50.1562 90.698C50.5389 90.9033 50.9589 91.006 51.4162 91.006ZM58.2993 81.64V92H57.0253V81.64H58.2993ZM63.8166 92.126C63.0979 92.126 62.4446 91.9627 61.8566 91.636C61.2779 91.3093 60.8206 90.8473 60.4846 90.25C60.1579 89.6433 59.9946 88.9433 59.9946 88.15C59.9946 87.366 60.1626 86.6753 60.4986 86.078C60.8439 85.4713 61.3106 85.0093 61.8986 84.692C62.4866 84.3653 63.1446 84.202 63.8726 84.202C64.6006 84.202 65.2586 84.3653 65.8466 84.692C66.4346 85.0093 66.8966 85.4667 67.2326 86.064C67.5779 86.6613 67.7506 87.3567 67.7506 88.15C67.7506 88.9433 67.5732 89.6433 67.2186 90.25C66.8732 90.8473 66.4019 91.3093 65.8046 91.636C65.2072 91.9627 64.5446 92.126 63.8166 92.126ZM63.8166 91.006C64.2739 91.006 64.7032 90.8987 65.1046 90.684C65.5059 90.4693 65.8279 90.1473 66.0706 89.718C66.3226 89.2887 66.4486 88.766 66.4486 88.15C66.4486 87.534 66.3272 87.0113 66.0846 86.582C65.8419 86.1527 65.5246 85.8353 65.1326 85.63C64.7406 85.4153 64.3159 85.308 63.8586 85.308C63.3919 85.308 62.9626 85.4153 62.5706 85.63C62.1879 85.8353 61.8799 86.1527 61.6466 86.582C61.4132 87.0113 61.2966 87.534 61.2966 88.15C61.2966 88.7753 61.4086 89.3027 61.6326 89.732C61.8659 90.1613 62.1739 90.4833 62.5566 90.698C62.9392 90.9033 63.3592 91.006 63.8166 91.006ZM72.5897 84.202C73.2523 84.202 73.831 84.3467 74.3257 84.636C74.8297 84.9253 75.203 85.2893 75.4457 85.728V84.328H76.7337V92.168C76.7337 92.868 76.5843 93.4887 76.2857 94.03C75.987 94.5807 75.5577 95.01 74.9977 95.318C74.447 95.626 73.803 95.78 73.0657 95.78C72.0577 95.78 71.2177 95.542 70.5457 95.066C69.8737 94.59 69.477 93.9413 69.3557 93.12H70.6157C70.7557 93.5867 71.045 93.96 71.4837 94.24C71.9223 94.5293 72.4497 94.674 73.0657 94.674C73.7657 94.674 74.335 94.4547 74.7737 94.016C75.2217 93.5773 75.4457 92.9613 75.4457 92.168V90.558C75.1937 91.006 74.8203 91.3793 74.3257 91.678C73.831 91.9767 73.2523 92.126 72.5897 92.126C71.9083 92.126 71.2877 91.958 70.7277 91.622C70.177 91.286 69.743 90.8147 69.4257 90.208C69.1083 89.6013 68.9497 88.9107 68.9497 88.136C68.9497 87.352 69.1083 86.666 69.4257 86.078C69.743 85.4807 70.177 85.0187 70.7277 84.692C71.2877 84.3653 71.9083 84.202 72.5897 84.202ZM75.4457 88.15C75.4457 87.5713 75.329 87.0673 75.0957 86.638C74.8623 86.2087 74.545 85.882 74.1437 85.658C73.7517 85.4247 73.3177 85.308 72.8417 85.308C72.3657 85.308 71.9317 85.42 71.5397 85.644C71.1477 85.868 70.835 86.1947 70.6017 86.624C70.3683 87.0533 70.2517 87.5573 70.2517 88.136C70.2517 88.724 70.3683 89.2373 70.6017 89.676C70.835 90.1053 71.1477 90.4367 71.5397 90.67C71.9317 90.894 72.3657 91.006 72.8417 91.006C73.3177 91.006 73.7517 90.894 74.1437 90.67C74.545 90.4367 74.8623 90.1053 75.0957 89.676C75.329 89.2373 75.4457 88.7287 75.4457 88.15ZM85.4946 84.328L80.8746 95.612H79.5586L81.0706 91.916L77.9766 84.328H79.3906L81.7986 90.544L84.1786 84.328H85.4946Z" fill="white"/>
<path d="M22.86 113.02C22.86 111.66 23.1667 110.44 23.78 109.36C24.3933 108.267 25.2267 107.413 26.28 106.8C27.3467 106.187 28.5267 105.88 29.82 105.88C31.34 105.88 32.6667 106.247 33.8 106.98C34.9333 107.713 35.76 108.753 36.28 110.1H34.1C33.7133 109.26 33.1533 108.613 32.42 108.16C31.7 107.707 30.8333 107.48 29.82 107.48C28.8467 107.48 27.9733 107.707 27.2 108.16C26.4267 108.613 25.82 109.26 25.38 110.1C24.94 110.927 24.72 111.9 24.72 113.02C24.72 114.127 24.94 115.1 25.38 115.94C25.82 116.767 26.4267 117.407 27.2 117.86C27.9733 118.313 28.8467 118.54 29.82 118.54C30.8333 118.54 31.7 118.32 32.42 117.88C33.1533 117.427 33.7133 116.78 34.1 115.94H36.28C35.76 117.273 34.9333 118.307 33.8 119.04C32.6667 119.76 31.34 120.12 29.82 120.12C28.5267 120.12 27.3467 119.82 26.28 119.22C25.2267 118.607 24.3933 117.76 23.78 116.68C23.1667 115.6 22.86 114.38 22.86 113.02ZM40.8092 105.2V120H38.9892V105.2H40.8092ZM53.9111 114.1C53.9111 114.447 53.8911 114.813 53.8511 115.2H45.0911C45.1578 116.28 45.5244 117.127 46.1911 117.74C46.8711 118.34 47.6911 118.64 48.6511 118.64C49.4378 118.64 50.0911 118.46 50.6111 118.1C51.1444 117.727 51.5178 117.233 51.7311 116.62H53.6911C53.3978 117.673 52.8111 118.533 51.9311 119.2C51.0511 119.853 49.9578 120.18 48.6511 120.18C47.6111 120.18 46.6778 119.947 45.8511 119.48C45.0378 119.013 44.3978 118.353 43.9311 117.5C43.4644 116.633 43.2311 115.633 43.2311 114.5C43.2311 113.367 43.4578 112.373 43.9111 111.52C44.3644 110.667 44.9978 110.013 45.8111 109.56C46.6378 109.093 47.5844 108.86 48.6511 108.86C49.6911 108.86 50.6111 109.087 51.4111 109.54C52.2111 109.993 52.8244 110.62 53.2511 111.42C53.6911 112.207 53.9111 113.1 53.9111 114.1ZM52.0311 113.72C52.0311 113.027 51.8778 112.433 51.5711 111.94C51.2644 111.433 50.8444 111.053 50.3111 110.8C49.7911 110.533 49.2111 110.4 48.5711 110.4C47.6511 110.4 46.8644 110.693 46.2111 111.28C45.5711 111.867 45.2044 112.68 45.1111 113.72H52.0311ZM55.6334 114.48C55.6334 113.36 55.8601 112.38 56.3134 111.54C56.7668 110.687 57.3868 110.027 58.1734 109.56C58.9734 109.093 59.8601 108.86 60.8334 108.86C61.7934 108.86 62.6268 109.067 63.3334 109.48C64.0401 109.893 64.5668 110.413 64.9134 111.04V109.04H66.7534V120H64.9134V117.96C64.5534 118.6 64.0134 119.133 63.2934 119.56C62.5868 119.973 61.7601 120.18 60.8134 120.18C59.8401 120.18 58.9601 119.94 58.1734 119.46C57.3868 118.98 56.7668 118.307 56.3134 117.44C55.8601 116.573 55.6334 115.587 55.6334 114.48ZM64.9134 114.5C64.9134 113.673 64.7468 112.953 64.4134 112.34C64.0801 111.727 63.6268 111.26 63.0534 110.94C62.4934 110.607 61.8734 110.44 61.1934 110.44C60.5134 110.44 59.8934 110.6 59.3334 110.92C58.7734 111.24 58.3268 111.707 57.9934 112.32C57.6601 112.933 57.4934 113.653 57.4934 114.48C57.4934 115.32 57.6601 116.053 57.9934 116.68C58.3268 117.293 58.7734 117.767 59.3334 118.1C59.8934 118.42 60.5134 118.58 61.1934 118.58C61.8734 118.58 62.4934 118.42 63.0534 118.1C63.6268 117.767 64.0801 117.293 64.4134 116.68C64.7468 116.053 64.9134 115.327 64.9134 114.5ZM75.1691 108.84C76.5024 108.84 77.5824 109.247 78.4091 110.06C79.2357 110.86 79.6491 112.02 79.6491 113.54V120H77.8491V113.8C77.8491 112.707 77.5757 111.873 77.0291 111.3C76.4824 110.713 75.7357 110.42 74.7891 110.42C73.8291 110.42 73.0624 110.72 72.4891 111.32C71.9291 111.92 71.6491 112.793 71.6491 113.94V120H69.8291V109.04H71.6491V110.6C72.0091 110.04 72.4957 109.607 73.1091 109.3C73.7357 108.993 74.4224 108.84 75.1691 108.84ZM86.502 120.18C85.662 120.18 84.9087 120.04 84.242 119.76C83.5754 119.467 83.0487 119.067 82.662 118.56C82.2754 118.04 82.062 117.447 82.022 116.78H83.902C83.9554 117.327 84.2087 117.773 84.662 118.12C85.1287 118.467 85.7354 118.64 86.482 118.64C87.1754 118.64 87.722 118.487 88.122 118.18C88.522 117.873 88.722 117.487 88.722 117.02C88.722 116.54 88.5087 116.187 88.082 115.96C87.6554 115.72 86.9954 115.487 86.102 115.26C85.2887 115.047 84.622 114.833 84.102 114.62C83.5954 114.393 83.1554 114.067 82.782 113.64C82.422 113.2 82.242 112.627 82.242 111.92C82.242 111.36 82.4087 110.847 82.742 110.38C83.0754 109.913 83.5487 109.547 84.162 109.28C84.7754 109 85.4754 108.86 86.262 108.86C87.4754 108.86 88.4554 109.167 89.202 109.78C89.9487 110.393 90.3487 111.233 90.402 112.3H88.582C88.542 111.727 88.3087 111.267 87.882 110.92C87.4687 110.573 86.9087 110.4 86.202 110.4C85.5487 110.4 85.0287 110.54 84.642 110.82C84.2554 111.1 84.062 111.467 84.062 111.92C84.062 112.28 84.1754 112.58 84.402 112.82C84.642 113.047 84.9354 113.233 85.282 113.38C85.642 113.513 86.1354 113.667 86.762 113.84C87.5487 114.053 88.1887 114.267 88.682 114.48C89.1754 114.68 89.5954 114.987 89.942 115.4C90.302 115.813 90.4887 116.353 90.502 117.02C90.502 117.62 90.3354 118.16 90.002 118.64C89.6687 119.12 89.1954 119.5 88.582 119.78C87.982 120.047 87.2887 120.18 86.502 120.18ZM103.071 114.1C103.071 114.447 103.051 114.813 103.011 115.2H94.2513C94.3179 116.28 94.6846 117.127 95.3513 117.74C96.0313 118.34 96.8513 118.64 97.8113 118.64C98.5979 118.64 99.2513 118.46 99.7713 118.1C100.305 117.727 100.678 117.233 100.891 116.62H102.851C102.558 117.673 101.971 118.533 101.091 119.2C100.211 119.853 99.1179 120.18 97.8113 120.18C96.7713 120.18 95.8379 119.947 95.0113 119.48C94.1979 119.013 93.5579 118.353 93.0913 117.5C92.6246 116.633 92.3913 115.633 92.3913 114.5C92.3913 113.367 92.6179 112.373 93.0713 111.52C93.5246 110.667 94.1579 110.013 94.9713 109.56C95.7979 109.093 96.7446 108.86 97.8113 108.86C98.8513 108.86 99.7713 109.087 100.571 109.54C101.371 109.993 101.985 110.62 102.411 111.42C102.851 112.207 103.071 113.1 103.071 114.1ZM101.191 113.72C101.191 113.027 101.038 112.433 100.731 111.94C100.425 111.433 100.005 111.053 99.4713 110.8C98.9513 110.533 98.3713 110.4 97.7313 110.4C96.8113 110.4 96.0246 110.693 95.3713 111.28C94.7313 111.867 94.3646 112.68 94.2713 113.72H101.191ZM107.294 110.82C107.614 110.193 108.067 109.707 108.654 109.36C109.254 109.013 109.98 108.84 110.834 108.84V110.72H110.354C108.314 110.72 107.294 111.827 107.294 114.04V120H105.474V109.04H107.294V110.82Z" fill="white"/>
<circle cx="43" cy="43" r="21" fill="#FAFCFF"/>
<path d="M47.375 40.5629V39.875C47.3742 39.2122 47.1106 38.5767 46.6419 38.1081C46.1733 37.6394 45.5378 37.3758 44.875 37.375H43.625V35.5H46.125C46.2907 35.5002 46.4496 35.5661 46.5667 35.6833C46.6839 35.8004 46.7498 35.9593 46.75 36.125C46.75 36.2908 46.8158 36.4497 46.9331 36.5669C47.0503 36.6842 47.2092 36.75 47.375 36.75C47.5408 36.75 47.6997 36.6842 47.8169 36.5669C47.9342 36.4497 48 36.2908 48 36.125C47.9994 35.6279 47.8017 35.1513 47.4502 34.7998C47.0987 34.4483 46.6221 34.2506 46.125 34.25H41.125C40.9592 34.25 40.8003 34.3158 40.6831 34.4331C40.5658 34.5503 40.5 34.7092 40.5 34.875C40.5 35.0408 40.5658 35.1997 40.6831 35.3169C40.8003 35.4342 40.9592 35.5 41.125 35.5H42.375V37.375H41.125C40.4622 37.3758 39.8267 37.6394 39.3581 38.1081C38.8894 38.5767 38.6258 39.2122 38.625 39.875V40.5629C37.9197 40.7079 37.2859 41.0916 36.8305 41.6494C36.3751 42.2072 36.1259 42.9049 36.125 43.625V49.875C36.1254 50.2064 36.2572 50.5241 36.4915 50.7585C36.7259 50.9928 37.0436 51.1246 37.375 51.125H48.625C48.9564 51.1246 49.2741 50.9928 49.5085 50.7585C49.7428 50.5241 49.8746 50.2064 49.875 49.875V43.625C49.8741 42.9049 49.6249 42.2072 49.1695 41.6494C48.7141 41.0916 48.0803 40.7079 47.375 40.5629V40.5629ZM41.125 38.625H44.875C45.2064 38.6254 45.5241 38.7572 45.7585 38.9915C45.9928 39.2259 46.1246 39.5436 46.125 39.875V40.5H39.875V39.875C39.8754 39.5436 40.0072 39.2259 40.2415 38.9915C40.4759 38.7572 40.7936 38.6254 41.125 38.625Z" fill="#FFBB47"/>
<path opacity="0.5" d="M596.602 450.114C596.602 449.162 596.817 448.308 597.246 447.552C597.675 446.787 598.259 446.189 598.996 445.76C599.743 445.331 600.569 445.116 601.474 445.116C602.538 445.116 603.467 445.373 604.26 445.886C605.053 446.399 605.632 447.127 605.996 448.07H604.47C604.199 447.482 603.807 447.029 603.294 446.712C602.79 446.395 602.183 446.236 601.474 446.236C600.793 446.236 600.181 446.395 599.64 446.712C599.099 447.029 598.674 447.482 598.366 448.07C598.058 448.649 597.904 449.33 597.904 450.114C597.904 450.889 598.058 451.57 598.366 452.158C598.674 452.737 599.099 453.185 599.64 453.502C600.181 453.819 600.793 453.978 601.474 453.978C602.183 453.978 602.79 453.824 603.294 453.516C603.807 453.199 604.199 452.746 604.47 452.158H605.996C605.632 453.091 605.053 453.815 604.26 454.328C603.467 454.832 602.538 455.084 601.474 455.084C600.569 455.084 599.743 454.874 598.996 454.454C598.259 454.025 597.675 453.432 597.246 452.676C596.817 451.92 596.602 451.066 596.602 450.114ZM614.696 447.328V455H613.422V453.866C613.18 454.258 612.839 454.566 612.4 454.79C611.971 455.005 611.495 455.112 610.972 455.112C610.375 455.112 609.838 454.991 609.362 454.748C608.886 454.496 608.508 454.123 608.228 453.628C607.958 453.133 607.822 452.531 607.822 451.822V447.328H609.082V451.654C609.082 452.41 609.274 452.993 609.656 453.404C610.039 453.805 610.562 454.006 611.224 454.006C611.906 454.006 612.442 453.796 612.834 453.376C613.226 452.956 613.422 452.345 613.422 451.542V447.328H614.696ZM618.122 448.574C618.346 448.135 618.663 447.795 619.074 447.552C619.494 447.309 620.002 447.188 620.6 447.188V448.504H620.264C618.836 448.504 618.122 449.279 618.122 450.828V455H616.848V447.328H618.122V448.574ZM625.416 455.126C624.698 455.126 624.044 454.963 623.456 454.636C622.878 454.309 622.42 453.847 622.084 453.25C621.758 452.643 621.594 451.943 621.594 451.15C621.594 450.366 621.762 449.675 622.098 449.078C622.444 448.471 622.91 448.009 623.498 447.692C624.086 447.365 624.744 447.202 625.472 447.202C626.2 447.202 626.858 447.365 627.446 447.692C628.034 448.009 628.496 448.467 628.832 449.064C629.178 449.661 629.35 450.357 629.35 451.15C629.35 451.943 629.173 452.643 628.818 453.25C628.473 453.847 628.002 454.309 627.404 454.636C626.807 454.963 626.144 455.126 625.416 455.126ZM625.416 454.006C625.874 454.006 626.303 453.899 626.704 453.684C627.106 453.469 627.428 453.147 627.67 452.718C627.922 452.289 628.048 451.766 628.048 451.15C628.048 450.534 627.927 450.011 627.684 449.582C627.442 449.153 627.124 448.835 626.732 448.63C626.34 448.415 625.916 448.308 625.458 448.308C624.992 448.308 624.562 448.415 624.17 448.63C623.788 448.835 623.48 449.153 623.246 449.582C623.013 450.011 622.896 450.534 622.896 451.15C622.896 451.775 623.008 452.303 623.232 452.732C623.466 453.161 623.774 453.483 624.156 453.698C624.539 453.903 624.959 454.006 625.416 454.006ZM632.299 444.64V455H631.025V444.64H632.299ZM637.817 455.126C637.098 455.126 636.445 454.963 635.857 454.636C635.278 454.309 634.821 453.847 634.485 453.25C634.158 452.643 633.995 451.943 633.995 451.15C633.995 450.366 634.163 449.675 634.499 449.078C634.844 448.471 635.311 448.009 635.899 447.692C636.487 447.365 637.145 447.202 637.873 447.202C638.601 447.202 639.259 447.365 639.847 447.692C640.435 448.009 640.897 448.467 641.233 449.064C641.578 449.661 641.751 450.357 641.751 451.15C641.751 451.943 641.573 452.643 641.219 453.25C640.873 453.847 640.402 454.309 639.805 454.636C639.207 454.963 638.545 455.126 637.817 455.126ZM637.817 454.006C638.274 454.006 638.703 453.899 639.105 453.684C639.506 453.469 639.828 453.147 640.071 452.718C640.323 452.289 640.449 451.766 640.449 451.15C640.449 450.534 640.327 450.011 640.085 449.582C639.842 449.153 639.525 448.835 639.133 448.63C638.741 448.415 638.316 448.308 637.859 448.308C637.392 448.308 636.963 448.415 636.571 448.63C636.188 448.835 635.88 449.153 635.647 449.582C635.413 450.011 635.297 450.534 635.297 451.15C635.297 451.775 635.409 452.303 635.633 452.732C635.866 453.161 636.174 453.483 636.557 453.698C636.939 453.903 637.359 454.006 637.817 454.006ZM646.59 447.202C647.252 447.202 647.831 447.347 648.326 447.636C648.83 447.925 649.203 448.289 649.446 448.728V447.328H650.734V455.168C650.734 455.868 650.584 456.489 650.286 457.03C649.987 457.581 649.558 458.01 648.998 458.318C648.447 458.626 647.803 458.78 647.066 458.78C646.058 458.78 645.218 458.542 644.546 458.066C643.874 457.59 643.477 456.941 643.356 456.12H644.616C644.756 456.587 645.045 456.96 645.484 457.24C645.922 457.529 646.45 457.674 647.066 457.674C647.766 457.674 648.335 457.455 648.774 457.016C649.222 456.577 649.446 455.961 649.446 455.168V453.558C649.194 454.006 648.82 454.379 648.326 454.678C647.831 454.977 647.252 455.126 646.59 455.126C645.908 455.126 645.288 454.958 644.728 454.622C644.177 454.286 643.743 453.815 643.426 453.208C643.108 452.601 642.95 451.911 642.95 451.136C642.95 450.352 643.108 449.666 643.426 449.078C643.743 448.481 644.177 448.019 644.728 447.692C645.288 447.365 645.908 447.202 646.59 447.202ZM649.446 451.15C649.446 450.571 649.329 450.067 649.096 449.638C648.862 449.209 648.545 448.882 648.144 448.658C647.752 448.425 647.318 448.308 646.842 448.308C646.366 448.308 645.932 448.42 645.54 448.644C645.148 448.868 644.835 449.195 644.602 449.624C644.368 450.053 644.252 450.557 644.252 451.136C644.252 451.724 644.368 452.237 644.602 452.676C644.835 453.105 645.148 453.437 645.54 453.67C645.932 453.894 646.366 454.006 646.842 454.006C647.318 454.006 647.752 453.894 648.144 453.67C648.545 453.437 648.862 453.105 649.096 452.676C649.329 452.237 649.446 451.729 649.446 451.15ZM659.495 447.328L654.875 458.612H653.559L655.071 454.916L651.977 447.328H653.391L655.799 453.544L658.179 447.328H659.495Z" fill="white"/>
<path d="M611.68 469.16V483H609.86V472.68L605.26 483H603.98L599.36 472.66V483H597.54V469.16H599.5L604.62 480.6L609.74 469.16H611.68ZM619.547 483.18C618.52 483.18 617.587 482.947 616.747 482.48C615.92 482.013 615.267 481.353 614.787 480.5C614.32 479.633 614.087 478.633 614.087 477.5C614.087 476.38 614.327 475.393 614.807 474.54C615.3 473.673 615.967 473.013 616.807 472.56C617.647 472.093 618.587 471.86 619.627 471.86C620.667 471.86 621.607 472.093 622.447 472.56C623.287 473.013 623.947 473.667 624.427 474.52C624.92 475.373 625.167 476.367 625.167 477.5C625.167 478.633 624.913 479.633 624.407 480.5C623.913 481.353 623.24 482.013 622.387 482.48C621.533 482.947 620.587 483.18 619.547 483.18ZM619.547 481.58C620.2 481.58 620.813 481.427 621.387 481.12C621.96 480.813 622.42 480.353 622.767 479.74C623.127 479.127 623.307 478.38 623.307 477.5C623.307 476.62 623.133 475.873 622.787 475.26C622.44 474.647 621.987 474.193 621.427 473.9C620.867 473.593 620.26 473.44 619.607 473.44C618.94 473.44 618.327 473.593 617.767 473.9C617.22 474.193 616.78 474.647 616.447 475.26C616.113 475.873 615.947 476.62 615.947 477.5C615.947 478.393 616.107 479.147 616.427 479.76C616.76 480.373 617.2 480.833 617.747 481.14C618.293 481.433 618.893 481.58 619.547 481.58ZM631.44 483.18C630.6 483.18 629.846 483.04 629.18 482.76C628.513 482.467 627.986 482.067 627.6 481.56C627.213 481.04 627 480.447 626.96 479.78H628.84C628.893 480.327 629.146 480.773 629.6 481.12C630.066 481.467 630.673 481.64 631.42 481.64C632.113 481.64 632.66 481.487 633.06 481.18C633.46 480.873 633.66 480.487 633.66 480.02C633.66 479.54 633.446 479.187 633.02 478.96C632.593 478.72 631.933 478.487 631.04 478.26C630.226 478.047 629.56 477.833 629.04 477.62C628.533 477.393 628.093 477.067 627.72 476.64C627.36 476.2 627.18 475.627 627.18 474.92C627.18 474.36 627.346 473.847 627.68 473.38C628.013 472.913 628.486 472.547 629.1 472.28C629.713 472 630.413 471.86 631.2 471.86C632.413 471.86 633.393 472.167 634.14 472.78C634.886 473.393 635.286 474.233 635.34 475.3H633.52C633.48 474.727 633.246 474.267 632.82 473.92C632.406 473.573 631.846 473.4 631.14 473.4C630.486 473.4 629.966 473.54 629.58 473.82C629.193 474.1 629 474.467 629 474.92C629 475.28 629.113 475.58 629.34 475.82C629.58 476.047 629.873 476.233 630.22 476.38C630.58 476.513 631.073 476.667 631.7 476.84C632.486 477.053 633.126 477.267 633.62 477.48C634.113 477.68 634.533 477.987 634.88 478.4C635.24 478.813 635.426 479.353 635.44 480.02C635.44 480.62 635.273 481.16 634.94 481.64C634.606 482.12 634.133 482.5 633.52 482.78C632.92 483.047 632.226 483.18 631.44 483.18ZM640.229 473.54V480C640.229 480.533 640.342 480.913 640.569 481.14C640.795 481.353 641.189 481.46 641.749 481.46H643.089V483H641.449C640.435 483 639.675 482.767 639.169 482.3C638.662 481.833 638.409 481.067 638.409 480V473.54H636.989V472.04H638.409V469.28H640.229V472.04H643.089V473.54H640.229ZM655.014 472.04V483H653.194V481.38C652.847 481.94 652.361 482.38 651.734 482.7C651.121 483.007 650.441 483.16 649.694 483.16C648.841 483.16 648.074 482.987 647.394 482.64C646.714 482.28 646.174 481.747 645.774 481.04C645.387 480.333 645.194 479.473 645.194 478.46V472.04H646.994V478.22C646.994 479.3 647.267 480.133 647.814 480.72C648.361 481.293 649.107 481.58 650.054 481.58C651.027 481.58 651.794 481.28 652.354 480.68C652.914 480.08 653.194 479.207 653.194 478.06V472.04H655.014ZM659.907 473.82C660.227 473.193 660.68 472.707 661.267 472.36C661.867 472.013 662.594 471.84 663.447 471.84V473.72H662.967C660.927 473.72 659.907 474.827 659.907 477.04V483H658.087V472.04H659.907V473.82ZM666.488 470.26C666.141 470.26 665.848 470.14 665.608 469.9C665.368 469.66 665.248 469.367 665.248 469.02C665.248 468.673 665.368 468.38 665.608 468.14C665.848 467.9 666.141 467.78 666.488 467.78C666.821 467.78 667.101 467.9 667.328 468.14C667.568 468.38 667.688 468.673 667.688 469.02C667.688 469.367 667.568 469.66 667.328 469.9C667.101 470.14 666.821 470.26 666.488 470.26ZM667.368 472.04V483H665.548V472.04H667.368ZM671.83 481.5H677.21V483H669.75V481.5L675.07 473.52H669.79V472.04H677.17V473.52L671.83 481.5ZM689.571 477.1C689.571 477.447 689.551 477.813 689.511 478.2H680.751C680.818 479.28 681.185 480.127 681.851 480.74C682.531 481.34 683.351 481.64 684.311 481.64C685.098 481.64 685.751 481.46 686.271 481.1C686.805 480.727 687.178 480.233 687.391 479.62H689.351C689.058 480.673 688.471 481.533 687.591 482.2C686.711 482.853 685.618 483.18 684.311 483.18C683.271 483.18 682.338 482.947 681.511 482.48C680.698 482.013 680.058 481.353 679.591 480.5C679.125 479.633 678.891 478.633 678.891 477.5C678.891 476.367 679.118 475.373 679.571 474.52C680.025 473.667 680.658 473.013 681.471 472.56C682.298 472.093 683.245 471.86 684.311 471.86C685.351 471.86 686.271 472.087 687.071 472.54C687.871 472.993 688.485 473.62 688.911 474.42C689.351 475.207 689.571 476.1 689.571 477.1ZM687.691 476.72C687.691 476.027 687.538 475.433 687.231 474.94C686.925 474.433 686.505 474.053 685.971 473.8C685.451 473.533 684.871 473.4 684.231 473.4C683.311 473.4 682.525 473.693 681.871 474.28C681.231 474.867 680.865 475.68 680.771 476.72H687.691ZM693.794 473.82C694.114 473.193 694.567 472.707 695.154 472.36C695.754 472.013 696.48 471.84 697.334 471.84V473.72H696.854C694.814 473.72 693.794 474.827 693.794 477.04V483H691.974V472.04H693.794V473.82Z" fill="white"/>
<circle cx="617" cy="406" r="21" fill="#FAFCFF"/>
<path d="M621.375 403.563V402.875C621.374 402.212 621.111 401.577 620.642 401.108C620.173 400.639 619.538 400.376 618.875 400.375H617.625V398.5H620.125C620.291 398.5 620.45 398.566 620.567 398.683C620.684 398.8 620.75 398.959 620.75 399.125C620.75 399.291 620.816 399.45 620.933 399.567C621.05 399.684 621.209 399.75 621.375 399.75C621.541 399.75 621.7 399.684 621.817 399.567C621.934 399.45 622 399.291 622 399.125C621.999 398.628 621.802 398.151 621.45 397.8C621.099 397.448 620.622 397.251 620.125 397.25H615.125C614.959 397.25 614.8 397.316 614.683 397.433C614.566 397.55 614.5 397.709 614.5 397.875C614.5 398.041 614.566 398.2 614.683 398.317C614.8 398.434 614.959 398.5 615.125 398.5H616.375V400.375H615.125C614.462 400.376 613.827 400.639 613.358 401.108C612.889 401.577 612.626 402.212 612.625 402.875V403.563C611.92 403.708 611.286 404.092 610.83 404.649C610.375 405.207 610.126 405.905 610.125 406.625V412.875C610.125 413.206 610.257 413.524 610.492 413.758C610.726 413.993 611.044 414.125 611.375 414.125H622.625C622.956 414.125 623.274 413.993 623.508 413.758C623.743 413.524 623.875 413.206 623.875 412.875V406.625C623.874 405.905 623.625 405.207 623.17 404.649C622.714 404.092 622.08 403.708 621.375 403.563V403.563ZM615.125 401.625H618.875C619.206 401.625 619.524 401.757 619.758 401.992C619.993 402.226 620.125 402.544 620.125 402.875V403.5H613.875V402.875C613.875 402.544 614.007 402.226 614.242 401.992C614.476 401.757 614.794 401.625 615.125 401.625Z" fill="#FFBB47"/>
<g filter="url(#filter0_f_14_100)">
<circle cx="511" cy="314" r="7" fill="white"/>
</g>
<circle cx="511" cy="314" r="4" fill="#FFBB47"/>
<g filter="url(#filter1_f_14_100)">
<circle cx="263" cy="266" r="7" fill="white"/>
</g>
<circle cx="263" cy="266" r="4" fill="#FFBB47"/>
<defs>
<filter id="filter0_f_14_100" x="503" y="306" width="16" height="16" filterUnits="userSpaceOnUse" color-interpolation-filters="sRGB">
<feFlood flood-opacity="0" result="BackgroundImageFix"/>
<feBlend mode="normal" in="SourceGraphic" in2="BackgroundImageFix" result="shape"/>
<feGaussianBlur stdDeviation="0.5" result="effect1_foregroundBlur_14_100"/>
</filter>
<filter id="filter1_f_14_100" x="255" y="258" width="16" height="16" filterUnits="userSpaceOnUse" color-interpolation-filters="sRGB">
<feFlood flood-opacity="0" result="BackgroundImageFix"/>
<feBlend mode="normal" in="SourceGraphic" in2="BackgroundImageFix" result="shape"/>
<feGaussianBlur stdDeviation="0.5" result="effect1_foregroundBlur_14_100"/>
</filter>
</defs>
</svg>
