<svg width="375" height="474" viewBox="0 0 375 474" fill="none" xmlns="http://www.w3.org/2000/svg">
<rect x="-22" y="48" width="418" height="426"/>
<path d="M216 76H110V273" stroke="#FFBB47" stroke-width="3" stroke-linecap="round" stroke-dasharray="8 8"/>
<g filter="url(#filter0_f_2_109)">
<circle cx="7" cy="7" r="7" transform="matrix(-1 0 0 1 117 277)" fill="white"/>
</g>
<rect x="205" width="157" height="147" rx="10" fill="#6E59A4"/>
<path opacity="0.5" d="M227.602 87.114C227.602 86.162 227.817 85.308 228.246 84.552C228.675 83.7867 229.259 83.1893 229.996 82.76C230.743 82.3307 231.569 82.116 232.474 82.116C233.538 82.116 234.467 82.3727 235.26 82.886C236.053 83.3993 236.632 84.1273 236.996 85.07H235.47C235.199 84.482 234.807 84.0293 234.294 83.712C233.79 83.3947 233.183 83.236 232.474 83.236C231.793 83.236 231.181 83.3947 230.64 83.712C230.099 84.0293 229.674 84.482 229.366 85.07C229.058 85.6487 228.904 86.33 228.904 87.114C228.904 87.8887 229.058 88.57 229.366 89.158C229.674 89.7367 230.099 90.1847 230.64 90.502C231.181 90.8193 231.793 90.978 232.474 90.978C233.183 90.978 233.79 90.824 234.294 90.516C234.807 90.1987 235.199 89.746 235.47 89.158H236.996C236.632 90.0913 236.053 90.8147 235.26 91.328C234.467 91.832 233.538 92.084 232.474 92.084C231.569 92.084 230.743 91.874 229.996 91.454C229.259 91.0247 228.675 90.432 228.246 89.676C227.817 88.92 227.602 88.066 227.602 87.114ZM245.696 84.328V92H244.422V90.866C244.18 91.258 243.839 91.566 243.4 91.79C242.971 92.0047 242.495 92.112 241.972 92.112C241.375 92.112 240.838 91.9907 240.362 91.748C239.886 91.496 239.508 91.1227 239.228 90.628C238.958 90.1333 238.822 89.5313 238.822 88.822V84.328H240.082V88.654C240.082 89.41 240.274 89.9933 240.656 90.404C241.039 90.8053 241.562 91.006 242.224 91.006C242.906 91.006 243.442 90.796 243.834 90.376C244.226 89.956 244.422 89.3447 244.422 88.542V84.328H245.696ZM249.122 85.574C249.346 85.1353 249.663 84.7947 250.074 84.552C250.494 84.3093 251.002 84.188 251.6 84.188V85.504H251.264C249.836 85.504 249.122 86.2787 249.122 87.828V92H247.848V84.328H249.122V85.574ZM256.416 92.126C255.698 92.126 255.044 91.9627 254.456 91.636C253.878 91.3093 253.42 90.8473 253.084 90.25C252.758 89.6433 252.594 88.9433 252.594 88.15C252.594 87.366 252.762 86.6753 253.098 86.078C253.444 85.4713 253.91 85.0093 254.498 84.692C255.086 84.3653 255.744 84.202 256.472 84.202C257.2 84.202 257.858 84.3653 258.446 84.692C259.034 85.0093 259.496 85.4667 259.832 86.064C260.178 86.6613 260.35 87.3567 260.35 88.15C260.35 88.9433 260.173 89.6433 259.818 90.25C259.473 90.8473 259.002 91.3093 258.404 91.636C257.807 91.9627 257.144 92.126 256.416 92.126ZM256.416 91.006C256.874 91.006 257.303 90.8987 257.704 90.684C258.106 90.4693 258.428 90.1473 258.67 89.718C258.922 89.2887 259.048 88.766 259.048 88.15C259.048 87.534 258.927 87.0113 258.684 86.582C258.442 86.1527 258.124 85.8353 257.732 85.63C257.34 85.4153 256.916 85.308 256.458 85.308C255.992 85.308 255.562 85.4153 255.17 85.63C254.788 85.8353 254.48 86.1527 254.246 86.582C254.013 87.0113 253.896 87.534 253.896 88.15C253.896 88.7753 254.008 89.3027 254.232 89.732C254.466 90.1613 254.774 90.4833 255.156 90.698C255.539 90.9033 255.959 91.006 256.416 91.006ZM263.299 81.64V92H262.025V81.64H263.299ZM268.817 92.126C268.098 92.126 267.445 91.9627 266.857 91.636C266.278 91.3093 265.821 90.8473 265.485 90.25C265.158 89.6433 264.995 88.9433 264.995 88.15C264.995 87.366 265.163 86.6753 265.499 86.078C265.844 85.4713 266.311 85.0093 266.899 84.692C267.487 84.3653 268.145 84.202 268.873 84.202C269.601 84.202 270.259 84.3653 270.847 84.692C271.435 85.0093 271.897 85.4667 272.233 86.064C272.578 86.6613 272.751 87.3567 272.751 88.15C272.751 88.9433 272.573 89.6433 272.219 90.25C271.873 90.8473 271.402 91.3093 270.805 91.636C270.207 91.9627 269.545 92.126 268.817 92.126ZM268.817 91.006C269.274 91.006 269.703 90.8987 270.105 90.684C270.506 90.4693 270.828 90.1473 271.071 89.718C271.323 89.2887 271.449 88.766 271.449 88.15C271.449 87.534 271.327 87.0113 271.085 86.582C270.842 86.1527 270.525 85.8353 270.133 85.63C269.741 85.4153 269.316 85.308 268.859 85.308C268.392 85.308 267.963 85.4153 267.571 85.63C267.188 85.8353 266.88 86.1527 266.647 86.582C266.413 87.0113 266.297 87.534 266.297 88.15C266.297 88.7753 266.409 89.3027 266.633 89.732C266.866 90.1613 267.174 90.4833 267.557 90.698C267.939 90.9033 268.359 91.006 268.817 91.006ZM277.59 84.202C278.252 84.202 278.831 84.3467 279.326 84.636C279.83 84.9253 280.203 85.2893 280.446 85.728V84.328H281.734V92.168C281.734 92.868 281.584 93.4887 281.286 94.03C280.987 94.5807 280.558 95.01 279.998 95.318C279.447 95.626 278.803 95.78 278.066 95.78C277.058 95.78 276.218 95.542 275.546 95.066C274.874 94.59 274.477 93.9413 274.356 93.12H275.616C275.756 93.5867 276.045 93.96 276.484 94.24C276.922 94.5293 277.45 94.674 278.066 94.674C278.766 94.674 279.335 94.4547 279.774 94.016C280.222 93.5773 280.446 92.9613 280.446 92.168V90.558C280.194 91.006 279.82 91.3793 279.326 91.678C278.831 91.9767 278.252 92.126 277.59 92.126C276.908 92.126 276.288 91.958 275.728 91.622C275.177 91.286 274.743 90.8147 274.426 90.208C274.108 89.6013 273.95 88.9107 273.95 88.136C273.95 87.352 274.108 86.666 274.426 86.078C274.743 85.4807 275.177 85.0187 275.728 84.692C276.288 84.3653 276.908 84.202 277.59 84.202ZM280.446 88.15C280.446 87.5713 280.329 87.0673 280.096 86.638C279.862 86.2087 279.545 85.882 279.144 85.658C278.752 85.4247 278.318 85.308 277.842 85.308C277.366 85.308 276.932 85.42 276.54 85.644C276.148 85.868 275.835 86.1947 275.602 86.624C275.368 87.0533 275.252 87.5573 275.252 88.136C275.252 88.724 275.368 89.2373 275.602 89.676C275.835 90.1053 276.148 90.4367 276.54 90.67C276.932 90.894 277.366 91.006 277.842 91.006C278.318 91.006 278.752 90.894 279.144 90.67C279.545 90.4367 279.862 90.1053 280.096 89.676C280.329 89.2373 280.446 88.7287 280.446 88.15ZM290.495 84.328L285.875 95.612H284.559L286.071 91.916L282.977 84.328H284.391L286.799 90.544L289.179 84.328H290.495Z" fill="white"/>
<path d="M227.86 113.02C227.86 111.66 228.167 110.44 228.78 109.36C229.393 108.267 230.227 107.413 231.28 106.8C232.347 106.187 233.527 105.88 234.82 105.88C236.34 105.88 237.667 106.247 238.8 106.98C239.933 107.713 240.76 108.753 241.28 110.1H239.1C238.713 109.26 238.153 108.613 237.42 108.16C236.7 107.707 235.833 107.48 234.82 107.48C233.847 107.48 232.973 107.707 232.2 108.16C231.427 108.613 230.82 109.26 230.38 110.1C229.94 110.927 229.72 111.9 229.72 113.02C229.72 114.127 229.94 115.1 230.38 115.94C230.82 116.767 231.427 117.407 232.2 117.86C232.973 118.313 233.847 118.54 234.82 118.54C235.833 118.54 236.7 118.32 237.42 117.88C238.153 117.427 238.713 116.78 239.1 115.94H241.28C240.76 117.273 239.933 118.307 238.8 119.04C237.667 119.76 236.34 120.12 234.82 120.12C233.527 120.12 232.347 119.82 231.28 119.22C230.227 118.607 229.393 117.76 228.78 116.68C228.167 115.6 227.86 114.38 227.86 113.02ZM245.809 105.2V120H243.989V105.2H245.809ZM258.911 114.1C258.911 114.447 258.891 114.813 258.851 115.2H250.091C250.158 116.28 250.524 117.127 251.191 117.74C251.871 118.34 252.691 118.64 253.651 118.64C254.438 118.64 255.091 118.46 255.611 118.1C256.144 117.727 256.518 117.233 256.731 116.62H258.691C258.398 117.673 257.811 118.533 256.931 119.2C256.051 119.853 254.958 120.18 253.651 120.18C252.611 120.18 251.678 119.947 250.851 119.48C250.038 119.013 249.398 118.353 248.931 117.5C248.464 116.633 248.231 115.633 248.231 114.5C248.231 113.367 248.458 112.373 248.911 111.52C249.364 110.667 249.998 110.013 250.811 109.56C251.638 109.093 252.584 108.86 253.651 108.86C254.691 108.86 255.611 109.087 256.411 109.54C257.211 109.993 257.824 110.62 258.251 111.42C258.691 112.207 258.911 113.1 258.911 114.1ZM257.031 113.72C257.031 113.027 256.878 112.433 256.571 111.94C256.264 111.433 255.844 111.053 255.311 110.8C254.791 110.533 254.211 110.4 253.571 110.4C252.651 110.4 251.864 110.693 251.211 111.28C250.571 111.867 250.204 112.68 250.111 113.72H257.031ZM260.633 114.48C260.633 113.36 260.86 112.38 261.313 111.54C261.767 110.687 262.387 110.027 263.173 109.56C263.973 109.093 264.86 108.86 265.833 108.86C266.793 108.86 267.627 109.067 268.333 109.48C269.04 109.893 269.567 110.413 269.913 111.04V109.04H271.753V120H269.913V117.96C269.553 118.6 269.013 119.133 268.293 119.56C267.587 119.973 266.76 120.18 265.813 120.18C264.84 120.18 263.96 119.94 263.173 119.46C262.387 118.98 261.767 118.307 261.313 117.44C260.86 116.573 260.633 115.587 260.633 114.48ZM269.913 114.5C269.913 113.673 269.747 112.953 269.413 112.34C269.08 111.727 268.627 111.26 268.053 110.94C267.493 110.607 266.873 110.44 266.193 110.44C265.513 110.44 264.893 110.6 264.333 110.92C263.773 111.24 263.327 111.707 262.993 112.32C262.66 112.933 262.493 113.653 262.493 114.48C262.493 115.32 262.66 116.053 262.993 116.68C263.327 117.293 263.773 117.767 264.333 118.1C264.893 118.42 265.513 118.58 266.193 118.58C266.873 118.58 267.493 118.42 268.053 118.1C268.627 117.767 269.08 117.293 269.413 116.68C269.747 116.053 269.913 115.327 269.913 114.5ZM280.169 108.84C281.502 108.84 282.582 109.247 283.409 110.06C284.236 110.86 284.649 112.02 284.649 113.54V120H282.849V113.8C282.849 112.707 282.576 111.873 282.029 111.3C281.482 110.713 280.736 110.42 279.789 110.42C278.829 110.42 278.062 110.72 277.489 111.32C276.929 111.92 276.649 112.793 276.649 113.94V120H274.829V109.04H276.649V110.6C277.009 110.04 277.496 109.607 278.109 109.3C278.736 108.993 279.422 108.84 280.169 108.84ZM291.502 120.18C290.662 120.18 289.909 120.04 289.242 119.76C288.575 119.467 288.049 119.067 287.662 118.56C287.275 118.04 287.062 117.447 287.022 116.78H288.902C288.955 117.327 289.209 117.773 289.662 118.12C290.129 118.467 290.735 118.64 291.482 118.64C292.175 118.64 292.722 118.487 293.122 118.18C293.522 117.873 293.722 117.487 293.722 117.02C293.722 116.54 293.509 116.187 293.082 115.96C292.655 115.72 291.995 115.487 291.102 115.26C290.289 115.047 289.622 114.833 289.102 114.62C288.595 114.393 288.155 114.067 287.782 113.64C287.422 113.2 287.242 112.627 287.242 111.92C287.242 111.36 287.409 110.847 287.742 110.38C288.075 109.913 288.549 109.547 289.162 109.28C289.775 109 290.475 108.86 291.262 108.86C292.475 108.86 293.455 109.167 294.202 109.78C294.949 110.393 295.349 111.233 295.402 112.3H293.582C293.542 111.727 293.309 111.267 292.882 110.92C292.469 110.573 291.909 110.4 291.202 110.4C290.549 110.4 290.029 110.54 289.642 110.82C289.255 111.1 289.062 111.467 289.062 111.92C289.062 112.28 289.175 112.58 289.402 112.82C289.642 113.047 289.935 113.233 290.282 113.38C290.642 113.513 291.135 113.667 291.762 113.84C292.549 114.053 293.189 114.267 293.682 114.48C294.175 114.68 294.595 114.987 294.942 115.4C295.302 115.813 295.489 116.353 295.502 117.02C295.502 117.62 295.335 118.16 295.002 118.64C294.669 119.12 294.195 119.5 293.582 119.78C292.982 120.047 292.289 120.18 291.502 120.18ZM308.071 114.1C308.071 114.447 308.051 114.813 308.011 115.2H299.251C299.318 116.28 299.685 117.127 300.351 117.74C301.031 118.34 301.851 118.64 302.811 118.64C303.598 118.64 304.251 118.46 304.771 118.1C305.305 117.727 305.678 117.233 305.891 116.62H307.851C307.558 117.673 306.971 118.533 306.091 119.2C305.211 119.853 304.118 120.18 302.811 120.18C301.771 120.18 300.838 119.947 300.011 119.48C299.198 119.013 298.558 118.353 298.091 117.5C297.625 116.633 297.391 115.633 297.391 114.5C297.391 113.367 297.618 112.373 298.071 111.52C298.525 110.667 299.158 110.013 299.971 109.56C300.798 109.093 301.745 108.86 302.811 108.86C303.851 108.86 304.771 109.087 305.571 109.54C306.371 109.993 306.985 110.62 307.411 111.42C307.851 112.207 308.071 113.1 308.071 114.1ZM306.191 113.72C306.191 113.027 306.038 112.433 305.731 111.94C305.425 111.433 305.005 111.053 304.471 110.8C303.951 110.533 303.371 110.4 302.731 110.4C301.811 110.4 301.025 110.693 300.371 111.28C299.731 111.867 299.365 112.68 299.271 113.72H306.191ZM312.294 110.82C312.614 110.193 313.067 109.707 313.654 109.36C314.254 109.013 314.98 108.84 315.834 108.84V110.72H315.354C313.314 110.72 312.294 111.827 312.294 114.04V120H310.474V109.04H312.294V110.82Z" fill="white"/>
<circle cx="248" cy="43" r="21" fill="#FAFCFF"/>
<path d="M252.375 40.5629V39.875C252.374 39.2122 252.111 38.5767 251.642 38.1081C251.173 37.6394 250.538 37.3758 249.875 37.375H248.625V35.5H251.125C251.291 35.5002 251.45 35.5661 251.567 35.6833C251.684 35.8004 251.75 35.9593 251.75 36.125C251.75 36.2908 251.816 36.4497 251.933 36.5669C252.05 36.6842 252.209 36.75 252.375 36.75C252.541 36.75 252.7 36.6842 252.817 36.5669C252.934 36.4497 253 36.2908 253 36.125C252.999 35.6279 252.802 35.1513 252.45 34.7998C252.099 34.4483 251.622 34.2506 251.125 34.25H246.125C245.959 34.25 245.8 34.3158 245.683 34.4331C245.566 34.5503 245.5 34.7092 245.5 34.875C245.5 35.0408 245.566 35.1997 245.683 35.3169C245.8 35.4342 245.959 35.5 246.125 35.5H247.375V37.375H246.125C245.462 37.3758 244.827 37.6394 244.358 38.1081C243.889 38.5767 243.626 39.2122 243.625 39.875V40.5629C242.92 40.7079 242.286 41.0916 241.83 41.6494C241.375 42.2072 241.126 42.9049 241.125 43.625V49.875C241.125 50.2064 241.257 50.5241 241.492 50.7585C241.726 50.9928 242.044 51.1246 242.375 51.125H253.625C253.956 51.1246 254.274 50.9928 254.508 50.7585C254.743 50.5241 254.875 50.2064 254.875 49.875V43.625C254.874 42.9049 254.625 42.2072 254.17 41.6494C253.714 41.0916 253.08 40.7079 252.375 40.5629ZM246.125 38.625H249.875C250.206 38.6254 250.524 38.7572 250.758 38.9915C250.993 39.2259 251.125 39.5436 251.125 39.875V40.5H244.875V39.875C244.875 39.5436 245.007 39.2259 245.242 38.9915C245.476 38.7572 245.794 38.6254 246.125 38.625Z" fill="#FFBB47"/>
<defs>
<filter id="filter0_f_2_109" x="102" y="276" width="16" height="16" filterUnits="userSpaceOnUse" color-interpolation-filters="sRGB">
<feFlood flood-opacity="0" result="BackgroundImageFix"/>
<feBlend mode="normal" in="SourceGraphic" in2="BackgroundImageFix" result="shape"/>
<feGaussianBlur stdDeviation="0.5" result="effect1_foregroundBlur_2_109"/>
</filter>
</defs>
</svg>
